<?xml version="1.0" encoding="UTF-8"?><svg id="Le" xmlns="http://www.w3.org/2000/svg" xmlns:xlink="http://www.w3.org/1999/xlink" viewBox="0 0 543 813"><defs><style>.cls-1{fill:url(#linear-gradient);}.cls-1,.cls-2,.cls-3,.cls-4,.cls-5,.cls-6,.cls-7,.cls-8,.cls-9,.cls-10,.cls-11,.cls-12,.cls-13,.cls-14,.cls-15,.cls-16,.cls-17,.cls-18,.cls-19,.cls-20{stroke-width:0px;}.cls-2{fill:url(#linear-gradient-11);}.cls-3{fill:url(#linear-gradient-12);}.cls-4{fill:url(#linear-gradient-13);}.cls-5{fill:url(#linear-gradient-10);}.cls-6{fill:url(#linear-gradient-17);}.cls-7{fill:url(#linear-gradient-16);}.cls-8{fill:url(#linear-gradient-19);}.cls-9{fill:url(#linear-gradient-15);}.cls-10{fill:url(#linear-gradient-18);}.cls-11{fill:url(#linear-gradient-14);}.cls-12{fill:url(#linear-gradient-20);}.cls-21{opacity:.6;stroke:#000;stroke-miterlimit:10;}.cls-13{fill:url(#linear-gradient-4);}.cls-14{fill:url(#linear-gradient-2);}.cls-15{fill:url(#linear-gradient-3);}.cls-16{fill:url(#linear-gradient-8);}.cls-17{fill:url(#linear-gradient-9);}.cls-18{fill:url(#linear-gradient-7);}.cls-19{fill:url(#linear-gradient-5);}.cls-20{fill:url(#linear-gradient-6);}</style><linearGradient id="linear-gradient" x1="378.86" y1="406.63" x2="482.27" y2="406.63" gradientTransform="translate(542.39) rotate(-180) scale(1 -1)" gradientUnits="userSpaceOnUse"><stop offset="0" stop-color="#944a00"/><stop offset="1" stop-color="#553400"/></linearGradient><linearGradient id="linear-gradient-2" x1="-.5" y1="173.12" x2="542.89" y2="173.12" gradientTransform="translate(542.39) rotate(-180) scale(1 -1)" gradientUnits="userSpaceOnUse"><stop offset="0" stop-color="#d4ffe6"/><stop offset=".03" stop-color="#e6e6e6"/><stop offset="1" stop-color="#dedede"/></linearGradient><linearGradient id="linear-gradient-3" x1="384.28" y1="137.72" x2="455.11" y2="137.72" gradientTransform="translate(542.39) rotate(-180) scale(1 -1)" gradientUnits="userSpaceOnUse"><stop offset="0" stop-color="#945300"/><stop offset="1" stop-color="#dedede"/></linearGradient><linearGradient id="linear-gradient-4" x1="-6.17" y1="166.33" x2="380.29" y2="166.33" gradientTransform="translate(608.44 46.67) rotate(-159.66) scale(1 -1.05)" gradientUnits="userSpaceOnUse"><stop offset="0" stop-color="#fff"/><stop offset="1" stop-color="#dedede"/></linearGradient><linearGradient id="linear-gradient-5" x1="339.45" y1="64.73" x2="380.22" y2="64.73" gradientTransform="translate(678.12 -41.3) rotate(174.56) scale(1.57 -1)" gradientUnits="userSpaceOnUse"><stop offset="0" stop-color="#967800"/><stop offset="1" stop-color="#966400"/></linearGradient><linearGradient id="linear-gradient-6" x1="443.65" y1="77.51" x2="446.5" y2="77.78" gradientTransform="translate(542.39) rotate(-180) scale(1 -1)" gradientUnits="userSpaceOnUse"><stop offset="0" stop-color="#ffd215"/><stop offset="1" stop-color="#966400"/></linearGradient><linearGradient id="linear-gradient-7" x1="435.19" y1="77.51" x2="438.04" y2="77.78" xlink:href="#linear-gradient-6"/><linearGradient id="linear-gradient-8" x1="425.32" x2="428.17" y2="77.78" xlink:href="#linear-gradient-6"/><linearGradient id="linear-gradient-9" x1="416.86" y1="77.51" x2="419.71" y2="77.78" xlink:href="#linear-gradient-6"/><linearGradient id="linear-gradient-10" x1="408.4" y1="76.1" x2="411.25" y2="76.37" xlink:href="#linear-gradient-6"/><linearGradient id="linear-gradient-11" x1="399.94" y1="76.1" x2="402.78" y2="76.37" xlink:href="#linear-gradient-6"/><linearGradient id="linear-gradient-12" x1="392.88" y1="74.69" x2="395.73" y2="74.96" xlink:href="#linear-gradient-6"/><linearGradient id="linear-gradient-13" x1="334.66" y1="169.65" x2="368.5" y2="169.65" gradientTransform="translate(618.32 -108.9) rotate(165.09) scale(1.57 -1)" xlink:href="#linear-gradient-5"/><linearGradient id="linear-gradient-14" x1="416.8" y1="180.32" x2="419.21" y2="180.55" gradientTransform="translate(491.23 -45.84) rotate(170.53) scale(1 -1)" xlink:href="#linear-gradient-6"/><linearGradient id="linear-gradient-15" x1="409.76" y1="180.4" x2="412.17" y2="180.63" gradientTransform="translate(491.23 -45.84) rotate(170.53) scale(1 -1)" xlink:href="#linear-gradient-6"/><linearGradient id="linear-gradient-16" x1="401.55" y1="180.48" x2="403.95" y2="180.71" gradientTransform="translate(491.23 -45.84) rotate(170.53) scale(1 -1)" xlink:href="#linear-gradient-6"/><linearGradient id="linear-gradient-17" x1="394.51" y1="180.55" x2="396.92" y2="180.78" gradientTransform="translate(491.23 -45.84) rotate(170.53) scale(1 -1)" xlink:href="#linear-gradient-6"/><linearGradient id="linear-gradient-18" x1="387.48" y1="179.52" x2="389.89" y2="179.75" gradientTransform="translate(491.23 -45.84) rotate(170.53) scale(1 -1)" xlink:href="#linear-gradient-6"/><linearGradient id="linear-gradient-19" x1="380.45" y1="179.59" x2="382.85" y2="179.82" gradientTransform="translate(491.23 -45.84) rotate(170.53) scale(1 -1)" xlink:href="#linear-gradient-6"/><linearGradient id="linear-gradient-20" x1="374.59" y1="178.55" x2="377" y2="178.78" gradientTransform="translate(491.23 -45.84) rotate(170.53) scale(1 -1)" xlink:href="#linear-gradient-6"/></defs><path class="cls-1" d="m121.23,49.25s8.46-40.9,21.15-47.95c12.69-7.05,21.15,16.92,21.15,16.92l-9.87,23.97s-11.28,5.64-5.64,16.92c5.64,11.28,12.69,78.97,4.23,129.74,0,0-4.23,22.12-9.87,27.28,0,0,11.28,34.77-15.51,51.7,0,0,5.64,7.05-19.74,43.72,0,0,50.77,39.49,23.97,97.31,0,0-8.46,9.87-4.23,31.03,0,0,1.41,22.56-8.46,50.77,0,0-8.46,21.15-2.82,50.77,0,0,12.69,33.62-8.46,84.5,0,0-4.23,28.32,9.87,60.75,0,0,9.87,12.69,4.23,46.54,0,0,18.33,40.9-4.23,49.36,0,0-23.97-21.15-22.56-57.82l7.05,83.2s-38.08,39.49-22.56-97.31c0,0-12.69-84.62,4.23-104.36,0,0-15.51-62.05,9.87-88.85,0,0-7.05-64.87,4.23-50.77,0,0-5.64-43.72,4.23-47.95,0,0-4.23-22.56,2.82-25.38s0-21.15,0-21.15c0,0,7.05-8.46-21.15-33.85s-22.56-39.49-22.56-39.49c0,0,2.82-8.46,12.69-9.87,0,0-12.69-9.87,2.82-29.62,15.51-19.74,12.69,12.69,12.69,12.69l2.82-15.51s11.28,0,1.41-8.46c-9.87-8.46,2.82-14.1,2.82-14.1,0,0,11.28-1.41,12.69-9.87,1.41-8.46-2.82-14.1-1.41-21.15,0,0-29.62-104.36-11.28-125.51,0,0-14.1-19.74-11.28-32.44,0,0-28.21-50.77,9.87-25.38,0,0,0-12.69,7.05-5.64,0,0,16.92-9.87,15.51,4.23,0,0,11.28-1.41,4.23,31.03Z"/><path class="cls-14" d="m84.56,92.96S-24.03,131.04,4.18,139.5c28.21,8.46,37.85,79.72,37.85,79.72,0,0,192.02-179.85,500.86,61.3,0,0-12.69-306.02-458.33-187.56Z"/><path class="cls-15" d="m151.38,71.72s-28.74,11.37-55.53,5.73c0,0-25.38,29.62,11.28,125.51,0,0,1.41,5.64,45.13-14.1,0,0,13.76-65.04-.88-117.14Z"/><path class="cls-13" d="m190.1,81.13c.03-1.08,146.57-41.55,252.1,41.1,71.2,55.77,92.93,143.46,91.23,144.49-1.73,1.05-26.83-88.64-103.72-144.28-104.88-75.88-239.64-40.29-239.62-41.32Z"/><path class="cls-21" d="m125.27,30.48c.43-.07,1.12,2.12,1.37,2.93,2.04,6.48,1.23,12.23,1.12,13.04-1.63,11.97,2.7,24.58,2.27,24.64-.39.06-2.44-10.56-3.79-21.79-.82-6.82-1.96-18.66-.97-18.82Z"/><path class="cls-19" d="m92.32,73.93c-1.55,2.44-1.54,6.06,0,8.46,3,4.69,10.63,2.92,32.44,1.41,20.03-1.39,27.44-.86,29.62-5.64,1.2-2.63.53-6.27-1.41-8.46-4.31-4.85-12.54.12-29.62,1.41-18.02,1.36-27.48-2.76-31.03,2.82Z"/><path class="cls-20" d="m96.91,77.81c.38,4.61-.71,7.82,0,8.46.44.4,1.25-.45,1.67-1.41.58-1.31.3-2.55,0-7.05-.33-4.84-.16-5.87-.84-7.05-.78-1.37-2.12-2.09-2.51-1.41-.54.95,1.26,3.48,1.67,8.46Z"/><path class="cls-18" d="m105.37,77.81c.38,4.61-.71,7.82,0,8.46.44.4,1.25-.45,1.67-1.41.58-1.31.3-2.55,0-7.05-.33-4.84-.16-5.87-.84-7.05-.78-1.37-2.12-2.09-2.51-1.41-.54.95,1.26,3.48,1.67,8.46Z"/><path class="cls-16" d="m115.25,77.81c.38,4.61-.71,7.82,0,8.46.44.4,1.25-.45,1.67-1.41.58-1.31.3-2.55,0-7.05-.33-4.84-.16-5.87-.84-7.05-.78-1.37-2.12-2.09-2.51-1.41-.54.95,1.26,3.48,1.67,8.46Z"/><path class="cls-17" d="m123.71,77.81c.38,4.61-.71,7.82,0,8.46.44.4,1.25-.45,1.67-1.41.58-1.31.3-2.55,0-7.05-.33-4.84-.16-5.87-.84-7.05-.78-1.37-2.12-2.09-2.51-1.41-.54.95,1.26,3.48,1.67,8.46Z"/><path class="cls-5" d="m132.17,76.4c.38,4.61-.71,7.82,0,8.46.44.4,1.25-.45,1.67-1.41.58-1.31.3-2.55,0-7.05-.33-4.84-.16-5.87-.84-7.05-.78-1.37-2.12-2.09-2.51-1.41-.54.95,1.26,3.48,1.67,8.46Z"/><path class="cls-2" d="m140.63,76.4c.38,4.61-.71,7.82,0,8.46.44.4,1.25-.45,1.67-1.41.58-1.31.3-2.55,0-7.05-.33-4.84-.16-5.87-.84-7.05-.78-1.37-2.12-2.09-2.51-1.41-.54.95,1.26,3.48,1.67,8.46Z"/><path class="cls-3" d="m147.68,74.99c.38,4.61-.71,7.82,0,8.46.44.4,1.25-.45,1.67-1.41.58-1.31.3-2.55,0-7.05-.33-4.84-.16-5.87-.84-7.05-.78-1.37-2.12-2.09-2.51-1.41-.54.95,1.26,3.48,1.67,8.46Z"/><path class="cls-4" d="m104.07,198.67c-.94,2.08-.43,4.86,1.16,6.52,3.11,3.23,9.14.89,26.85-3.08,16.27-3.64,22.44-4.19,23.57-8.15.62-2.18-.42-4.9-2.32-6.33-4.21-3.18-10.29,1.7-24.15,4.89-14.63,3.36-22.97,1.41-25.12,6.16Z"/><path class="cls-11" d="m108.38,201.07c.95,3.5.48,6.11,1.16,6.52.41.25.97-.5,1.18-1.3.3-1.09-.1-2-.97-5.43-.93-3.69-.94-4.5-1.65-5.32-.83-.95-2.03-1.33-2.26-.76-.32.8,1.51,2.52,2.54,6.3Z"/><path class="cls-9" d="m115.34,199.98c.95,3.5.48,6.11,1.16,6.52.41.25.97-.5,1.18-1.3.3-1.09-.1-2-.97-5.43-.93-3.69-.94-4.5-1.65-5.32-.83-.95-2.03-1.33-2.26-.76-.32.8,1.51,2.52,2.54,6.3Z"/><path class="cls-7" d="m123.45,198.72c.95,3.5.48,6.11,1.16,6.52.41.25.97-.5,1.18-1.3.3-1.09-.1-2-.97-5.43-.93-3.69-.94-4.5-1.65-5.32-.83-.95-2.03-1.33-2.26-.76-.32.8,1.51,2.52,2.54,6.3Z"/><path class="cls-6" d="m130.4,197.63c.95,3.5.48,6.11,1.16,6.52.41.25.97-.5,1.18-1.3.3-1.09-.1-2-.97-5.43-.93-3.69-.94-4.5-1.65-5.32-.83-.95-2.03-1.33-2.26-.76-.32.8,1.51,2.52,2.54,6.3Z"/><path class="cls-10" d="m137.17,195.46c.95,3.5.48,6.11,1.16,6.52.41.25.97-.5,1.18-1.3.3-1.09-.1-2-.97-5.43-.93-3.69-.94-4.5-1.65-5.32-.83-.95-2.03-1.33-2.26-.76-.32.8,1.51,2.52,2.54,6.3Z"/><path class="cls-8" d="m144.12,194.37c.95,3.5.48,6.11,1.16,6.52.41.25.97-.5,1.18-1.3.3-1.09-.1-2-.97-5.43-.93-3.69-.94-4.5-1.65-5.32-.83-.95-2.03-1.33-2.26-.76-.32.8,1.51,2.52,2.54,6.3Z"/><path class="cls-12" d="m149.72,192.38c.95,3.5.48,6.11,1.16,6.52.41.25.97-.5,1.18-1.3.3-1.09-.1-2-.97-5.43-.93-3.69-.94-4.5-1.65-5.32-.83-.95-2.03-1.33-2.26-.76-.32.8,1.51,2.52,2.54,6.3Z"/><path class="cls-21" d="m97.69,547.38c.57.09,1.47-2.79,1.81-3.86,2.69-8.55,1.62-16.11,1.47-17.19-2.15-15.77,3.56-32.39,3-32.47-.51-.08-3.22,13.91-5,28.71-1.08,8.98-2.58,24.59-1.28,24.8Z"/><path class="cls-21" d="m81.64,684.62c.57.03,1.16-2.94,1.37-4.03,1.73-8.79-.16-16.19-.42-17.24-3.86-15.44-.02-32.58-.58-32.6-.51-.02-1.67,14.18-1.82,29.08-.09,9.05.14,24.73,1.45,24.8Z"/><path class="cls-21" d="m97.43,752.61c.39.02.79-2,.93-2.74,1.18-5.97-.11-11-.29-11.71-2.62-10.49-.01-22.13-.4-22.14-.35-.01-1.14,9.63-1.23,19.75-.06,6.14.09,16.79.98,16.84Z"/><path class="cls-21" d="m142.06,200.95c-.4-.18-25.76,40.35-24.62,64.8.12,2.5.76,10.22-2.92,18.71-3.38,7.8-8.74,12.41-8.49,12.64.27.23,6.46-4.39,10.11-11.97,3.99-8.28,3.11-16.28,2.92-18.71-2.02-25.74,23.39-65.28,23-65.46Z"/><path class="cls-21" d="m121.55,431.63c-.57-.09-1.47,2.79-1.81,3.86-2.69,8.55-1.62,16.11-1.47,17.19,2.15,15.77-3.56,32.39-3,32.47.51.08,3.22-13.91,5-28.71,1.08-8.98,2.58-24.59,1.28-24.8Z"/></svg>