<?xml version="1.0" encoding="UTF-8"?><svg id="Layer_1" xmlns="http://www.w3.org/2000/svg" xmlns:xlink="http://www.w3.org/1999/xlink" viewBox="0 0 557 1001"><defs><style>.cls-1{fill:url(#linear-gradient-7);}.cls-1,.cls-2,.cls-3,.cls-4,.cls-5,.cls-6,.cls-7,.cls-8,.cls-9,.cls-10,.cls-11,.cls-12,.cls-13,.cls-14,.cls-15,.cls-16,.cls-17,.cls-18,.cls-19,.cls-20,.cls-21,.cls-22,.cls-23,.cls-24,.cls-25,.cls-26,.cls-27,.cls-28,.cls-29,.cls-30,.cls-31,.cls-32,.cls-33,.cls-34,.cls-35,.cls-36,.cls-37,.cls-38,.cls-39,.cls-40,.cls-41,.cls-42,.cls-43,.cls-44,.cls-45,.cls-46,.cls-47,.cls-48,.cls-49,.cls-50,.cls-51,.cls-52,.cls-53,.cls-54,.cls-55,.cls-56,.cls-57,.cls-58,.cls-59,.cls-60,.cls-61,.cls-62,.cls-63,.cls-64,.cls-65,.cls-66,.cls-67,.cls-68,.cls-69,.cls-70,.cls-71,.cls-72,.cls-73,.cls-74,.cls-75,.cls-76,.cls-77,.cls-78,.cls-79,.cls-80,.cls-81,.cls-82,.cls-83,.cls-84,.cls-85,.cls-86,.cls-87,.cls-88,.cls-89,.cls-90,.cls-91,.cls-92,.cls-93,.cls-94,.cls-95,.cls-96,.cls-97,.cls-98,.cls-99,.cls-100,.cls-101,.cls-102,.cls-103,.cls-104,.cls-105,.cls-106,.cls-107,.cls-108,.cls-109,.cls-110,.cls-111,.cls-112,.cls-113,.cls-114,.cls-115,.cls-116,.cls-117,.cls-118{stroke-width:0px;}.cls-1,.cls-93,.cls-94,.cls-95,.cls-96,.cls-97,.cls-98,.cls-99{opacity:.2;}.cls-119{stroke-width:3px;}.cls-119,.cls-3,.cls-120{fill:none;}.cls-119,.cls-121,.cls-122,.cls-123,.cls-120{stroke:#000;}.cls-119,.cls-121,.cls-122,.cls-123,.cls-120,.cls-124{stroke-miterlimit:10;}.cls-2{fill:url(#radial-gradient-2);}.cls-2,.cls-100{opacity:.15;}.cls-4{fill:url(#linear-gradient-100);}.cls-5{fill:url(#linear-gradient-109);}.cls-6{fill:url(#linear-gradient-107);}.cls-7{fill:url(#linear-gradient-102);}.cls-8{fill:url(#linear-gradient-104);}.cls-9{fill:url(#linear-gradient-103);}.cls-10{fill:url(#linear-gradient-105);}.cls-11{fill:url(#linear-gradient-111);}.cls-12{fill:url(#linear-gradient-110);}.cls-13{fill:url(#linear-gradient);}.cls-14{fill:url(#linear-gradient-38);}.cls-15{fill:url(#linear-gradient-33);}.cls-16{fill:url(#linear-gradient-29);}.cls-17{fill:url(#linear-gradient-32);}.cls-18{fill:url(#linear-gradient-30);}.cls-19{fill:url(#linear-gradient-31);}.cls-20{fill:url(#linear-gradient-39);}.cls-21{fill:url(#linear-gradient-34);}.cls-22{fill:url(#linear-gradient-37);}.cls-23{fill:url(#linear-gradient-28);}.cls-24{fill:url(#linear-gradient-11);}.cls-25{fill:url(#linear-gradient-12);}.cls-26{fill:url(#linear-gradient-13);}.cls-27{fill:url(#linear-gradient-10);}.cls-28{fill:url(#linear-gradient-17);}.cls-29{fill:url(#linear-gradient-16);}.cls-30{fill:url(#linear-gradient-15);}.cls-31{fill:url(#linear-gradient-23);}.cls-32{fill:url(#linear-gradient-18);}.cls-33{fill:url(#linear-gradient-22);}.cls-34{fill:url(#linear-gradient-20);}.cls-35{fill:url(#linear-gradient-45);}.cls-36{fill:url(#linear-gradient-46);}.cls-37{fill:url(#linear-gradient-44);}.cls-38{fill:url(#linear-gradient-48);}.cls-39{fill:url(#linear-gradient-49);}.cls-40{fill:url(#linear-gradient-47);}.cls-41{fill:url(#linear-gradient-42);}.cls-42{fill:url(#linear-gradient-43);}.cls-43{fill:url(#linear-gradient-40);}.cls-44{fill:url(#linear-gradient-41);}.cls-45{fill:url(#linear-gradient-59);}.cls-46{fill:url(#linear-gradient-57);}.cls-47{fill:url(#linear-gradient-58);}.cls-48{fill:url(#linear-gradient-55);}.cls-49{fill:url(#linear-gradient-56);}.cls-50{fill:url(#linear-gradient-53);}.cls-51{fill:url(#linear-gradient-51);}.cls-52{fill:url(#linear-gradient-52);}.cls-53{fill:url(#linear-gradient-50);}.cls-54{fill:url(#linear-gradient-54);}.cls-55{fill:url(#linear-gradient-60);}.cls-56{fill:url(#linear-gradient-61);}.cls-57{fill:url(#linear-gradient-62);}.cls-58{fill:url(#linear-gradient-65);}.cls-59{fill:url(#linear-gradient-79);}.cls-60{fill:url(#linear-gradient-78);}.cls-61{fill:url(#linear-gradient-77);}.cls-62{fill:url(#linear-gradient-75);}.cls-63{fill:url(#linear-gradient-74);}.cls-64{fill:url(#linear-gradient-67);}.cls-65{fill:url(#linear-gradient-68);}.cls-66{fill:url(#linear-gradient-66);}.cls-67{fill:url(#linear-gradient-63);}.cls-68{fill:url(#linear-gradient-69);}.cls-69{fill:url(#linear-gradient-64);}.cls-70{fill:url(#linear-gradient-71);}.cls-71{fill:url(#linear-gradient-72);}.cls-72{fill:url(#linear-gradient-70);}.cls-73{fill:url(#linear-gradient-73);}.cls-74{fill:url(#linear-gradient-84);}.cls-75{fill:url(#linear-gradient-85);}.cls-76{fill:url(#linear-gradient-82);}.cls-77{fill:url(#linear-gradient-83);}.cls-78{fill:url(#linear-gradient-89);}.cls-79{fill:url(#linear-gradient-88);}.cls-80{fill:url(#linear-gradient-86);}.cls-81{fill:url(#linear-gradient-87);}.cls-82{fill:url(#linear-gradient-80);}.cls-83{fill:url(#linear-gradient-81);}.cls-84{fill:url(#linear-gradient-98);}.cls-85{fill:url(#linear-gradient-91);}.cls-86{fill:url(#linear-gradient-92);}.cls-87{fill:url(#linear-gradient-93);}.cls-88{fill:url(#linear-gradient-90);}.cls-89{fill:url(#linear-gradient-96);}.cls-90{fill:url(#linear-gradient-97);}.cls-91{fill:url(#linear-gradient-94);}.cls-92{fill:url(#linear-gradient-99);}.cls-93{fill:url(#linear-gradient-19);}.cls-94{fill:url(#linear-gradient-21);}.cls-95{fill:url(#linear-gradient-14);}.cls-96{fill:url(#linear-gradient-95);}.cls-122{fill:#4a3000;}.cls-123{fill:#4a2b00;}.cls-97{fill:url(#linear-gradient-101);}.cls-98{fill:url(#linear-gradient-108);}.cls-99{fill:url(#linear-gradient-106);}.cls-100{fill:url(#radial-gradient);}.cls-101{fill:url(#linear-gradient-4);}.cls-102{fill:url(#linear-gradient-2);}.cls-103{fill:url(#linear-gradient-3);}.cls-104{fill:url(#linear-gradient-8);}.cls-105{fill:url(#linear-gradient-9);}.cls-106{fill:url(#linear-gradient-5);}.cls-107{fill:url(#linear-gradient-6);}.cls-108{fill:url(#linear-gradient-35);}.cls-108,.cls-109,.cls-110{opacity:.6;}.cls-109{fill:url(#linear-gradient-36);}.cls-110{fill:url(#linear-gradient-76);}.cls-124{fill:url(#linear-gradient-24);stroke:url(#linear-gradient-25);}.cls-111{fill:url(#linear-gradient-27);}.cls-111,.cls-112{opacity:.05;}.cls-112{fill:url(#linear-gradient-26);}.cls-114{fill:#553400;}.cls-115{fill:#2a2100;}.cls-116{fill:#42210b;}.cls-117{fill:#fff;}.cls-118{fill:#ff584d;}</style><linearGradient id="linear-gradient" x1="327.77" y1="951.09" x2="359.37" y2="951.09" gradientTransform="translate(569.21 31.95) rotate(-175.62) scale(1 -1)" gradientUnits="userSpaceOnUse"><stop offset="0" stop-color="#3f1500"/><stop offset="0" stop-color="#f8c6c2"/><stop offset="1" stop-color="#ffcdc9"/></linearGradient><linearGradient id="linear-gradient-2" x1="367.09" y1="994.88" x2="367.09" y2="930.88" gradientTransform="translate(569.21 31.95) rotate(-175.62) scale(1 -1)" gradientUnits="userSpaceOnUse"><stop offset="0" stop-color="#3f1500"/><stop offset="0" stop-color="#dedede"/><stop offset="1" stop-color="#fff"/></linearGradient><linearGradient id="linear-gradient-3" x1="275.13" y1="956.83" x2="306.72" y2="956.83" gradientTransform="matrix(1,0,0,1,0,0)" xlink:href="#linear-gradient"/><linearGradient id="linear-gradient-4" x1="314.45" y1="1000.63" x2="314.45" y2="936.63" gradientUnits="userSpaceOnUse"><stop offset="0" stop-color="#3f1500"/><stop offset="0" stop-color="#dedede"/><stop offset="1" stop-color="#fff"/></linearGradient><linearGradient id="linear-gradient-5" x1="103.4" y1="616.8" x2="103.4" y2="806.79" gradientUnits="userSpaceOnUse"><stop offset="0" stop-color="#fff"/><stop offset=".19" stop-color="#ffc4aa"/></linearGradient><linearGradient id="linear-gradient-6" x1="110.62" y1="616.8" x2="110.62" y2="803.37" xlink:href="#linear-gradient-5"/><linearGradient id="linear-gradient-7" x1="109.99" y1="723.76" x2="111" y2="679.78" gradientUnits="userSpaceOnUse"><stop offset="0" stop-color="#7feeff"/><stop offset="1" stop-color="#109e91"/></linearGradient><linearGradient id="linear-gradient-8" x1="241.51" y1="743.37" x2="241.51" y2="536.26" gradientUnits="userSpaceOnUse"><stop offset=".55" stop-color="#faffef"/><stop offset="1" stop-color="#fff"/></linearGradient><linearGradient id="linear-gradient-9" x1="121.78" y1="616.8" x2="121.78" y2="803.37" xlink:href="#linear-gradient-5"/><linearGradient id="linear-gradient-10" x1="121.78" y1="536.26" x2="121.78" y2="743.37" gradientUnits="userSpaceOnUse"><stop offset=".55" stop-color="#faffef"/><stop offset="1" stop-color="#3f2800"/></linearGradient><linearGradient id="linear-gradient-11" x1="111.12" y1="616.8" x2="111.12" y2="803.37" xlink:href="#linear-gradient-5"/><linearGradient id="linear-gradient-12" x1="111.12" x2="111.12" y2="743.37" xlink:href="#linear-gradient-10"/><linearGradient id="linear-gradient-13" x1="106.24" y1="616.8" x2="106.24" y2="803.37" xlink:href="#linear-gradient-5"/><linearGradient id="linear-gradient-14" x1="107.28" y1="657.16" x2="108.3" y2="613.17" gradientTransform="translate(357.06 42.8) rotate(31.9)" xlink:href="#linear-gradient-7"/><linearGradient id="linear-gradient-15" x1="119.09" y1="536.26" x2="119.09" y2="743.37" xlink:href="#linear-gradient-10"/><linearGradient id="linear-gradient-16" x1="117.08" y1="616.8" x2="117.08" y2="803.37" xlink:href="#linear-gradient-5"/><linearGradient id="linear-gradient-17" x1="117.08" y1="536.26" x2="117.08" y2="743.37" xlink:href="#linear-gradient-10"/><linearGradient id="linear-gradient-18" x1="99.36" y1="616.8" x2="99.36" y2="803.37" xlink:href="#linear-gradient-5"/><linearGradient id="linear-gradient-19" x1="99.7" y1="780.59" x2="100.71" y2="736.61" gradientTransform="translate(526.23 1372.53) rotate(152.91)" xlink:href="#linear-gradient-7"/><linearGradient id="linear-gradient-20" x1="117.82" x2="117.82" y2="803.37" xlink:href="#linear-gradient-5"/><linearGradient id="linear-gradient-21" x1="77.69" y1="787.11" x2="78.7" y2="743.13" gradientTransform="translate(-202.76 1431.74) rotate(-149.09)" xlink:href="#linear-gradient-7"/><linearGradient id="linear-gradient-22" x1="228.17" y1="548.63" x2="228.17" y2="942.44" gradientUnits="userSpaceOnUse"><stop offset="0" stop-color="#fff"/><stop offset="1" stop-color="#ffddd4"/></linearGradient><linearGradient id="linear-gradient-23" x1="23.12" y1="354.67" x2="442.01" y2="354.67" gradientUnits="userSpaceOnUse"><stop offset="0" stop-color="#ffd0ac"/><stop offset="1" stop-color="#ffa07d"/><stop offset="1" stop-color="#ff647d"/></linearGradient><linearGradient id="linear-gradient-24" x1="231.43" y1="482.99" x2="325.39" y2="482.99" gradientUnits="userSpaceOnUse"><stop offset="0" stop-color="#000"/><stop offset=".6" stop-color="#ff7d7d"/><stop offset="1" stop-color="#ff647d"/></linearGradient><linearGradient id="linear-gradient-25" x1="278.52" y1="520.52" x2="278.52" y2="445.47" gradientUnits="userSpaceOnUse"><stop offset="0" stop-color="#ff647d"/><stop offset="1" stop-color="#000"/></linearGradient><radialGradient id="radial-gradient" cx="55.15" cy="332.24" fx="55.15" fy="332.24" r="31.37" gradientTransform="translate(-196.01 -92.36) rotate(-24.62) scale(1 1.51)" gradientUnits="userSpaceOnUse"><stop offset="0" stop-color="#e60000"/><stop offset="1" stop-color="#ffc6a2"/></radialGradient><linearGradient id="linear-gradient-26" x1="-95.28" y1="250.12" x2="-110.93" y2="205.04" gradientTransform="translate(717.33 241.24) rotate(65.45) scale(1 1.5)" gradientUnits="userSpaceOnUse"><stop offset=".07" stop-color="#000"/><stop offset="1" stop-color="#2a85ff"/></linearGradient><linearGradient id="linear-gradient-27" x1="-125.89" y1="317.5" x2="-142.72" y2="269.04" xlink:href="#linear-gradient-26"/><linearGradient id="linear-gradient-28" x1="360.47" y1="377.6" x2="380.82" y2="377.6" gradientUnits="userSpaceOnUse"><stop offset="0" stop-color="#ffa5ac"/><stop offset="1" stop-color="#000"/></linearGradient><linearGradient id="linear-gradient-29" x1="39.35" y1="309.62" x2="69.49" y2="309.62" gradientUnits="userSpaceOnUse"><stop offset="0" stop-color="#3f1500"/><stop offset="0" stop-color="#ffcca8"/><stop offset=".25" stop-color="#fdcaa6"/><stop offset=".33" stop-color="#f6c5a2"/><stop offset=".4" stop-color="#eabb9a"/><stop offset=".45" stop-color="#d9ae8f"/><stop offset=".49" stop-color="#c39c80"/><stop offset=".53" stop-color="#a8866e"/><stop offset=".57" stop-color="#876c59"/><stop offset=".6" stop-color="#624e40"/><stop offset=".63" stop-color="#372c24"/><stop offset=".65" stop-color="#090706"/><stop offset=".66" stop-color="#000"/></linearGradient><linearGradient id="linear-gradient-30" x1="83.23" y1="338.18" x2="83.23" y2="386.1" xlink:href="#linear-gradient-29"/><linearGradient id="linear-gradient-31" x1="45.18" y1="343.27" x2="53.77" y2="343.27" xlink:href="#linear-gradient-29"/><linearGradient id="linear-gradient-32" x1="58.08" y1="393.29" x2="64.03" y2="393.29" xlink:href="#linear-gradient-29"/><linearGradient id="linear-gradient-33" x1="73.51" y1="412.13" x2="77.51" y2="412.13" gradientUnits="userSpaceOnUse"><stop offset="0" stop-color="#ffcda9"/><stop offset=".08" stop-color="#f6c5a3"/><stop offset=".22" stop-color="#ddb292"/><stop offset=".4" stop-color="#b59278"/><stop offset=".6" stop-color="#7e6553"/><stop offset=".83" stop-color="#392d25"/><stop offset="1" stop-color="#000"/></linearGradient><linearGradient id="linear-gradient-34" x1="333.01" y1="270.53" x2="396.34" y2="270.53" xlink:href="#linear-gradient-23"/><linearGradient id="linear-gradient-35" x1="398.28" y1="370.09" x2="298.93" y2="365.31" gradientTransform="translate(-29.55 71.84) rotate(-2.4) scale(1 .87)" gradientUnits="userSpaceOnUse"><stop offset="0" stop-color="#ffd0ac"/><stop offset=".88" stop-color="#ff7d7d"/><stop offset="1" stop-color="#750000"/></linearGradient><linearGradient id="linear-gradient-36" x1="293.09" y1="367.09" x2="395.55" y2="367.09" gradientTransform="translate(-29.55 71.84) rotate(-2.4) scale(1 .87)" gradientUnits="userSpaceOnUse"><stop offset="0" stop-color="#ffd0ac"/><stop offset=".75" stop-color="#ff7d7d"/><stop offset="1" stop-color="#ff507d"/></linearGradient><linearGradient id="linear-gradient-37" x1="263.67" y1="490.7" x2="263.67" y2="474.52" gradientUnits="userSpaceOnUse"><stop offset="0" stop-color="#ffffc8"/><stop offset="1" stop-color="#fff"/></linearGradient><linearGradient id="linear-gradient-38" x1="283.39" y1="496.51" x2="283.39" y2="474.56" xlink:href="#linear-gradient-37"/><linearGradient id="linear-gradient-39" x1="228.01" y1="488.88" x2="382.01" y2="488.88" gradientUnits="userSpaceOnUse"><stop offset="0" stop-color="#ff9497"/><stop offset="1" stop-color="#ff556c"/></linearGradient><linearGradient id="linear-gradient-40" x1="329.76" y1="493.83" x2="329.76" y2="474.63" xlink:href="#linear-gradient-37"/><linearGradient id="linear-gradient-41" x1="305.06" y1="497.09" x2="305.19" y2="474.43" gradientTransform="translate(-2.99 1.81) rotate(-.35)" xlink:href="#linear-gradient-37"/><linearGradient id="linear-gradient-42" x1="234.51" y1="476.9" x2="376.84" y2="476.9" gradientUnits="userSpaceOnUse"><stop offset="0" stop-color="#ffd0ac"/><stop offset=".6" stop-color="#ff7d7d"/><stop offset="1" stop-color="#ff647d"/></linearGradient><linearGradient id="linear-gradient-43" x1="234.51" y1="494.21" x2="376.84" y2="494.21" xlink:href="#linear-gradient-42"/><linearGradient id="linear-gradient-44" x1="234.51" y1="461.93" x2="376.84" y2="461.93" xlink:href="#linear-gradient-42"/><linearGradient id="linear-gradient-45" x1="234.51" y1="453.67" x2="376.84" y2="453.67" xlink:href="#linear-gradient-42"/><linearGradient id="linear-gradient-46" x1="234.51" y1="496.83" x2="376.84" y2="496.83" xlink:href="#linear-gradient-42"/><linearGradient id="linear-gradient-47" x1="234.51" y1="490.88" x2="376.84" y2="490.88" xlink:href="#linear-gradient-42"/><linearGradient id="linear-gradient-48" x1="234.51" y1="493.8" x2="376.84" y2="493.8" xlink:href="#linear-gradient-42"/><linearGradient id="linear-gradient-49" x1="234.51" y1="483.67" x2="376.84" y2="483.67" xlink:href="#linear-gradient-42"/><linearGradient id="linear-gradient-50" x1="234.51" y1="496.22" x2="376.84" y2="496.22" xlink:href="#linear-gradient-42"/><linearGradient id="linear-gradient-51" x1="234.51" y1="494.87" x2="376.84" y2="494.87" xlink:href="#linear-gradient-42"/><linearGradient id="linear-gradient-52" x1="234.51" y1="491.16" x2="376.84" y2="491.16" xlink:href="#linear-gradient-42"/><linearGradient id="linear-gradient-53" x1="234.51" y1="454.16" x2="376.84" y2="454.16" xlink:href="#linear-gradient-42"/><linearGradient id="linear-gradient-54" x1="234.51" y1="449.85" x2="376.84" y2="449.85" xlink:href="#linear-gradient-42"/><linearGradient id="linear-gradient-55" x1="234.51" y1="454.26" x2="376.84" y2="454.26" xlink:href="#linear-gradient-42"/><linearGradient id="linear-gradient-56" x1="234.59" y1="498.22" x2="376.92" y2="498.22" xlink:href="#linear-gradient-42"/><linearGradient id="linear-gradient-57" x1="234.51" y1="498.33" x2="376.84" y2="498.33" xlink:href="#linear-gradient-42"/><linearGradient id="linear-gradient-58" x1="234.51" y1="494.09" x2="376.84" y2="494.09" xlink:href="#linear-gradient-42"/><linearGradient id="linear-gradient-59" x1="271.97" y1="498.48" x2="274.42" y2="498.48" xlink:href="#linear-gradient-42"/><linearGradient id="linear-gradient-60" x1="234.51" y1="486.01" x2="376.84" y2="486.01" xlink:href="#linear-gradient-42"/><linearGradient id="linear-gradient-61" x1="234.51" y1="495.65" x2="376.84" y2="495.65" xlink:href="#linear-gradient-42"/><linearGradient id="linear-gradient-62" x1="234.51" y1="499.68" x2="376.84" y2="499.68" xlink:href="#linear-gradient-42"/><linearGradient id="linear-gradient-63" x1="234.51" y1="496.15" x2="376.84" y2="496.15" xlink:href="#linear-gradient-42"/><linearGradient id="linear-gradient-64" x1="315.86" y1="497.9" x2="318.79" y2="497.9" xlink:href="#linear-gradient-42"/><linearGradient id="linear-gradient-65" x1="303.51" y1="451.39" x2="319.62" y2="451.39" gradientUnits="userSpaceOnUse"><stop offset="0" stop-color="#ffffc8"/><stop offset="1" stop-color="#ffc"/><stop offset="1" stop-color="#fff"/></linearGradient><linearGradient id="linear-gradient-66" x1="319.62" y1="457.18" x2="351.85" y2="457.18" gradientUnits="userSpaceOnUse"><stop offset="0" stop-color="#ff7d7d"/><stop offset=".61" stop-color="#ff7183"/></linearGradient><linearGradient id="linear-gradient-67" x1="342.53" y1="456.43" x2="342.53" y2="474.64" xlink:href="#linear-gradient-37"/><linearGradient id="linear-gradient-68" x1="316.6" y1="451.13" x2="316.6" y2="475.63" xlink:href="#linear-gradient-37"/><linearGradient id="linear-gradient-69" x1="217.01" y1="280.51" x2="287.01" y2="280.51" xlink:href="#linear-gradient-23"/><linearGradient id="linear-gradient-70" x1="91.88" y1="693.68" x2="79.17" y2="657.08" gradientTransform="translate(-161.71 228.75) rotate(130.83) scale(1 -1)" gradientUnits="userSpaceOnUse"><stop offset=".07" stop-color="#000"/><stop offset=".09" stop-color="#0c0c0c"/><stop offset=".2" stop-color="#444"/><stop offset=".31" stop-color="#767676"/><stop offset=".42" stop-color="#a0a0a0"/><stop offset=".53" stop-color="#c2c2c2"/><stop offset=".64" stop-color="#ddd"/><stop offset=".76" stop-color="#f0f0f0"/><stop offset=".87" stop-color="#fbfbfb"/><stop offset="1" stop-color="#fff"/></linearGradient><linearGradient id="linear-gradient-71" x1="213.9" y1="661.72" x2="278.31" y2="661.72" gradientUnits="userSpaceOnUse"><stop offset=".55" stop-color="#fff3d4"/><stop offset="1" stop-color="#fff"/></linearGradient><linearGradient id="linear-gradient-72" x1="232.01" y1="635.63" x2="232.01" y2="645.63" gradientUnits="userSpaceOnUse"><stop offset=".55" stop-color="#fffa2a"/><stop offset="1" stop-color="#3f2800"/></linearGradient><linearGradient id="linear-gradient-73" x1="267.01" y1="638.63" x2="267.01" y2="648.63" xlink:href="#linear-gradient-72"/><linearGradient id="linear-gradient-74" x1="262.01" y1="675.63" x2="262.01" y2="685.63" xlink:href="#linear-gradient-72"/><linearGradient id="linear-gradient-75" x1="228.01" y1="673.63" x2="228.01" y2="683.63" xlink:href="#linear-gradient-72"/><linearGradient id="linear-gradient-76" x1="319.99" y1="516.13" x2="329.01" y2="516.13" gradientUnits="userSpaceOnUse"><stop offset=".55" stop-color="#ff6a6e"/><stop offset="1" stop-color="#ffaad2"/></linearGradient><linearGradient id="linear-gradient-77" x1="-49.2" y1="694.86" x2="-49.2" y2="695.49" gradientTransform="translate(-476.31 1179.89) rotate(-130.72)" gradientUnits="userSpaceOnUse"><stop offset="0" stop-color="#3f1500"/><stop offset="1" stop-color="#ffc4aa"/></linearGradient><linearGradient id="linear-gradient-78" x1="-50.87" y1="692.98" x2="-50.87" y2="693.62" gradientTransform="translate(-419.59 1246.12) rotate(-138.03)" xlink:href="#linear-gradient-77"/><linearGradient id="linear-gradient-79" x1="-50.79" y1="691.32" x2="-50.79" y2="691.96" gradientTransform="translate(-419.59 1246.12) rotate(-138.03)" xlink:href="#linear-gradient-77"/><linearGradient id="linear-gradient-80" x1="-67.51" y1="687.83" x2="-67.51" y2="688.91" gradientTransform="translate(-195.91 1570.95) rotate(-165.49) scale(1.16 1.22)" xlink:href="#linear-gradient-77"/><linearGradient id="linear-gradient-81" x1="-67.73" y1="685.65" x2="-67.73" y2="686.73" gradientTransform="translate(-195.91 1570.95) rotate(-165.49) scale(1.16 1.22)" xlink:href="#linear-gradient-77"/><linearGradient id="linear-gradient-82" x1="-67.58" y1="682.82" x2="-67.58" y2="683.9" gradientTransform="translate(-195.91 1570.95) rotate(-165.49) scale(1.16 1.22)" xlink:href="#linear-gradient-77"/><linearGradient id="linear-gradient-83" x1="-85.43" y1="699.77" x2="-85.43" y2="700.84" gradientTransform="translate(6.47 1472.55) rotate(-178.68)" xlink:href="#linear-gradient-77"/><linearGradient id="linear-gradient-84" x1="-85.65" y1="697.58" x2="-85.65" y2="698.66" gradientTransform="translate(6.47 1472.55) rotate(-178.68)" xlink:href="#linear-gradient-77"/><linearGradient id="linear-gradient-85" x1="-85.5" y1="694.76" x2="-85.5" y2="695.83" gradientTransform="translate(6.47 1472.55) rotate(-178.68)" xlink:href="#linear-gradient-77"/><linearGradient id="linear-gradient-86" x1="-97.81" y1="700.57" x2="-97.81" y2="701.41" gradientTransform="translate(280.89 1459.06) rotate(159.05)" xlink:href="#linear-gradient-77"/><linearGradient id="linear-gradient-87" x1="-97.98" y1="698.88" x2="-97.98" y2="699.72" gradientTransform="translate(280.89 1459.06) rotate(159.05)" xlink:href="#linear-gradient-77"/><linearGradient id="linear-gradient-88" x1="-97.86" y1="696.69" x2="-97.86" y2="697.53" gradientTransform="translate(280.89 1459.06) rotate(159.05)" xlink:href="#linear-gradient-77"/><linearGradient id="linear-gradient-89" x1="-110.46" y1="718.16" x2="-110.46" y2="718.93" gradientTransform="translate(421.44 1410.49) rotate(147.21)" xlink:href="#linear-gradient-77"/><linearGradient id="linear-gradient-90" x1="-110.62" y1="716.61" x2="-110.62" y2="717.38" gradientTransform="translate(421.44 1410.49) rotate(147.21)" xlink:href="#linear-gradient-77"/><linearGradient id="linear-gradient-91" x1="-110.51" y1="714.61" x2="-110.51" y2="715.38" gradientTransform="translate(421.44 1410.49) rotate(147.21)" xlink:href="#linear-gradient-77"/><radialGradient id="radial-gradient-2" cx="196.81" cy="426.13" fx="196.81" fy="426.13" r="78.83" gradientTransform="matrix(1,0,0,1,0,0)" xlink:href="#radial-gradient"/><linearGradient id="linear-gradient-92" x1="67.51" y1="427.5" x2="82.62" y2="427.5" gradientUnits="userSpaceOnUse"><stop offset="0" stop-color="#fff"/><stop offset=".11" stop-color="#fde3bb"/><stop offset=".21" stop-color="#fccd84"/><stop offset=".29" stop-color="#fbbd5c"/><stop offset=".36" stop-color="#fbb343"/><stop offset=".4" stop-color="#fbb03b"/></linearGradient><linearGradient id="linear-gradient-93" x1="812.07" y1="646.68" x2="812.07" y2="836.66" gradientTransform="translate(-279.51 1463.65) rotate(-90)" xlink:href="#linear-gradient-5"/><linearGradient id="linear-gradient-94" x1="819.28" y1="646.68" x2="819.28" y2="833.25" gradientTransform="translate(-279.51 1463.65) rotate(-90)" xlink:href="#linear-gradient-5"/><linearGradient id="linear-gradient-95" x1="818.66" y1="753.64" x2="819.67" y2="709.66" gradientTransform="translate(-279.51 1463.65) rotate(-90)" xlink:href="#linear-gradient-7"/><linearGradient id="linear-gradient-96" x1="830.45" y1="646.68" x2="830.45" y2="833.25" gradientTransform="translate(-279.51 1463.65) rotate(-90)" xlink:href="#linear-gradient-5"/><linearGradient id="linear-gradient-97" x1="830.45" y1="566.14" x2="830.45" y2="773.25" gradientTransform="translate(-279.51 1463.65) rotate(-90)" xlink:href="#linear-gradient-10"/><linearGradient id="linear-gradient-98" x1="819.79" y1="646.68" x2="819.79" y2="833.25" gradientTransform="translate(-279.51 1463.65) rotate(-90)" xlink:href="#linear-gradient-5"/><linearGradient id="linear-gradient-99" x1="819.79" y1="566.14" x2="819.79" y2="773.25" gradientTransform="translate(-279.51 1463.65) rotate(-90)" xlink:href="#linear-gradient-10"/><linearGradient id="linear-gradient-100" x1="814.91" y1="646.68" x2="814.91" y2="833.25" gradientTransform="translate(-279.51 1463.65) rotate(-90)" xlink:href="#linear-gradient-5"/><linearGradient id="linear-gradient-101" x1="724.7" y1="308.02" x2="725.72" y2="264.04" gradientTransform="translate(-236.7 1106.6) rotate(-58.1)" xlink:href="#linear-gradient-7"/><linearGradient id="linear-gradient-102" x1="827.76" y1="566.14" x2="827.76" y2="773.25" gradientTransform="translate(-279.51 1463.65) rotate(-90)" xlink:href="#linear-gradient-10"/><linearGradient id="linear-gradient-103" x1="825.74" y1="646.68" x2="825.74" y2="833.25" gradientTransform="translate(-279.51 1463.65) rotate(-90)" xlink:href="#linear-gradient-5"/><linearGradient id="linear-gradient-104" x1="825.74" y1="566.14" x2="825.74" y2="773.25" gradientTransform="translate(-279.51 1463.65) rotate(-90)" xlink:href="#linear-gradient-10"/><linearGradient id="linear-gradient-105" x1="808.03" y1="646.68" x2="808.03" y2="833.25" gradientTransform="translate(-279.51 1463.65) rotate(-90)" xlink:href="#linear-gradient-5"/><linearGradient id="linear-gradient-106" x1="-517.61" y1="431.27" x2="-516.6" y2="387.29" gradientTransform="translate(1093.02 937.43) rotate(62.91)" xlink:href="#linear-gradient-7"/><linearGradient id="linear-gradient-107" x1="826.49" y1="646.68" x2="826.49" y2="833.25" gradientTransform="translate(-279.51 1463.65) rotate(-90)" xlink:href="#linear-gradient-5"/><linearGradient id="linear-gradient-108" x1="-545.69" y1="1125.49" x2="-544.68" y2="1081.51" gradientTransform="translate(1152.23 1666.41) rotate(120.91)" xlink:href="#linear-gradient-7"/><linearGradient id="linear-gradient-109" x1="224" y1="8" x2="224" y2="74" gradientUnits="userSpaceOnUse"><stop offset="0" stop-color="#fff"/><stop offset="1" stop-color="#ffce00"/></linearGradient><linearGradient id="linear-gradient-110" y1="-.42" y2="65.58" xlink:href="#linear-gradient-109"/><linearGradient id="linear-gradient-111" x1="-69.93" y1="878.02" x2="-82.63" y2="841.42" gradientTransform="translate(883.02 228.75) rotate(49.17)" xlink:href="#linear-gradient-70"/></defs><path class="cls-13" d="m140.7,935.93s4.93,33.12-2.81,36.62,24.62-16.53,24.62-16.53l8.78-20.95-30.59.86Z"/><path class="cls-102" d="m171.29,935.07s18.86,33.43,20.7,60.2l-22.06-1.69s-2.7-24.28-8.01-29.92c-5.31-5.64-10.69,28.49-10.69,28.49l-88.42-1.2s59.3-18.74,68.19-14.94c8.89,3.8,7.8-14.71,24.25-36.33l16.03-4.61Z"/><path class="cls-103" d="m305.56,939.82s-7.45,32.65,0,36.73c7.45,4.08-23.28-18.36-23.28-18.36l-7.15-21.56,30.43,3.19Z"/><path class="cls-101" d="m275.13,936.63s-21.36,31.89-25.24,58.45h22.12s4.54-24,10.27-29.22c5.73-5.22,8.48,29.22,8.48,29.22l88.25,5.56s-57.69-23.21-66.85-20.11c-9.15,3.11-6.65-15.26-21.4-38.08l-15.63-5.82Z"/><path class="cls-106" d="m116.87,631.89c-2.22,1.53-4.73,2.51-6.02,5.65-2.48,6.05,3.39,10.82.85,14.74-3.27,5.04-16.1,1.89-16.09,1.68,0-.2,11.95,2.44,14.88-2.43,2.33-3.87-3.48-8.37-1.23-14.13,1.38-3.52,4.38-3.99,6.88-6.25-4.42-4.74-8.1-9.75-11.05-14.34h0s-26.85,16.48-17.97,44.65c7.34,23.29,5.2,60.79,4.23,73.11,1.2.5,2.32,1.25,3.26,2.46,3.09,4.01,0,7.7,3.29,12.66,3.37,5.08,9.72,5.88,9.58,6.26-.15.38-6.68.06-10.19-4.35-3.63-4.57-.3-8.84-3.61-13.29-.72-.97-1.55-1.67-2.44-2.2-.14,1.62-.23,2.52-.23,2.52-8.71,16.97-9.88,23.1-12,25-.24.21-1.84,3.62-3,6-.27.54-3,7.09-2,8,1.41,1.29,6.27-7.67,11-13,2.71-3.05,5.99-7.99,6-8h0c-.92,8.23-2.6,14.63-4,19-2.5,7.82-6,15.21-3,19,.54.69.94.81,1.13.84,2.83.57,6.76-7.88,10.87-16.84,2.94-6.42,5.99-13.98,6-14,0,0,1,31,6,41s5-48,5-48c0,0,9,26,15,34s-7.91-41.41-7.91-41.41c0,0,2.91,6.41,10.91,5.41,6.01-.75-2.88-13.49-7.67-19.79-2.04,3.59-6.23,3.45-8.48,8.42-2.52,5.56.17,11.36-.23,11.44-.4.08-3.6-5.63-1.71-10.95,1.95-5.5,7.34-4.94,9.36-10.11.02-.05.03-.09.05-.14-1.03-1.32-1.7-2.13-1.7-2.13,0,0-9.6-61.75-7.6-68.75s4-15,13.71-23l-.03-.04c-3.59-2.65-6.86-5.61-9.82-8.7Zm.14,81.8c-.11,6-12.67,10.12-12.77,9.93-.1-.18,11.43-4.24,11.35-9.93-.07-4.52-7.38-5.26-8.51-11.35-.93-4.97,3.51-6.85,2.84-12.77-.69-6.06-5.98-9.66-5.68-9.93.3-.27,5.98,2.99,7.09,8.51,1.15,5.72-3.76,8.01-2.84,13.48,1.09,6.45,8.6,7.39,8.51,12.06Z"/><path class="cls-107" d="m108.49,701.63c-.92-5.47,3.99-7.76,2.84-13.48-1.11-5.53-6.79-8.78-7.09-8.51-.3.27,4.99,3.87,5.68,9.93.67,5.92-3.77,7.8-2.84,12.77,1.14,6.09,8.45,6.83,8.51,11.35.08,5.69-11.45,9.75-11.35,9.93.1.18,12.66-3.93,12.77-9.93.09-4.67-7.43-5.61-8.51-12.06Z"/><path class="cls-1" d="m108.49,701.63c-.92-5.47,3.99-7.76,2.84-13.48-1.11-5.53-6.79-8.78-7.09-8.51-.3.27,4.99,3.87,5.68,9.93.67,5.92-3.77,7.8-2.84,12.77,1.14,6.09,8.45,6.83,8.51,11.35.08,5.69-11.45,9.75-11.35,9.93.1.18,12.66-3.93,12.77-9.93.09-4.67-7.43-5.61-8.51-12.06Z"/><path class="cls-104" d="m345.87,556.35l-177.26-20.09s-54.61,27.37-72.61,63.37c0,0,3,7.7,9.09,17.17l12.05,13.28c.46-.57.9-1.22,1.28-2.03,2.62-5.51.03-11.36.43-11.43.4-.07,3.5,5.7,1.52,10.98-.58,1.54-1.42,2.59-2.38,3.42l8.69,9.57c3.75,2.77,7.85,5.19,12.32,7.04,0,0,16-10,16-16,0,0,18.43,6,9.72,58l-3.99,36.39s84.91,42.92,156.59-6.24c0,0-4.43-45.19,3.63-88.67,0,0,5.37-12.65,35.71,33.93,0,0,23.34-19.41,30.34-50.41,0,0-6.26-29.55-41.13-58.28Z"/><path class="cls-105" d="m116.87,631.89c2.95,3.09,6.23,6.05,9.82,8.7l-8.69-9.57c-.36.32-.74.6-1.13.87Z"/><path class="cls-27" d="m116.87,631.89c2.95,3.09,6.23,6.05,9.82,8.7l-8.69-9.57c-.36.32-.74.6-1.13.87Z"/><path class="cls-24" d="m117.15,630.08l-12.05-13.28c2.95,4.59,6.63,9.6,11.05,14.34.35-.31.68-.67,1-1.06Z"/><path class="cls-25" d="m117.15,630.08l-12.05-13.28c2.95,4.59,6.63,9.6,11.05,14.34.35-.31.68-.67,1-1.06Z"/><path class="cls-26" d="m109.27,637.39c-2.25,5.77,3.56,10.27,1.23,14.13-2.94,4.87-14.87,2.23-14.88,2.43-.01.21,12.82,3.35,16.09-1.68,2.54-3.91-3.34-8.69-.85-14.74,1.29-3.14,3.8-4.12,6.02-5.65-.24-.25-.49-.5-.72-.75-2.5,2.26-5.5,2.73-6.88,6.25Z"/><path class="cls-95" d="m109.27,637.39c-2.25,5.77,3.56,10.27,1.23,14.13-2.94,4.87-14.87,2.23-14.88,2.43-.01.21,12.82,3.35,16.09-1.68,2.54-3.91-3.34-8.69-.85-14.74,1.29-3.14,3.8-4.12,6.02-5.65-.24-.25-.49-.5-.72-.75-2.5,2.26-5.5,2.73-6.88,6.25Z"/><path class="cls-30" d="m120.38,627.6c1.97-5.28-1.12-11.05-1.52-10.98-.4.07,2.19,5.92-.43,11.43-.38.8-.82,1.46-1.28,2.03l.86.94c.96-.83,1.8-1.88,2.38-3.42Z"/><path class="cls-29" d="m116.15,631.14c.24.25.48.5.72.75.39-.27.77-.56,1.13-.87l-.86-.94c-.32.39-.65.75-1,1.06Z"/><path class="cls-28" d="m116.15,631.14c.24.25.48.5.72.75.39-.27.77-.56,1.13-.87l-.86-.94c-.32.39-.65.75-1,1.06Z"/><path class="cls-32" d="m93.68,738.31c3.31,4.45-.02,8.73,3.61,13.29,3.51,4.41,10.04,4.73,10.19,4.35.15-.38-6.2-1.17-9.58-6.26-3.29-4.96-.2-8.66-3.29-12.66-.94-1.21-2.06-1.96-3.26-2.46-.04.57-.09,1.09-.13,1.55.89.53,1.72,1.23,2.44,2.2Z"/><path class="cls-93" d="m90.68,743.31c3.31,4.45-.02,8.73,3.61,13.29,3.51,4.41,10.04,4.73,10.19,4.35.15-.38-6.2-1.17-9.58-6.26-3.29-4.96-.2-8.66-3.29-12.66-.94-1.21-2.06-1.96-3.26-2.46-.04.57-.09,1.09-.13,1.55.89.53,1.72,1.23,2.44,2.2Z"/><path class="cls-34" d="m112.9,744.75c-1.88,5.31,1.31,11.02,1.71,10.95.4-.08-2.29-5.88.23-11.44,2.26-4.97,6.44-4.84,8.48-8.42-.37-.49-.71-.93-1.03-1.33-.02.05-.03.09-.05.14-2.02,5.17-7.41,4.61-9.36,10.11Z"/><path class="cls-94" d="m112.9,744.75c-1.88,5.31,1.31,11.02,1.71,10.95.4-.08-2.29-5.88.23-11.44,2.26-4.97,6.44-4.84,8.48-8.42-.37-.49-.71-.93-1.03-1.33-.02.05-.03.09-.05.14-2.02,5.17-7.41,4.61-9.36,10.11Z"/><path class="cls-33" d="m312.09,591.98c-35.91,91.35,3.67,97.54,3.67,97.54l2.25,73.11c-4,17,14,69,14,69,14,34,2,85.78,2,85.78,9,14.78,0,14.22,0,14.22-24,15-60.88,5-60.88,5-9.88,3-3.12-8.25-3.12-8.25-9-13.25,0-37.19,0-37.19,17-39.44-41-95.56-41-95.56-12,13-17,53-17,53,4,31-23,91-23,91-29-10-67,2-67,2-12,6,4-23,4-23-8-17,11-107,11-107,21-30,27.72-122,27.72-122,44.72,2,28.28-141,28.28-141,0,0,16,10,21,8,0,0-6,38,2,56,0,0,70.45-8.38,62.22-.69,0,0,4.78-9.31-2.22-22.31l36.09,2.35Z"/><path class="cls-31" d="m37.24,290.53s-31.77,20.54,0,54.82c0,0,12.23,10.28,11,41.78,0,0,15.97,68.5,46.37,22.5,0,0,13.4,112,42.4,107,0,0,70,46,77,39,0,0,87.74,92.45,131.87.72,0,0,4.13-62.72,47.13-107.72s75.31-120,18.66-168.5c0,0,23.34-46.5-25.16-116,0,0-12.86-52.9-30.18-51.7s-186.32,22.2-186.32,22.2L37.24,290.53Z"/><path class="cls-124" d="m231.56,454.9s72.21,109.79,93.83,44.26l-4.38-50.53c-22.67-14.39-47.38,35.89-89.44,3.27"/><path class="cls-100" d="m85.26,323.63c7.37,18.56-.76,36.12-9.49,54.97-2.7,5.83-9.76,21.09-14.51,20.03-3.25-.73-2.4-8.25-6-23-2.03-8.32-5.38-22.04-14-35-8.59-12.91-14.47-13.14-16-22-1.51-8.76,2.21-20.21,11-25,11.53-6.29,25.89,4.49,32,9,3.76,2.78,12.35,9.3,17,21Z"/><path class="cls-112" d="m369.55,278.81c-27.1,7.38-35.06-9.22-39.54-4.18-5.75,6.47,5.45,52.88,38.21,47.65,32.88-5.25,29.67-51.5,23.79-54.65-3.74-2-.94,5.32-22.46,11.18Z"/><path class="cls-111" d="m267.01,310.63c-27.1,7.38-41.52-18.04-46-13-5.75,6.47,8.24,38.23,41,33,32.88-5.25,40.88-44.85,35-48-3.74-2-8.48,22.14-30,28Z"/><path class="cls-23" d="m360.47,345.57s3.53,10.05,2.53,19.05c0,0,17.21,16.79,16,45,0,0,9.34-24.16-14.33-47.08,0,0,1.26-12.03-4.2-16.97Z"/><path class="cls-120" d="m65.51,135.13s-30.5,43.5-18.5,72.5c0,0-2,4-3.5,12.5l50-132s-30,13-28,47Z"/><path class="cls-123" d="m65.51,135.13c-2-34,28-47,28-47-16-40-50-6.77-50-6.77,0,0-34,23.77-40,91.77s40,47,40,47c1.5-8.5,3.5-12.5,3.5-12.5-12-29,18.5-72.5,18.5-72.5Z"/><path class="cls-122" d="m63.51,132.13c-12.27-.87-24.5,42.36-23.5,56.5.43,6.11,3,11,3,11,.95,3.56,3.07,5.83,4,8-.85.36-1.71,1.96-3,4-2.4,3.81-.69,8.05-.5,8.5l-9,29c11.02,17.4,7.57,32.11,2.73,41.4,17.7-9.93,54.27,19.6,54.27,19.6,23-21,39-14,39-14,24-25,10-59,10-59,55-49,49-68,49-68-12-48,31-23,31-23,47-24,62,0,62,0,21,37,27,11,27,11,13-56,60-15,60-15,8-2,17,22,17,22,11-20-22-52-22-52,0-30-8-18-8-18-71-76-109-40-109-40-31-38-64-15-64-15l-43.15,11.77c-7.58,2.07-14,7.1-17.83,13.96l-1.98,3.55-27.04,19.72c-5.37-.18-12.77.5-17.5,5.5-3.54,3.75-2.4,6.56-6,17-4.42,12.81-8.59,15.7-7,21"/><path class="cls-121" d="m282.51,247.13s-7-8-19-9c0,0-7-9-17-8,0,0-4.66-5.16-11.83-.08,0,0-5.17-6.92-9.17.08,0,0-12,5-11,11,0,0-6,1-10,8,0,0-9,1-4-9,0,0,8-2,13-11,0,0,2.14,3.74,7.07-2.13,0,0,1.93,1.13,11.93-10.87,0,0,6.49-3.76,8.24-1.38,0,0,3.9-3.96,8.83-.79,0,0,2.93-2.83,7.93,4.17,0,0,4,4,15,4,0,0,6,5,5,8,0,0,12,0,11,7,0,0,10,6-1,8,0,0-2,7-5,2Z"/><path class="cls-121" d="m363.22,239.75s2.24-5.98,8.78-9.08c0,0,2.03-6.54,7.87-8.1,0,0,1.53-3.89,6.64-2.55,0,0,1.44-4.99,5.17-1.9,0,0,7.81.27,8.51,3.86,0,0,3.59-.71,7.32,2.38,0,0,5.27-1.34.34-5.91,0,0-4.92.57-9.64-3.43,0,0-.41,2.55-4.43.3,0,0-.85,1.05-9.01-3.59,0,0-4.44-.74-4.93.97,0,0-3.03-1.4-5.13,1.42,0,0-2.25-.97-3.58,4.02,0,0-1.4,3.1-7.59,5.42,0,0-2.32,4.08-1.12,5.56,0,0-6.75,2.54-4.7,6.26,0,0-4.35,5.49,2.26,4.29,0,0,2.61,3.51,3.24.07Z"/><path class="cls-16" d="m40.09,304.7c5.28-1.61,17.12-3.25,28.98,8.6,1.02,1.02,0,2.72-1.37,2.28l-27.61-8.86c-.99-.32-.98-1.72,0-2.02Z"/><path class="cls-18" d="m82.81,340.68c1.49,3,2.41,8.53,1.7,18.45,0,0,21.97,15.56,1.1,26.54-1.75.92-3.92.31-4.96-1.36-4.28-6.89-10.9-20.37-8.14-36.17.42-2.43,1.03-4.69,1.75-6.77,1.33-3.87,6.74-4.34,8.55-.67Z"/><path class="cls-19" d="m45.19,340.73c.18,2.73,1.79,5.75,7.32,7.31.87.25,1.59-.72,1.11-1.49l-4.4-7.07c-1.18-1.9-4.17-.99-4.03,1.25Z"/><path class="cls-17" d="m58.26,388.65c-.35,2.79-.57,8.53,3.21,9.69,1.77.54,3.23-1.48,2.24-3.03l-4.38-6.89c-.29-.46-1-.3-1.06.24Z"/><circle class="cls-15" cx="75.51" cy="412.13" r="2"/><path class="cls-117" d="m334.51,284.13s-3.42,29,30.79,21,30.21-33,30.21-33c0,0-7.95-29.27-30.48-15.63-1.62.98-3.16,1.96-4.63,2.94-19,12.64-25.9,24.7-25.9,24.7Z"/><path class="cls-115" d="m373.51,282.13s10.79-18.4-14.1-23.7l-18.81,15.7s-4.22,21.91,20.34,16.45c0,0,10.56-2.45,12.56-8.45Z"/><circle class="cls-121" cx="359.51" cy="275.13" r="7"/><path class="cls-21" d="m395.91,273.64c.17-2.17.13-5.8-1.57-9.78-1.17-2.74-2.72-4.71-3.91-5.97l1.12,3.42-1.22-3.45c-10.83-7.37-34.57-3.45-54.74,16.08-1.8,1.75-1.95,11.94-2.6,12.69,10,1,16.61-20.67,31-21,13.66-.32,28.31,18.39,32.34,9.23l-.43-1.22Z"/><path class="cls-119" d="m400.97,260.14s-12.64-9.5-19.91-6.03"/><path class="cls-108" d="m302.53,333.01c11.08-16.49,38.18-17.28,49.86-1.34,7.31,9.97,12.52,21.11,10.3,31.11,0,0,39.91,42.13,1.22,69.56,0,0-16.63,8.47-36.2-20.42,0,0-60.86-3.3-42.44-41.65"/><path class="cls-109" d="m291.06,371.37c-17.01,35.41,38.94,38.26,38.94,38.26,18.07,26.68,33.67,19.06,33.67,19.06,35.73-25.32-.58-63.92-.58-63.92-.12-15.46-10.53-32.29-23.03-40.83-7.68-5.25-27.74.25-31.72,5.98,0,0-14.18,25.16-33.74,12.3"/><path class="cls-3" d="m261.06,480.44s14.07-18.67,12.75,10.26c.01,0,.02.01.03.02,1.11-9.99,3.88-24.47,10.09-10.16,0,0,12.24-13.69,8.19,15.95.73.1,1.46.18,2.19.25-5.21-30.25,9.98-16.49,9.98-16.49,7.83-14.25,11.12.73,12.36,10.54-.64-11.06,1.45-15.24,4.3-16.18-2.95-1.36-5.45-3.5-5.45-3.5-20,12-12-20-12-20,0,0-46,27.27-68,4,0,0,6.59,10.61,17.93,21.16,1.46-1.45,3.86-.58,7.62,4.16Z"/><path class="cls-3" d="m316.99,493.83c-.09-.91-.2-1.93-.34-3.02.06.97.13,1.99.23,3.06.04-.01.07-.03.11-.04Z"/><path class="cls-3" d="m234.01,453.63s.2.33.59.93l-.09-.43c-.17-.17-.34-.33-.5-.5Z"/><path class="cls-22" d="m261.06,480.44c-3.76-4.74-6.15-5.62-7.62-4.16,5.67,5.27,12.54,10.52,20.37,14.42,1.32-28.93-12.75-10.26-12.75-10.26Z"/><path class="cls-14" d="m283.93,480.56c-6.21-14.31-8.98.17-10.09,10.16,5.63,2.8,11.75,4.89,18.28,5.79,4.04-29.64-8.19-15.95-8.19-15.95Z"/><path class="cls-20" d="m356.19,435.74c-8.19,9.46-20.28,5.16-27.86.9-4.49-2.53-10.04-2.3-14.22.72-57.39,41.39-86.11,7.28-86.11,7.28l7.24,28.39c16.97,81.69,68.96,68.96,68.96,68.96,23.34,8.49,32.89-4.24,32.89-4.24,24.4,0,11.67-63.65,11.67-63.65-.98.95-1.97,1.87-2.94,2.75,1.74,9.76,9.37,58.3-11.32,58.3,0,0-9,12-31,4,0,0-49,12-65-65l-3.91-19.57c-.39-.6-.59-.93-.59-.93.16.17.33.34.5.5h0s.02.02.06.06c.05.05.1.09.15.14,2.45,2.31,26.9,23.12,78.12-13.82,3.94-2.84,9.17-3.06,13.4-.68,7.14,4.02,18.54,8.08,26.26-.85,0,0,24.66-10.48,24.33,9.83,0,0-1.64,2.89-4.65,5.11,6.29-1.51,9.82-7.76,9.82-7.76.35-21.54-25.81-10.43-25.81-10.43Z"/><path class="cls-118" d="m355.15,454.2l.35.04c.41-.25.8-.5,1.16-.74-.11-.08-.22-.14-.34-.23,0,0-.42.36-1.18.92Z"/><path class="cls-43" d="m324.01,475.63c-1.02-.17-2.06-.54-3.05-1-2.85.94-4.94,5.12-4.3,16.18.14,1.09.25,2.11.34,3.02,8.31-2.96,17.01-8.17,25.99-16.35-2.04-2.67-5.37-2.53-10.69,2.79,0,0-2.72-2.92-5.9-4.64-.76.14-1.56.13-2.38,0Z"/><path class="cls-44" d="m304.26,480.28s-15.28-13.67-9.88,16.56c7.1.63,14.65-.18,22.55-3.03-.1-1.07-.19-2.09-.25-3.06-1.3-9.8-4.67-24.77-12.42-10.47Z"/><path class="cls-41" d="m345.82,476.83c-.19-1.09-.32-1.7-.32-1.7-.84.82-1.68,1.59-2.52,2.36.27.35.51.75.73,1.19.7-.6,1.4-1.21,2.11-1.85Z"/><path class="cls-42" d="m316.95,494.58s.07-.03.11-.04c-.02-.23-.04-.46-.07-.71-.04.01-.07.03-.11.04.02.23.04.47.07.71Z"/><path class="cls-37" d="m304.21,448.62s-45.93,29.09-69.49,5.72c-.06-.06-.11-.11-.15-.14-.02-.02-.04-.04-.06-.06l.09.43c1.92,2.97,8.48,12.61,18.61,22,.08-.1.16-.19.24-.27-11.34-10.54-17.93-21.16-17.93-21.16,22,23.27,68-4,68-4,6.5-2.89,13.01-.04,16.11,1.77l32.23,3.54c1.4-.85,2.52-1.65,3.3-2.23l-33.84-3.71c-3.3-1.92-10.19-4.94-17.09-1.88Z"/><path class="cls-35" d="m360.24,450.9s-1.35,1.15-3.58,2.61c6.75,4.64,12.05,2.98,15.52.42-3.27.79-7.29.3-11.94-3.03Z"/><path class="cls-36" d="m292.12,496.51c-.02.12-.03.24-.05.36.76.11,1.53.2,2.31.28-.02-.13-.05-.26-.07-.39-.74-.07-1.47-.15-2.19-.25Z"/><path class="cls-40" d="m273.84,490.72s-.02-.01-.03-.02c0,.12,0,.23-.02.35,0,0,0,0,.01,0,.01-.11.03-.23.04-.34Z"/><path class="cls-117" d="m273.84,490.72c-.01.11-.03.23-.04.34,5.63,2.78,11.74,4.87,18.27,5.81.02-.12.03-.24.05-.36-6.53-.9-12.66-2.99-18.28-5.79Z"/><path class="cls-38" d="m273.84,490.72c-.01.11-.03.23-.04.34,5.63,2.78,11.74,4.87,18.27,5.81.02-.12.03-.24.05-.36-6.53-.9-12.66-2.99-18.28-5.79Z"/><path class="cls-117" d="m273.81,490.7c-7.83-3.9-14.69-9.15-20.37-14.42-.08.08-.16.17-.24.27,5.77,5.34,12.7,10.6,20.59,14.51,0-.12.01-.24.02-.35Z"/><path class="cls-39" d="m273.81,490.7c-7.83-3.9-14.69-9.15-20.37-14.42-.08.08-.16.17-.24.27,5.77,5.34,12.7,10.6,20.59,14.51,0-.12.01-.24.02-.35Z"/><path class="cls-118" d="m317.32,497.9s0,0,0,0c0-.02-.07-1.35-.26-3.36-.04.01-.07.03-.11.04.1,1.06.22,2.15.37,3.32Z"/><path class="cls-53" d="m317.32,497.9s0,0,0,0c0-.02-.07-1.35-.26-3.36-.04.01-.07.03-.11.04.1,1.06.22,2.15.37,3.32Z"/><path class="cls-118" d="m273.2,498.48h0c.29-2.69.47-5.07.59-7.22-.43,4.02-.58,7.19-.59,7.22Z"/><path class="cls-51" d="m273.2,498.48h0c.29-2.69.47-5.07.59-7.22-.43,4.02-.58,7.19-.59,7.22Z"/><path class="cls-118" d="m273.79,491.06c0,.07,0,.13,0,.2,0-.06.01-.13.02-.19,0,0,0,0-.01,0Z"/><path class="cls-52" d="m273.79,491.06c0,.07,0,.13,0,.2,0-.06.01-.13.02-.19,0,0,0,0-.01,0Z"/><path class="cls-118" d="m234.51,454.13h0s.04.04.06.06c-.04-.04-.06-.06-.06-.06Z"/><path class="cls-50" d="m234.51,454.13h0s.04.04.06.06c-.04-.04-.06-.06-.06-.06Z"/><path class="cls-118" d="m376.83,448.82c.33-20.31-24.33-9.83-24.33-9.83-7.72,8.92-19.12,4.87-26.26.85-4.23-2.38-9.46-2.17-13.4.68-51.23,36.95-75.67,16.13-78.12,13.82,23.56,23.38,69.49-5.72,69.49-5.72,6.9-3.07,13.8-.04,17.09,1.88l33.84,3.71c.76-.57,1.18-.92,1.18-.92.11.08.22.15.34.23,2.24-1.46,3.58-2.61,3.58-2.61,4.65,3.32,8.67,3.82,11.94,3.03,3.01-2.22,4.65-5.11,4.65-5.11Z"/><path class="cls-54" d="m376.83,448.82c.33-20.31-24.33-9.83-24.33-9.83-7.72,8.92-19.12,4.87-26.26.85-4.23-2.38-9.46-2.17-13.4.68-51.23,36.95-75.67,16.13-78.12,13.82,23.56,23.38,69.49-5.72,69.49-5.72,6.9-3.07,13.8-.04,17.09,1.88l33.84,3.71c.76-.57,1.18-.92,1.18-.92.11.08.22.15.34.23,2.24-1.46,3.58-2.61,3.58-2.61,4.65,3.32,8.67,3.82,11.94,3.03,3.01-2.22,4.65-5.11,4.65-5.11Z"/><path class="cls-118" d="m234.72,454.33s-.1-.09-.15-.14c.03.03.08.08.15.14Z"/><path class="cls-48" d="m234.72,454.33s-.1-.09-.15-.14c.03.03.08.08.15.14Z"/><path class="cls-118" d="m344.29,513.63l-16.11-2.95c-1.19-1.16-1.89-2.05-1.89-2.05-2.79-5.66-5.86-9-8.97-10.72,0,0,0,0,0,0,0,0,0,0,0,0-8.03-4.46-16.41,1.82-21.37,6.88h0c-.65-2.81-1.16-5.34-1.56-7.62-.78-.08-1.55-.17-2.31-.28-.36,2.57-.84,5.46-1.45,8.71h0c-4.03-5.18-10.84-11.62-17.42-7.11,0,0,0,0,0,0,0,0,0,0,0,0-2.55,1.75-5.08,5.14-7.39,10.9,0,0-.57.91-1.55,2.09l-10.25.16s-5.24-29.48-.8-35.07c-10.13-9.39-16.69-19.02-18.61-22l3.91,19.57c16,77,65,65,65,65,22,8,31-4,31-4,20.69,0,13.06-48.54,11.32-58.3-.7.64-1.41,1.24-2.11,1.85,4.49,8.85.58,34.95.58,34.95Z"/><path class="cls-49" d="m344.29,513.63l-16.11-2.95c-1.19-1.16-1.89-2.05-1.89-2.05-2.79-5.66-5.86-9-8.97-10.72,0,0,0,0,0,0,0,0,0,0,0,0-8.03-4.46-16.41,1.82-21.37,6.88h0c-.65-2.81-1.16-5.34-1.56-7.62-.78-.08-1.55-.17-2.31-.28-.36,2.57-.84,5.46-1.45,8.71h0c-4.03-5.18-10.84-11.62-17.42-7.11,0,0,0,0,0,0,0,0,0,0,0,0-2.55,1.75-5.08,5.14-7.39,10.9,0,0-.57.91-1.55,2.09l-10.25.16s-5.24-29.48-.8-35.07c-10.13-9.39-16.69-19.02-18.61-22l3.91,19.57c16,77,65,65,65,65,22,8,31-4,31-4,20.69,0,13.06-48.54,11.32-58.3-.7.64-1.41,1.24-2.11,1.85,4.49,8.85.58,34.95.58,34.95Z"/><path class="cls-118" d="m273.78,491.26c-.11,2.15-.3,4.54-.59,7.22,6.59-4.51,13.4,1.93,17.42,7.11h0c.62-3.25,1.1-6.14,1.45-8.71-6.53-.94-12.65-3.03-18.27-5.81,0,.06-.01.13-.02.19Z"/><path class="cls-46" d="m273.78,491.26c-.11,2.15-.3,4.54-.59,7.22,6.59-4.51,13.4,1.93,17.42,7.11h0c.62-3.25,1.1-6.14,1.45-8.71-6.53-.94-12.65-3.03-18.27-5.81,0,.06-.01.13-.02.19Z"/><path class="cls-118" d="m254.01,511.63l10.25-.16c.98-1.17,1.55-2.09,1.55-2.09,2.31-5.76,4.83-9.15,7.39-10.9,0-.03.16-3.2.59-7.22,0-.07,0-.13,0-.2-7.89-3.9-14.82-9.16-20.59-14.51-4.43,5.59.8,35.07.8,35.07Z"/><path class="cls-47" d="m254.01,511.63l10.25-.16c.98-1.17,1.55-2.09,1.55-2.09,2.31-5.76,4.83-9.15,7.39-10.9,0-.03.16-3.2.59-7.22,0-.07,0-.13,0-.2-7.89-3.9-14.82-9.16-20.59-14.51-4.43,5.59.8,35.07.8,35.07Z"/><polygon class="cls-118" points="273.2 498.49 273.2 498.48 273.2 498.48 273.2 498.49"/><polygon class="cls-45" points="273.2 498.49 273.2 498.48 273.2 498.48 273.2 498.49"/><path class="cls-117" d="m317.06,494.54c8.49-2.82,17.41-7.89,26.66-15.86-.22-.44-.47-.84-.73-1.19-8.98,8.17-17.68,13.38-25.99,16.35.02.24.05.48.07.71Z"/><path class="cls-55" d="m317.06,494.54c8.49-2.82,17.41-7.89,26.66-15.86-.22-.44-.47-.84-.73-1.19-8.98,8.17-17.68,13.38-25.99,16.35.02.24.05.48.07.71Z"/><path class="cls-117" d="m316.95,494.58c-.02-.24-.05-.48-.07-.71-7.91,2.8-15.47,3.57-22.56,2.9.02.13.05.26.07.39,7.09.71,14.63.04,22.56-2.58Z"/><path class="cls-56" d="m316.95,494.58c-.02-.24-.05-.48-.07-.71-7.91,2.8-15.47,3.57-22.56,2.9.02.13.05.26.07.39,7.09.71,14.63.04,22.56-2.58Z"/><path class="cls-117" d="m294.39,497.16c.4,2.29.92,4.82,1.56,7.62h0c4.96-5.06,13.34-11.34,21.37-6.88-.15-1.17-.27-2.26-.37-3.32-7.93,2.62-15.48,3.28-22.56,2.58Z"/><path class="cls-57" d="m294.39,497.16c.4,2.29.92,4.82,1.56,7.62h0c4.96-5.06,13.34-11.34,21.37-6.88-.15-1.17-.27-2.26-.37-3.32-7.93,2.62-15.48,3.28-22.56,2.58Z"/><path class="cls-117" d="m326.29,508.62s.69.9,1.89,2.05l16.11,2.95s3.91-26.1-.58-34.95c-9.25,7.97-18.17,13.04-26.66,15.86.19,2.01.26,3.34.26,3.36,3.12,1.73,6.18,5.07,8.97,10.72Z"/><path class="cls-67" d="m326.29,508.62s.69.9,1.89,2.05l16.11,2.95s3.91-26.1-.58-34.95c-9.25,7.97-18.17,13.04-26.66,15.86.19,2.01.26,3.34.26,3.36,3.12,1.73,6.18,5.07,8.97,10.72Z"/><polygon class="cls-117" points="317.32 497.9 317.32 497.9 317.32 497.9 317.32 497.9"/><polygon class="cls-69" points="317.32 497.9 317.32 497.9 317.32 497.9 317.32 497.9"/><path class="cls-58" d="m303.51,451.13l16.11,1.77c-3.11-1.81-9.61-4.66-16.11-1.77Z"/><path class="cls-117" d="m330.48,460.56s.17,1.88.67,4.25c-.12-1.27-.34-2.67-.67-4.25,0,0,0,0,0,0Z"/><path class="cls-66" d="m321.51,454.13c2.79,3.39,5.86,5.39,8.97,6.43h0s0,0,0,0c8.03,2.67,16.41-1.09,21.37-4.13l-32.23-3.54c1.19.69,1.89,1.23,1.89,1.23Z"/><path class="cls-64" d="m330.48,460.56c.34,1.58.55,2.98.67,4.25,1.24,5.88,4.52,14.87,12.36,6.32,0,0,17.69,9.61,8.35-14.7h0c-4.96,3.03-13.34,6.8-21.37,4.13Z"/><path class="cls-65" d="m321.51,454.13s-.69-.54-1.89-1.23l-16.11-1.77s-8,32,12,20c0,0,2.49,2.14,5.45,3.5,1.69-.56,3.64.03,5.44,1,3.13-.57,5.45-3.66,4.76-10.83-.5-2.37-.67-4.24-.67-4.25-3.12-1.04-6.18-3.04-8.97-6.43Z"/><path class="cls-117" d="m320.95,474.63c.99.46,2.04.83,3.05,1,.82.14,1.63.14,2.38,0-1.8-.97-3.75-1.56-5.44-1Z"/><polygon class="cls-117" points="330.48 460.56 330.48 460.56 330.48 460.56 330.48 460.56"/><path class="cls-115" d="m248.94,303.58s2.91-.68,5.96-2.19l-24.57-2.48c2.43,4.08,7.65,7.1,18.61,4.67Z"/><path class="cls-117" d="m282.51,284.13s-7.95-29.27-30.48-15.63c-1.62.98-3.16,1.96-4.63,2.94,24.9,5.3,14.1,23.7,14.1,23.7-.95,2.85-3.84,4.9-6.6,6.27-3.05,1.51-5.96,2.19-5.96,2.19-10.96,2.43-16.18-.58-18.61-4.67-3.02-5.07-1.73-11.79-1.73-11.79l18.81-15.7c-19,12.64-25.9,24.7-25.9,24.7,0,0-.08.71-.09,1.89-.05,6.3,2.04,25.86,30.88,19.11,12.51-2.93,19.9-8.13,24.25-13.55,7.55-9.4,5.96-19.45,5.96-19.45Z"/><path class="cls-115" d="m230.33,298.91l24.57,2.48c2.77-1.37,5.65-3.42,6.6-6.27,0,0,10.4-20.2-14.5-25.5l-20,19s.31,5.22,3.32,10.29Zm16.18-18.79c3.87,0,7,3.13,7,7s-3.13,7-7,7-7-3.13-7-7,3.13-7,7-7Z"/><circle class="cls-113" cx="246.51" cy="287.13" r="7"/><path class="cls-114" d="m395.01,279.63s.09,1.96.95-8.32c1.02-12.17-12.19-26.71-50.95-18.68,0,0-16.78,4.04-14.34,17.14l2.12,21.86c1.92-5.61,4.66-8.88,6.14-10.35.69-.68,1.22-1.5,1.58-2.4,1.94-4.81,11.53-22.57,30.49-16.25"/><path class="cls-68" d="m282.57,283.4c.17-2.17.13-5.8-1.57-9.78-1.17-2.74-2.72-4.71-3.91-5.97l1.12,3.42-1.22-3.45c-10.83-7.37-34.57-3.45-54.74,16.08-1.8,1.75-4.61,12.17-5.26,12.92,5,3,28.61-24.67,43-25,13.66-.32,22.97,23.15,27,14l-4.43-2.22Z"/><path class="cls-114" d="m221.51,296.13s8.5-11.5,25.9-24.7c1.41-1.07,3.01-1.96,4.63-2.94,22.52-13.63,30.48,15.63,30.48,15.63,0,0,1.6,10.06-5.96,19.45h0c34.55-9.05,16.11-29.99,16.11-29.99,2.66-13.04-10.02-20.24-10.02-20.24-54.36-21.28-53.64,12.28-61.24,21.78-7.6,9.5-3.41,28.5-11.41,25.5,0,0,10.81.78,11.41-2.61"/><path class="cls-113" d="m221.1,282.71c-.5-3.2-1.32-6.11-2.04-8.21-.73-2.1-1.3-3.4-1.21-3.45.03-.02.16.2.4.65.25.45.59,1.15,1.02,2.12.82,1.95,1.99,5.01,2.65,9.49.6,4.36.36,7.52.14,9.53-.12,1.01-.24,1.74-.34,2.21-.09.48-.15.7-.19.7-.1-.02.08-1.55.16-3.94.08-2.39-.03-5.65-.59-9.09Z"/><path class="cls-113" d="m225.03,269.62c-.84-5.31-2.3-10.11-3.58-13.54-.64-1.72-1.21-3.11-1.63-4.06-.41-.96-.62-1.51-.59-1.52.03-.02.23.34.63,1.09.41.74.96,1.9,1.67,3.48.67,1.61,1.51,3.65,2.28,6.24.79,2.58,1.58,5.68,2.11,9.35.51,3.57.68,6.66.65,9.26,0,1.3-.07,2.48-.11,3.54-.09,1.06-.14,2-.25,2.82-.1.82-.19,1.54-.27,2.14-.11.6-.19,1.09-.26,1.49-.14.78-.22,1.15-.26,1.15-.04,0,0-.63.12-1.74.07-.55.13-1.23.18-2.02.06-.79.14-1.68.17-2.66.12-1.96.1-4.29,0-6.84-.13-2.55-.41-5.32-.87-8.16Z"/><path class="cls-113" d="m235.79,268.25c.21,4.16-.62,8.06-1.79,10.65-.57,1.3-1.17,2.3-1.63,2.95-.47.65-.77.98-.8.95-.09-.06.72-1.02,1.76-3.43,1-2.4,2.1-6.39,1.69-11.96-.2-2.69-.65-4.97-1.08-6.86-.43-1.89-.86-3.41-1.2-4.61-.34-1.19-.6-2.06-.76-2.64-.16-.57-.23-.85-.19-.86.04-.01.24.41.55,1.2.31.78.73,1.92,1.19,3.34.91,2.83,2.06,6.8,2.27,11.27Z"/><path class="cls-113" d="m244.09,263.12c.49,2.2.59,4.47.23,6.47-.33,2.01-1.03,3.74-1.78,5.09-.76,1.35-1.57,2.33-2.17,2.95-.6.63-1,.91-1.02.89-.09-.08,1-.93,2.43-3.39.68-1.24,1.43-2.9,1.81-5.07.19-1.08.3-2.27.23-3.57-.07-1.29-.3-2.68-.66-4.14-.72-2.84-1.58-5.22-2.19-7.24-.65-2.01-1.18-3.64-1.59-4.93-.21-.62-.45-1.09-.71-1.4-.29-.34-.61-.67-.81-1.02-.22-.34-.29-.79-.21-1.07.08-.28.19-.37.19-.37.03,0-.11.2-.1.6.02.4.28.79.61,1.13.34.35.75.66,1.05,1.23.31.55.55,1.25.84,2,.56,1.51,1.21,3.32,1.89,5.31.68,2,1.45,4.16,1.96,6.54Z"/><path class="cls-113" d="m254.63,258.54c-.73,4.01-2.66,7.4-4.42,9.49-.87,1.07-1.71,1.81-2.29,2.32-.61.48-.96.72-.99.69-.07-.08.9-.8,2.51-2.76,1.53-1.96,3.81-5.35,4.6-10.7.36-2.58.19-4.82-.1-6.66-.3-1.84-.67-3.34-.95-4.49-.29-1.14-.69-1.82-1.02-2.12-.32-.31-.53-.35-.52-.4,0-.02.1-.02.26.04.17.06.41.19.66.46.54.53.97,1.65,1.34,3.04.4,1.39.83,3.05,1.07,4.94.24,1.89.22,4.01-.16,6.15Z"/><path class="cls-113" d="m266.32,257.85c-.6,2.02-1.49,3.91-2.63,5.42-1.14,1.51-2.47,2.65-3.72,3.39-1.25.75-2.4,1.08-3.2,1.22-.4.07-.71.1-.93.1-.21,0-.33,0-.33-.02,0-.04.3-.09.92-.24.62-.15,1.56-.43,2.7-1.09,1.14-.65,2.48-1.7,3.72-3.31,1.25-1.61,2.32-3.81,3.01-6.52,1.24-5.3,1.14-9.24,1.36-11.72.08-1.25.14-2.16.18-2.76.05-.6.08-.88.11-.88.04,0,.08.47.1,1.32.02.85.03,2.07,0,3.57-.06,2.99-.05,7.15-1.3,11.52Z"/><path class="cls-113" d="m274.01,259.67c-.51,1.75-1.36,3.38-2.48,4.61-1.11,1.24-2.48,2.01-3.69,2.37-1.22.37-2.28.33-2.97.2-.7-.13-1.04-.33-1.03-.36.01-.05.27.04.81.1.54.06,1.38.09,2.47-.2,1.07-.3,2.42-.92,3.62-2.2,1.2-1.26,2.2-3.13,2.76-5.46.53-2.27.6-4.27.47-5.93-.12-1.66-.42-2.98-.71-3.99-.6-2.02-1.08-2.86-1-2.9.03-.02.27.31.6.95.33.64.76,1.6,1.12,2.84.74,2.46,1.12,6.17.02,9.96Z"/><path class="cls-113" d="m282.25,260.21c-.76,1.94-1.38,3.84-2.44,5.49-.52.81-1.18,1.54-1.94,2.02-.76.5-1.61.72-2.36.77-1.51.1-2.65-.27-3.43-.5-.77-.25-1.18-.43-1.17-.47.01-.03.32.03.95.18.63.13,1.59.38,2.91.38.66-.01,1.41-.11,2.16-.47.75-.35,1.46-.98,2.04-1.81,1.17-1.68,1.89-4.05,2.91-6.69.96-2.58,1.77-4.79,2.46-6.65.69-1.85,1.23-3.38,1.49-4.57.55-2.41.18-3.45.29-3.46.03,0,.21.41.27,1.24.07.82-.04,2.06-.41,3.53-.79,2.92-2.18,6.83-3.74,11.02Z"/><path class="cls-113" d="m286.11,269.24c-.91,1.58-2.22,2.94-3.72,3.71-1.49.79-3.17.89-4.39.47-1.24-.39-2.05-1.14-2.44-1.73-.4-.6-.45-1-.42-1.01.04-.02.14.23.46.67.32.42.92,1.04,1.97,1.45,1.03.4,2.55.54,4.12-.22,1.57-.72,3.09-2.24,4.16-4.37,1.05-2.07,1.65-3.99,2.27-5.56.59-1.58,1.09-2.87,1.42-3.86.65-2,.38-2.86.48-2.87.03,0,.17.35.18,1.05.02.7-.17,1.73-.56,2.96-.38,1.23-.86,2.68-1.4,4.26-.56,1.57-1.13,3.34-2.13,5.04Z"/><path class="cls-113" d="m294.83,276.31c-2.2,1.41-4.49,2.52-6.68,3.28-2.15.79-4.35,1.26-6.19.91-1.86-.33-3.08-1.42-3.61-2.3-.27-.44-.4-.83-.46-1.09-.05-.27-.05-.41-.04-.41.05-.01.08.39.49,1.07.4.66,1.27,1.61,2.85,2.09,1.57.49,3.72.23,6.11-.65,2.4-.86,5.17-2.12,8.03-4.13,2.78-1.95,4.86-4.01,6.4-5.89,1.53-1.89,2.62-3.55,3.24-4.92.63-1.38.77-2.44.77-3.12,0-.68-.09-.99-.05-1,.02,0,.07.12.14.37.05.25.14.63.13,1.14.01,1.01-.36,2.51-1.26,4.16-1.78,3.28-5.12,7.44-9.88,10.49Z"/><path class="cls-113" d="m296.84,281.93c-1.95,1.24-4.02,2.16-6.02,2.66-2,.51-3.9.61-5.47.48-1.58-.13-2.82-.49-3.65-.8-.83-.32-1.25-.59-1.23-.62.04-.12,1.26.62,4.15.91,1.44.13,3.3.09,5.47-.44,2.17-.53,4.64-1.59,7.17-3.33,2.44-1.71,4.34-3.47,5.61-5.15,1.28-1.69,1.87-3.31,2.06-4.6.2-1.3.06-2.24-.07-2.83-.14-.59-.25-.86-.21-.88.02,0,.08.09.19.3.1.21.23.53.34.96.22.86.34,2.22-.09,3.83-.41,1.61-1.41,3.38-2.88,5-1.47,1.61-3.28,3.16-5.37,4.5Z"/><path class="cls-113" d="m239.76,268.41c.24,2.52-.21,5.03-1.25,6.54-.5.76-1.09,1.23-1.53,1.47-.44.25-.72.3-.73.27-.07-.1.74-.31,1.64-1.62.9-1.3,1.49-3.78,1.09-7.14-.34-3.27-1.05-5.5-1.51-6.92-.48-1.42-.75-2.04-.68-2.07.07-.03.68.95,1.36,2.64.68,1.69,1.4,4.12,1.6,6.83Z"/><path class="cls-113" d="m245.73,264.96c-.15,2.57-.92,4.92-1.8,6.45-.86,1.54-1.71,2.29-1.76,2.25-.07-.05.44-.63,1.16-2.06.71-1.43,1.57-3.81,1.69-7.23.09-3.32-.34-5.65-.54-7.16-.23-1.51-.35-2.2-.28-2.21.08-.01.45,1.1.86,2.89.39,1.79.83,4.3.66,7.07Z"/><path class="cls-113" d="m253.96,259.36c-.76,3.11-2.29,5.7-3.52,7.43-1.24,1.74-2.19,2.71-2.25,2.66-.06-.05.51-.79,1.59-2.47,1.02-1.68,2.72-4.33,3.62-8.45.8-4.03.08-6.94-.55-8.62-.66-1.7-1.22-2.33-1.14-2.39.03-.02.28.22.65.73.37.51.83,1.3,1.24,2.37.81,2.11,1.22,5.38.37,8.73Z"/><path class="cls-113" d="m254.49,260.8c.03,2.05-.54,3.92-1.17,5.14-.63,1.24-1.25,1.87-1.3,1.83-.08-.05.26-.54.76-1.69.46-1.15,1.08-3.04.98-5.7-.14-2.58-.88-4.29-1.39-5.31-.53-1.03-.87-1.43-.79-1.48.05-.04.74.56,1.47,1.82.73,1.24,1.43,3.2,1.44,5.4Z"/><path class="cls-113" d="m263.89,259.85c-.56,2.23-1.93,3.97-3.11,4.93-1.19.98-2.13,1.27-2.15,1.21-.05-.08.55-.36,1.57-1.29.98-.93,2.49-2.61,3.09-5.48.52-2.8-.17-4.78-.64-5.92-.51-1.16-.88-1.59-.81-1.64.05-.04.81.62,1.49,2.07.67,1.42,1.18,3.73.56,6.12Z"/><path class="cls-113" d="m270.6,258.81c0,1.12-.38,2.21-.9,3.02-.52.82-1.11,1.44-1.58,1.95-.97,1-1.5,1.7-1.58,1.66-.05-.02.2-.62,1.01-1.67.39-.53.94-1.18,1.47-2.04.53-.85.94-2.01.86-3.38-.09-1.33-.52-2.41-.93-3.27-.41-.87-.83-1.54-1.16-2.06-.67-1.04-1.01-1.49-.96-1.53.06-.04.78.61,1.69,1.82.45.61.95,1.36,1.36,2.28.42.91.74,2.02.73,3.22Z"/><path class="cls-113" d="m276.9,262.23c-.77,2.4-2.29,4.19-3.41,5.37-1.14,1.18-1.96,1.82-2.02,1.77-.05-.05.43-.58,1.41-1.76.49-.59,1.09-1.34,1.74-2.33.63-.99,1.33-2.22,1.72-3.77.37-1.5.29-2.85.03-3.9-.25-1.06-.68-1.83-1.09-2.36-.83-1.05-1.44-1.23-1.38-1.32.02-.03.27.03.68.26.42.22.97.66,1.48,1.38,1.02,1.41,1.68,4.05.83,6.66Z"/><path class="cls-113" d="m280.49,264.46c-.25,2.16-1.27,3.99-2.25,5.07-.98,1.09-1.82,1.5-1.85,1.45-.02-.03.08-.15.3-.37.24-.21.56-.57.98-1.08.78-1.02,1.9-2.83,2.14-5.61.1-1.34-.03-2.49-.28-3.41-.23-.93-.54-1.63-.82-2.16-.15-.26-.28-.48-.38-.67-.12-.18-.23-.33-.31-.44-.16-.23-.22-.35-.2-.37.04-.04.82.52,1.58,1.84.4.65.71,1.51.94,2.49.21.99.27,2.11.13,3.26Z"/><path class="cls-113" d="m283.81,271.03c-.64,2.24-2.35,3.8-3.75,4.42-.7.34-1.32.46-1.74.51-.43.02-.67.01-.67-.03-.02-.1.65-.11,1.88-.7.6-.32,1.32-.8,2.03-1.59.7-.77,1.36-1.87,1.68-3.26.29-1.36.1-2.53-.23-3.46-.32-.94-.68-1.69-.92-2.31-.5-1.25-.57-1.92-.52-1.92.08,0,.44.99,1.2,2.36.36.7.81,1.51,1.1,2.54.29,1.03.3,2.27-.06,3.45Z"/><path class="cls-113" d="m285.71,275.28c-.59,1.67-1.78,2.93-2.78,3.56-1.01.65-1.77.75-1.79.7-.04-.09.44-.25,1.29-.88.81-.64,2.03-1.84,2.71-3.98.62-2.08.32-3.63.05-4.52-.15-.45-.28-.77-.38-.97-.09-.21-.12-.31-.09-.32.05-.03.62.49,1.05,1.66.44,1.14.59,2.96-.06,4.75Z"/><path class="cls-113" d="m286.82,280.7c-1.22,1.36-2.71,2.15-3.79,2.62-1.09.47-1.82.66-1.86.59-.03-.06.43-.3,1.39-.85.93-.56,2.48-1.37,3.97-3.14,1.39-1.76,1.6-3.41,1.55-4.34-.06-.96-.29-1.33-.2-1.36.05-.03.58.58.68,1.87.1,1.26-.4,3.13-1.72,4.59Z"/><path class="cls-113" d="m234.64,273.42c.28,2.01-.07,3.92-.54,5.2-.48,1.29-1.01,1.98-1.07,1.95-.08-.04.2-.56.55-1.75.32-1.19.71-3.12.28-5.72-.45-2.52-1.39-4.1-2.02-5.05-.65-.95-1.03-1.3-.97-1.35.05-.05.8.45,1.68,1.59.88,1.13,1.8,2.97,2.09,5.13Z"/><path class="cls-113" d="m227.3,277.15c1.3,1.56,1.88,3.49,1.84,4.88-.02,1.4-.49,2.18-.55,2.15-.09-.02.14-.57.11-1.8-.05-1.19-.49-3.15-2.23-5.09-1.72-1.84-3.36-2.66-4.35-3.24-1.02-.56-1.49-.8-1.46-.86.04-.07.91.16,2.21.74,1.27.58,3.04,1.54,4.43,3.22Z"/><path class="cls-113" d="m223.84,280.99c.85,1.36,1.26,2.84,1.38,3.91.12,1.08,0,1.77-.07,1.77-.08,0-.11-.46-.32-1.42-.23-.95-.65-2.44-1.8-4.18-1.13-1.68-2.26-2.59-2.98-3.12-.73-.54-1.11-.71-1.06-.78.04-.06.75.11,1.73.7.98.58,2.21,1.65,3.12,3.12Z"/><path class="cls-113" d="m225.75,315.86c-.65-.77-1.35-1.39-1.92-1.81-.57-.42-.99-.67-.97-.76.01-.05.35-.01,1.01.26.64.29,1.63.85,2.61,2.05.94,1.18,1.28,2.27,1.43,2.97.15.71.11,1.06.06,1.05-.1,0-.26-.57-.61-1.31-.34-.75-.9-1.64-1.61-2.46Z"/><path class="cls-113" d="m235.26,317.62c-1.65-1.34-3.46-2.16-4.86-2.57-1.4-.41-2.36-.47-2.36-.58,0-.03.17-.05.51-.06.35-.03.87.02,1.58.11,1.39.24,3.6.85,5.96,2.84,1.13.97,1.95,1.98,2.52,2.91.58.92.93,1.74,1.16,2.41.1.34.19.63.27.88.05.26.09.46.12.63.06.33.07.5.04.5-.11.02-.36-1.05-1.11-2.48-.73-1.44-2.04-3.18-3.82-4.59Z"/><path class="cls-113" d="m247.2,322.74c-1.15-1.64-2.8-2.69-4.12-3-1.33-.35-2.26-.06-2.29-.17-.01-.03.14-.1.46-.21.33-.07.84-.19,1.54-.13,1.35.12,3.62.93,5.27,3.5.76,1.24,1.17,2.44,1.44,3.44.27,1.01.42,1.84.53,2.49.22,1.3.29,1.89.22,1.9-.09.01-.38-.95-.8-2.47-.44-1.5-1.02-3.58-2.25-5.36Z"/><path class="cls-113" d="m254.89,321.45c-1.5-1.43-3.06-2.45-3.01-2.62.02-.06.35.04.99.35.63.33,1.59.87,2.71,1.93,1.08,1.04,1.68,1.96,2.03,2.56.35.61.46.93.41.94-.17.04-1.47-1.7-3.13-3.16Z"/><path class="cls-113" d="m262.94,317.69c-1.26-.71-2.57-1.04-3.57-1.12-1-.08-1.67.05-1.7-.05-.02-.04.41-.28,1.42-.4.99-.09,2.63,0,4.52,1.12,1.82,1.12,2.67,2.52,3.06,3.45.09.24.16.45.23.63.04.18.07.34.1.46.05.24.05.36.02.37-.11.02-.35-.76-1-1.7-.63-.95-1.72-2-3.08-2.74Z"/><path class="cls-113" d="m269.65,314.32c-1.18-.61-2.39-.88-3.31-.94-.92-.06-1.54.05-1.58-.04-.02-.04.38-.27,1.3-.4.91-.1,2.43-.07,4.22.9,1.72.97,2.57,2.23,2.98,3.07.2.43.32.76.36.99.05.22.07.33.03.34-.1.02-.39-.68-1.04-1.52-.64-.84-1.69-1.75-2.97-2.39Z"/><path class="cls-113" d="m275.89,309.24c-1.31-.37-2.69-.15-3.7,0-1.02.17-1.69.28-1.72.2-.02-.06.4-.25,1.35-.56.47-.15,1.08-.33,1.85-.44.76-.1,1.72-.15,2.77.22,1.04.4,1.67,1.18,2.05,1.87.37.72.48,1.42.41,1.98-.06.57-.3.96-.46,1.18-.18.21-.28.3-.31.28-.1-.05.57-.85.31-2-.21-1.09-1.19-2.38-2.55-2.74Z"/><path class="cls-113" d="m281.6,306.77c-1.09-1.02-2.46-1.53-3.5-1.69-1.05-.17-1.77-.06-1.79-.16-.02-.05.46-.28,1.53-.31.54-.01,1.22.06,2.02.31.79.27,1.7.73,2.51,1.58.78.84,1.2,1.76,1.42,2.55.23.8.26,1.5.24,2.04-.06,1.09-.3,1.57-.34,1.55-.1-.03.06-.88-.13-2.08-.19-1.19-.79-2.72-1.97-3.81Z"/><path class="cls-113" d="m284.61,305.62c-1.23-1.2-2.66-1.92-3.79-2.23-1.13-.31-1.94-.28-1.95-.39,0-.03.13-.07.41-.1.28-.06.72-.06,1.31-.02,1.15.14,3.02.67,4.82,2.51,1.72,1.81,2.21,3.68,2.3,4.85.01.3.02.56.03.78-.02.22-.04.4-.06.54-.04.29-.07.42-.1.41-.11-.01-.05-.96-.41-2.24-.34-1.29-1.22-2.84-2.55-4.11Z"/><path class="cls-113" d="m252.59,318.11c-.98-.03-1.95.32-2.69.57-.74.25-1.25.4-1.29.32-.03-.06.25-.26.91-.63.33-.19.75-.41,1.3-.63.55-.2,1.24-.41,2.1-.33.85.1,1.48.56,1.9,1.01.42.47.65.98.71,1.43.09.94-.31,1.33-.32,1.29-.1-.03.22-.81-.24-1.59-.41-.74-1.38-1.43-2.37-1.43Z"/><path class="cls-113" d="m260.89,318.93c-.73-.86-1.73-1.36-2.51-1.57-.79-.22-1.37-.19-1.39-.28-.02-.05.37-.22,1.22-.19.81.06,2.26.32,3.43,1.83.54.74.77,1.52.84,2.18.08.67.02,1.23-.08,1.65-.2.86-.48,1.21-.52,1.18-.09-.05.15-.73.13-1.69-.02-.96-.34-2.2-1.13-3.11Z"/><path class="cls-113" d="m265.19,316.14c-.7-.44-1.4-.69-1.97-.78-.57-.09-.99-.04-1.03-.13-.02-.04.23-.22.84-.32.6-.08,1.63-.01,2.76.75,1.09.75,1.55,1.72,1.7,2.35.16.65.07.99.03.97-.1,0-.21-.56-.58-1.17-.36-.61-1-1.22-1.75-1.69Z"/><path class="cls-113" d="m269.45,312.6c-.35-.69-1.11-1.15-1.66-1.25-.56-.12-.97.16-1.04.09-.04-.01.13-.39.84-.53.35-.05.81,0,1.3.23.48.23,1.03.66,1.32,1.4.27.69.28,1.35.26,1.87-.03.53-.1.94-.16,1.27-.12.65-.2.92-.26.91-.09-.02-.13-.55-.15-1.34-.02-.78-.05-1.83-.46-2.64Z"/><path class="cls-113" d="m275.01,309.32c-.86-.66-1.79-1.01-2.52-1.1-.73-.1-1.26.02-1.3-.07-.01-.03.06-.08.24-.16.17-.09.45-.16.84-.22.77-.08,2.08.07,3.41,1.16,1.29,1.07,1.73,2.35,1.79,3.16,0,.21.01.39.02.55-.02.15-.04.28-.06.38-.04.2-.07.29-.1.28-.1-.02-.07-.71-.39-1.54-.3-.84-1-1.74-1.93-2.43Z"/><path class="cls-113" d="m279.51,309.08c-.72-.85-1.52-1.49-2.17-1.91-.65-.42-1.14-.63-1.13-.73,0-.05.38-.04,1.12.22.72.28,1.84.85,2.91,2.17,1.03,1.3,1.36,2.51,1.49,3.29.12.79.05,1.17,0,1.16-.1,0-.22-.64-.55-1.47-.32-.84-.91-1.83-1.69-2.73Z"/><path class="cls-113" d="m231.75,320.08c-.89-2.48-2.51-4.22-2.41-4.37.03-.04.4.18,1.03.83.61.66,1.51,1.76,2.17,3.59.63,1.79.64,3.2.59,4.08-.06.9-.2,1.3-.24,1.28-.1-.02-.09-.73-.22-1.76-.12-1.02-.41-2.34-.93-3.66Z"/><path class="cls-113" d="m236.05,321.3c-.74-1.56-1.68-2.82-1.59-2.97.04-.05.28.11.72.53.43.43,1.06,1.15,1.63,2.34.54,1.17.71,2.11.77,2.71.06.61.03.9-.03.89-.09,0-.24-.5-.48-1.17-.24-.67-.6-1.51-1.02-2.34Z"/><path class="cls-113" d="m241.84,324.04c-.92-2.09-2.37-3.57-2.28-3.73.03-.05.36.13.95.67.57.54,1.41,1.46,2.11,3.02.66,1.53.77,2.77.79,3.55.01.79-.08,1.16-.13,1.14-.09-.02-.16-.65-.36-1.53-.19-.89-.56-2.01-1.08-3.12Z"/><path class="cls-113" d="m336.85,278.39c-.08,2.14-.65,4.08-1.22,5.41-.58,1.33-1.13,2.07-1.19,2.04-.08-.04.21-.6.65-1.86.41-1.26.99-3.26,1.06-6.08.04-2.75-.44-4.65-.78-5.84-.35-1.19-.59-1.7-.51-1.73.07-.03.61.78,1.13,2.22.53,1.43.97,3.54.87,5.84Z"/><path class="cls-113" d="m341.81,271.7c.03,2.97-1,5.67-2.17,7.29-.57.83-1.16,1.41-1.59,1.77-.43.36-.71.51-.73.49-.07-.07.66-.58,1.68-2.09.98-1.49,2.24-4.18,2.07-8.06-.22-3.76-1.52-6.18-2.4-7.59-.91-1.42-1.48-1.95-1.41-2.01.03-.03.29.17.71.57.41.41.97,1.05,1.54,1.92,1.15,1.73,2.3,4.52,2.3,7.72Z"/><path class="cls-113" d="m345.91,267.69c.04,2.42-.79,4.64-1.79,5.95-.99,1.34-1.95,1.8-1.98,1.75-.06-.07.54-.46,1.39-1.67.81-1.2,1.81-3.38,1.64-6.52-.22-3.03-1.11-5.04-1.59-6.34-.52-1.29-.8-1.87-.73-1.9.07-.03.69.85,1.43,2.38.72,1.52,1.6,3.75,1.64,6.35Z"/><path class="cls-113" d="m348.55,264.6c-.13,1.89-.87,3.55-1.59,4.59-.73,1.05-1.39,1.53-1.44,1.49-.07-.06.31-.45.89-1.44.55-.99,1.33-2.65,1.43-5.08.07-2.36-.53-3.96-.95-4.91-.44-.96-.75-1.32-.67-1.37.05-.04.69.51,1.32,1.69.63,1.16,1.17,3.01,1.01,5.04Z"/><path class="cls-113" d="m355.22,262.94c-1.47,2.52-3.25,4.61-4.68,5.99-1.42,1.39-2.47,2.09-2.51,2.04-.05-.06.6-.64,1.85-1.99,1.23-1.37,3.1-3.53,5.02-6.94.91-1.66,1.64-3.14,2.02-4.41.39-1.28.45-2.36.31-3.13-.14-.78-.44-1.24-.66-1.51-.22-.27-.35-.38-.33-.41.01-.02.3.08.69.47.37.39.78,1.17.84,2.23.08,1.06-.13,2.34-.61,3.65-.5,1.3-1.14,2.66-1.94,4.01Z"/><path class="cls-113" d="m365.46,254.93c-1.54,3.44-3.51,6.35-5.06,8.37-.78,1.01-1.45,1.81-1.94,2.33-.49.53-.78.81-.81.79-.06-.05.64-.92,2.02-2.87,1.34-1.96,3.44-5,5.45-9.65,1.92-4.53,2.49-8,2.72-10.21.05-.56.09-1.03.12-1.44.01-.41.03-.74.03-1.01.02-.53.05-.78.08-.79.04,0,.1.41.15,1.17.04.38.05.84.03,1.38,0,.54-.02,1.15-.09,1.83-.2,2.7-1.03,6.4-2.71,10.08Z"/><path class="cls-113" d="m369.79,253.7c-.57,2.97-1.85,5.57-3.13,7.18-.63.81-1.23,1.4-1.68,1.77-.45.37-.73.54-.75.51-.06-.07.66-.61,1.78-2.13,1.1-1.52,2.53-4.13,3.19-8.09.6-3.85.4-6.63.36-8.41-.07-1.79-.12-2.61-.05-2.61.08,0,.34,1.34.55,3.48.2,2.14.35,5.12-.27,8.31Z"/><path class="cls-113" d="m376.63,255.11c-.05,1.65-.26,3.27-.77,4.71-.5,1.43-1.52,2.67-2.72,3.06-1.18.41-2.16.16-2.77.02-.61-.21-.94-.34-.92-.38.01-.03.26,0,.75.1.24.07.56.09.94.11.19.02.4.03.62,0,.22-.04.47-.02.71-.11.99-.22,2.11-1.1,2.65-2.62.59-1.48.78-3.4.81-5.6.05-4.3-.64-7.29-1.11-9.18-.5-1.89-.82-2.72-.75-2.75.04-.01.22.31.49.92.27.61.61,1.51.95,2.65.68,2.26,1.27,5.53,1.13,9.07Z"/><path class="cls-113" d="m382.33,258.38c-.49,1.65-.91,3.3-1.69,4.74-.38.71-.85,1.35-1.39,1.87-.55.52-1.17.87-1.77,1.09-1.21.43-2.3.29-2.94,0-.65-.31-.87-.65-.85-.66.03-.04.22.15.71.35.48.2,1.31.38,2.37.08.52-.15,1.1-.41,1.64-.84.54-.42,1.03-1.04,1.45-1.78.85-1.48,1.3-3.48,1.97-5.75.61-2.22,1.23-4.1,1.4-5.69.19-1.6-.1-2.86-.54-3.72-.43-.87-.96-1.32-1.31-1.58-.36-.25-.55-.32-.53-.36,0-.03.38,0,.94.37.56.35,1.28,1.12,1.71,2.32.45,1.2.48,2.79.16,4.43-.32,1.65-.82,3.36-1.32,5.15Z"/><path class="cls-113" d="m387.5,262c-1.25,2.94-3.67,5.03-5.71,5.75-1.02.38-1.9.5-2.51.48-.61-.01-.93-.09-.93-.12,0-.12.95.08,2.79-.58.9-.35,1.99-.97,3.08-2,1.07-1.04,2.16-2.5,2.86-4.42.68-1.88.9-3.59,1.01-5.02.11-1.43.08-2.6.07-3.53-.05-1.84-.1-2.69-.03-2.69.08,0,.35,1.38.52,3.6.14,2.19.2,5.36-1.14,8.53Z"/><path class="cls-113" d="m395.36,266.26c-1.02,1.63-2.71,2.48-4.14,3.02-1.46.55-2.83.88-4,1.07-1.17.19-2.14.25-2.81.25-.67,0-1.04-.04-1.04-.08,0-.09,1.04-.09,3.2-.5,1.08-.22,2.43-.56,4.02-1.17.79-.31,1.64-.68,2.46-1.24.82-.55,1.58-1.33,2.06-2.37.48-1,.71-2.02.91-2.97.19-.95.34-1.83.46-2.64.23-1.61.34-2.93.4-3.96.11-2.07.08-3.01.16-3.01.04,0,.11.39.17,1.09.06.7.1,1.72.07,2.97-.03,1.25-.13,2.74-.37,4.36-.26,1.6-.47,3.44-1.53,5.17Z"/><path class="cls-113" d="m396.32,274c-1.27.56-2.63.64-3.81.48-1.18-.17-2.18-.55-2.97-.92-1.59-.76-2.48-1.4-2.45-1.47.03-.07.72.28,2.22.89.75.29,1.72.65,2.96.83,1.21.16,2.77.12,4.23-.71,1.42-.82,2.03-2.17,2.28-3.27.25-1.13.23-2.09.21-2.84-.07-1.5-.19-2.2-.11-2.21.07,0,.45,1.11.6,2.95.06.92.05,2.05-.37,3.26-.41,1.19-1.39,2.42-2.77,3.01Z"/><path class="cls-113" d="m396.05,278.11c-.98.59-2.14.78-3.14.68-1-.12-1.79-.43-2.45-.63-1.31-.45-2.18-.37-2.21-.45-.02-.04.62-.3,1.96-.07.66.1,1.48.36,2.48.48.99.1,2.24-.07,3.35-.89,1.08-.78,1.75-1.75,2.23-2.56.48-.83.77-1.56.99-2.14.42-1.16.53-1.7.61-1.68.07.02.06.98-.4,2.44-.23.73-.56,1.58-1.1,2.44-.54.86-1.29,1.74-2.34,2.38Z"/><path class="cls-113" d="m392.73,294.02c-1.36-.34-2.69-.32-3.62-.06-.94.24-1.48.64-1.55.56-.04-.03.24-.44,1.14-.89.88-.42,2.47-.81,4.55-.22,1.99.62,3.2,1.51,3.99,2,.78.52,1.12.76,1.09.81-.05.07-.73-.2-1.75-.68-1.02-.47-2.37-1.15-3.85-1.52Z"/><path class="cls-113" d="m388.58,299.41c-1.3-1.13-2.93-1.65-4.13-1.96-1.21-.31-2.03-.44-2.02-.53,0-.06.57-.1,1.78.03.6.07,1.37.2,2.27.49.89.3,1.95.77,2.9,1.71.93.93,1.35,2.03,1.51,2.97.17.95.06,1.77-.15,2.38-.2.62-.51,1.01-.71,1.26-.22.23-.34.33-.36.3-.1-.07.67-.87.76-2.26.1-1.35-.47-3.21-1.86-4.39Z"/><path class="cls-113" d="m382.37,303.66c-1-.98-2.07-1.72-2.91-2.2-.84-.48-1.44-.73-1.42-.82,0-.05.46-.01,1.37.3.89.34,2.26.98,3.72,2.45,1.4,1.45,2.01,2.82,2.33,3.7.32.9.34,1.35.3,1.35-.1.02-.37-.69-.91-1.63-.54-.95-1.39-2.11-2.47-3.15Z"/><path class="cls-113" d="m377.09,304.23c-1.28-.38-2.51-.49-3.44-.48-.93.01-1.54.12-1.58.02-.02-.05.37-.26,1.28-.44.9-.16,2.36-.29,4.27.3,1.85.61,2.97,1.55,3.61,2.19.64.66.84,1.06.8,1.08-.08.06-.6-.47-1.47-1.06-.86-.6-2.09-1.23-3.47-1.61Z"/><path class="cls-113" d="m371.92,307.11c-1.36-1.09-2.87-1.77-4.03-2.13-1.16-.36-1.97-.45-1.97-.54,0-.05.56-.14,1.75.04,1.16.2,3.03.66,5.02,2.33.94.82,1.64,1.69,1.98,2.6.36.9.26,1.81,0,2.41-.25.62-.65.99-.94,1.18-.3.19-.47.21-.48.19-.02-.05.23-.19.52-.53.29-.33.57-.89.62-1.56.14-1.39-1.02-2.84-2.49-4Z"/><path class="cls-113" d="m364.88,308.34c-2.41-.5-4.36-1.47-4.32-1.63.04-.13,1.45.33,4.75.98.8.17,1.5.25,2.12.52.61.25,1.06.77,1.21,1.23.18.46.12.9.02,1.15-.11.26-.22.35-.24.33-.04-.03.06-.24.06-.58,0-.34-.15-.76-.46-1.08-.63-.7-1.82-.62-3.14-.91Z"/><path class="cls-113" d="m363.11,306.81c-1.1-.73-2.27-1.1-3.18-1.2-.9-.1-1.53,0-1.56-.09-.01-.03.09-.08.3-.15.21-.09.55-.15,1.01-.21.91-.07,2.44.08,4.1,1.24,1.6,1.15,2.27,2.54,2.52,3.45.05.23.1.44.14.61.01.18.02.32.03.44,0,.23,0,.34-.03.34-.11,0-.23-.76-.73-1.69-.49-.94-1.4-1.97-2.59-2.73Z"/><path class="cls-113" d="m357.98,308.22c-1.09-.77-2.35-1.11-3.3-1.19-.95-.09-1.6.03-1.63-.06-.02-.05.39-.27,1.36-.38.93-.07,2.56-.04,4.27,1.25,1.61,1.32,2.06,2.89,2.23,3.82.16.97.05,1.44,0,1.43-.1,0-.16-.79-.56-1.81-.4-1.01-1.19-2.25-2.37-3.07Z"/><path class="cls-113" d="m351.49,308.26c-2.59-.82-4.77-2.01-4.7-2.17.05-.11,1.6.45,5.26,1.61.88.35,1.62.87,1.98,1.59.34.71.32,1.39.15,1.9-.16.52-.51.85-.75,1-.25.15-.4.16-.41.14-.02-.05.2-.16.43-.45.23-.28.41-.75.37-1.26-.03-.51-.23-1.07-.66-1.44-.43-.4-1.01-.67-1.67-.91Z"/><path class="cls-113" d="m348.42,307.4c-.88-.79-2.02-1.1-2.88-1.13-.86-.04-1.44.15-1.48.06-.03-.04.32-.33,1.21-.49.44-.08,1.02-.09,1.71.05.67.16,1.48.49,2.17,1.21.66.71.98,1.52,1.11,2.21.14.7.1,1.29.02,1.75-.18.92-.48,1.29-.51,1.26-.09-.05.18-.77.11-1.78-.06-1-.49-2.3-1.44-3.14Z"/><path class="cls-113" d="m345.25,307.29c-.63-.79-1.35-1.4-1.95-1.79-.59-.39-1.05-.58-1.04-.68,0-.05.36-.06,1.05.18.67.25,1.71.79,2.68,2.05.92,1.24,1.16,2.4,1.22,3.14.06.75-.05,1.1-.09,1.09-.1-.02-.16-.63-.42-1.42-.26-.79-.76-1.73-1.45-2.58Z"/><path class="cls-113" d="m393.99,292.65c-1.26-.52-2.61-.6-3.62-.68-1.01-.07-1.68-.14-1.69-.23,0-.07.44-.13,1.41-.21.49-.04,1.1-.07,1.86-.03.75.05,1.67.16,2.64.64.95.48,1.56,1.22,1.94,1.9.37.69.51,1.36.49,1.9-.05,1.11-.51,1.53-.52,1.49-.1-.04.33-.89.02-1.98-.29-1.06-1.23-2.27-2.54-2.8Z"/><path class="cls-113" d="m395.46,294.29c-3.58-.54-6.76-.54-6.78-.72,0-.06.55-.16,1.74-.22,1.19-.05,3.03-.08,5.56.29,2.45.38,4.15.92,5.24,1.3,1.08.39,1.56.63,1.53.68-.09.17-3.44-.83-7.28-1.32Z"/><path class="cls-113" d="m395.04,290.66c-.95-.82-2.13-1.2-3.02-1.3-.9-.11-1.52.01-1.55-.08-.02-.05.37-.28,1.3-.37.89-.05,2.48.02,3.99,1.43.7.7,1.09,1.49,1.3,2.18.22.69.25,1.3.24,1.78-.04.96-.26,1.38-.3,1.36-.1-.03.03-.79-.18-1.82-.2-1.02-.76-2.31-1.79-3.18Z"/><path class="cls-113" d="m389.67,298.05c-.17-.53-.51-.86-1-1.17-.49-.3-1-.6-1.39-.87-.8-.54-1.26-.95-1.23-1.02.03-.06.41.12,1.22.51.41.19.92.44,1.55.74.31.16.66.35.98.66.31.31.55.76.65,1.26.19.99-.09,1.87-.42,2.5-.34.63-.72,1.07-1,1.41-.59.66-.88.92-.92.87-.07-.07.3-.64.85-1.53.26-.44.55-.98.72-1.56.16-.58.19-1.24,0-1.81Z"/><path class="cls-113" d="m392.85,296.54c-.96-.74-2.21-.97-3.13-1.16-.93-.18-1.55-.31-1.54-.4,0-.06.42-.1,1.34-.07.46.02,1.03.04,1.74.19.69.15,1.55.4,2.31,1.1.77.73.92,1.68.92,2.41-.03.75-.28,1.37-.63,1.79-.35.43-.79.58-1.05.65-.27.04-.4.04-.4.01,0-.05.21-.12.51-.3.31-.18.65-.54.81-1.03.34-.95.12-2.46-.88-3.17Z"/><path class="cls-113" d="m383.11,300.94c.13-.64.2-1.22.11-1.7-.07-.47-.33-.8-.65-1.04-.64-.49-1.23-.17-1.27-.23-.02-.02.04-.13.24-.23.2-.11.57-.19,1.01-.04.43.15.99.5,1.23,1.21.25.69.18,1.57-.04,2.49-.83,3.57-1.01,5.1-1.14,5.07-.17-.03-.17-2.69.49-5.53Z"/><path class="cls-113" d="m381.86,304.3c-.16-.91-.51-1.68-.87-2.22-.36-.53-.72-.83-.67-.92.02-.04.34.04.87.47.5.44,1.2,1.32,1.43,2.8.2,1.44-.21,2.52-.59,3.12-.39.62-.71.8-.72.77-.07-.08.28-.57.49-1.32.22-.75.26-1.73.07-2.7Z"/><path class="cls-113" d="m379.5,305.47c-.3-1.07-.96-1.99-1.43-2.7-.49-.7-.79-1.2-.73-1.26.05-.05.34.2.92.79.29.29.65.68,1.03,1.19.37.52.8,1.19.99,2.09.17.91-.05,1.7-.34,2.3-.31.6-.72,1.03-1.14,1.27-.86.48-1.4.31-1.37.28-.02-.1.85-.16,1.45-.92.6-.71.95-1.96.62-3.05Z"/><path class="cls-113" d="m375.6,306.91c-.11-1.28-.52-2.4-.96-3.17-.44-.77-.87-1.21-.81-1.29.02-.04.42.15,1.03.83.58.68,1.36,1.94,1.49,3.9.09,1.92-.53,3.27-1.03,4.03-.26.38-.49.64-.66.79-.16.16-.25.22-.27.19-.07-.08.39-.66.76-1.62.38-.95.59-2.28.45-3.65Z"/><path class="cls-113" d="m371.18,306.2c-.26-.47-.53-.86-.77-1.17-.24-.3-.47-.52-.44-.6.01-.06.22-.04.6.16.37.21.92.62,1.35,1.45.41.82.43,1.55.37,2.01-.07.47-.19.67-.23.64-.08-.04-.08-.47-.21-.96-.12-.5-.37-1.03-.65-1.53Z"/><path class="cls-113" d="m367.27,307.02c-1.52-.83-3.1-1.05-3.14-1.22,0-.06.28-.13.91-.11.62.03,1.59.16,2.79.8,1.16.64,1.81,1.39,2.18,1.9.37.52.47.81.42.83-.09.04-.45-.35-1-.81-.55-.47-1.32-.97-2.15-1.39Z"/><path class="cls-113" d="m362.86,308.9c-.66-.77-1.52-1.33-2.16-1.78-.65-.44-1.06-.77-1.03-.85.03-.06.36.06,1.05.35.34.15.78.35,1.28.65.5.31,1.09.71,1.6,1.39.96,1.39.78,2.8.39,3.55-.42.78-.9.94-.9.9-.07-.08.52-.59.62-1.46.12-.85-.16-1.96-.85-2.75Z"/><path class="cls-113" d="m352.34,308.89c-.51-.93-1.37-1.57-2.08-1.88-.71-.32-1.27-.36-1.28-.46-.01-.05.38-.18,1.19-.03.4.08.9.25,1.45.59.53.35,1.12.89,1.49,1.72.36.81.39,1.61.3,2.25-.08.65-.29,1.15-.5,1.53-.42.76-.79,1-.82.96-.07-.07.36-.64.58-1.54.23-.89.22-2.13-.34-3.13Z"/><path class="cls-113" d="m356.73,310.72c-.37-.95-.78-1.74-1.22-2.27-.42-.53-.81-.83-.77-.92.02-.05.35.03.93.45.57.43,1.31,1.29,1.83,2.73.5,1.39.65,2.44.77,3.1.11.67.14.97.08.98-.21.02-.85-2.03-1.62-4.07Z"/><path class="cls-113" d="m342.64,307.26c.37-.43.65-.85.82-1.22.17-.37.25-.68.34-.7.05-.01.15.19.13.65-.03.45-.21,1.17-.89,1.91-.68.71-1.44.96-1.94,1.01-.51.05-.76-.05-.74-.09.02-.09.47-.16.95-.42.48-.25.94-.67,1.33-1.13Z"/><path class="cls-113" d="m346.62,309.82c-.09-1.22-.5-2.54-.38-2.63.05-.04.22.13.46.58.12.22.26.51.38.89.06.19.12.4.17.63.05.25.09.43.1.84,0,.09,0,.19,0,.28-.02.07-.14.06-.21.1-.15.05-.3.1-.44.14-.21.07-.4.14-.57.21-.35.13-.63.24-.85.32-.44.17-.65.25-.66.18-.02-.08.27-.38.77-.73.25-.17.55-.35.88-.52.14-.08.43-.19.38-.21.02-.03-.02-.07-.03-.08Z"/><path class="cls-113" d="m386.87,266.08c-.85,2.09-2.48,3.6-3.86,4.23-1.39.66-2.39.56-2.38.51-.02-.09.64-.11,1.85-.73,1.16-.61,2.92-2,3.89-4.71.45-1.31.6-2.49.64-3.48.05-.99-.01-1.8-.07-2.43-.12-1.26-.24-1.83-.16-1.84.07-.01.44.91.68,2.45.23,1.52.32,3.76-.59,6Z"/><path class="cls-113" d="m390.9,269.15c.09,1.93-.84,3.6-1.73,4.47-.9.9-1.69,1.13-1.72,1.08-.05-.07.44-.31,1.18-1.14.37-.42.77-1,1.1-1.79.31-.79.55-1.81.42-2.96-.14-1.12-.56-2.01-1.01-2.66-.45-.66-.93-1.09-1.32-1.4-.79-.6-1.23-.71-1.2-.79.02-.06.84,0,1.91.76,1.04.73,2.28,2.33,2.37,4.42Z"/><path class="cls-113" d="m392.22,272.14c.06,1.55-.56,2.94-1.23,3.73-.67.8-1.3,1.06-1.33,1.01-.06-.07.3-.32.82-1.06.49-.73,1.14-2.07,1-3.99-.17-1.85-.96-2.96-1.49-3.53-.28-.29-.49-.48-.64-.59-.14-.12-.2-.19-.18-.22.03-.05.69.1,1.46.84.78.72,1.55,2.14,1.59,3.8Z"/><path class="cls-113" d="m378.34,260.25c-.23,1.6-1.02,2.95-1.76,3.74-.74.8-1.38,1.1-1.42,1.05-.06-.07.31-.35.9-1.11.56-.76,1.37-2.09,1.6-4.12.2-1.98-.28-3.33-.62-4.12-.36-.8-.62-1.1-.54-1.14.06-.04.62.4,1.15,1.4.54.98.95,2.59.68,4.31Z"/><path class="cls-113" d="m371.14,255.82c.97,1.35,1.38,2.9,1.43,4.01.05,1.12-.18,1.8-.24,1.79-.09,0-.03-.48-.16-1.47-.15-.97-.53-2.52-1.82-4.2-1.27-1.61-2.58-2.29-3.4-2.65-.83-.36-1.24-.4-1.22-.49.02-.07.75-.12,1.85.27,1.1.37,2.53,1.27,3.56,2.73Z"/><path class="cls-113" d="m367.69,257.31c.27,1.62-.7,2.97-1.55,3.48-.88.56-1.56.45-1.56.39-.02-.09.4-.11,1.09-.6.34-.25.71-.65,1.01-1.22.28-.57.47-1.37.22-2.2-.25-.8-.78-1.33-1.27-1.63-.49-.32-.95-.43-1.3-.47-.71-.07-.98.09-1,0-.03-.05.46-.49,1.49-.39.5.05,1.11.26,1.66.69.55.43,1.05,1.11,1.2,1.96Z"/><path class="cls-113" d="m365.55,260.91c-1.66.88-3.3,1.03-4.41,1.3-1.13.23-1.82.5-1.87.43-.03-.05.4-.37,1.45-.77.53-.2,1.21-.39,2.03-.63.82-.25,1.8-.54,2.78-1.15.94-.59,1.54-1.36,1.73-2.07.21-.72.12-1.34-.04-1.74-.34-.81-.76-.87-.69-.96.02-.03.2-.02.47.14.26.17.63.55.8,1.18.18.62.18,1.46-.23,2.28-.4.82-1.16,1.52-2.03,1.99Z"/><path class="cls-113" d="m362.83,259.55c-.68,1.17-1.61,2.06-2.36,2.59-.75.53-1.31.73-1.35.67-.05-.06.27-.29.88-.85.6-.57,1.5-1.5,2.35-3.03.81-1.5,1.09-2.68,1.24-3.43.15-.75.16-1.1.24-1.09.08.01.21.62.13,1.59-.07.97-.4,2.3-1.14,3.55Z"/><path class="cls-113" d="m358.49,258.75c-.28,1.96-1.2,3.62-2.07,4.62-.87,1.01-1.62,1.42-1.66,1.37-.06-.07.39-.42,1.11-1.38.69-.96,1.67-2.61,1.95-5.13.24-2.45-.32-4.15-.74-5.14-.22-.5-.4-.85-.53-1.07-.12-.23-.17-.34-.14-.36.05-.04.71.54,1.32,1.79.62,1.23,1.08,3.2.76,5.3Z"/><path class="cls-113" d="m362.35,255.74c.11,1.7-.32,3.27-.83,4.29-.51,1.03-1.03,1.55-1.08,1.51-.08-.04.19-.45.57-1.42.34-.96.8-2.53.59-4.71-.23-2.11-.93-3.46-1.4-4.26-.49-.81-.79-1.11-.72-1.16.05-.04.68.38,1.38,1.36.7.97,1.4,2.55,1.5,4.38Z"/><path class="cls-113" d="m358.13,260.03c-.34,1.76-1.47,3.01-2.29,3.74-.85.74-1.48,1.08-1.53,1.02-.05-.06.31-.38,1.01-1.13.34-.38.77-.87,1.19-1.54.41-.66.84-1.52.95-2.57.1-1.01-.2-1.87-.56-2.47-.36-.61-.8-.98-1.16-1.17-.74-.39-1.11-.26-1.11-.36,0-.03.16-.11.46-.13.31-.02.78.05,1.3.37,1.02.59,2.1,2.29,1.73,4.24Z"/><path class="cls-113" d="m353.83,261.67c.31,1.56-.29,3.01-.95,3.78-.67.8-1.3,1.02-1.34.96-.06-.07.31-.29.83-1.02.25-.36.52-.86.69-1.52.16-.65.24-1.48-.01-2.36-.25-.85-.7-1.48-1.14-1.92-.44-.44-.88-.7-1.23-.87-.7-.33-1.05-.33-1.03-.41,0-.06.66-.21,1.64.2.95.38,2.21,1.47,2.55,3.15Z"/><path class="cls-113" d="m351.7,262.63c.52.81.63,1.87.35,2.68-.26.82-.75,1.39-1.16,1.81-.86.82-1.52,1.14-1.57,1.09-.05-.06.34-.38,1.04-1.18.33-.4.77-.94,1.02-1.7.26-.75.2-1.77-.49-2.62-.66-.82-1.49-1.22-2.21-1.43-.72-.21-1.35-.26-1.83-.29-.98-.06-1.45-.05-1.45-.12,0-.07.77-.28,2-.31.61,0,1.36.05,2.15.34.79.29,1.61.85,2.16,1.72Z"/><path class="cls-113" d="m343.95,265.62c1.11,2.77.76,5.39.6,5.37-.08,0-.1-.42-.24-1.33-.15-.9-.41-2.29-1.16-4.08-.74-1.73-1.5-2.82-2-3.51-.51-.68-.77-.97-.71-1.01.06-.05.63.33,1.35,1.11.72.77,1.58,1.98,2.15,3.46Z"/><path class="cls-113" d="m341.76,266.29c.4,1.01.65,2.03.8,2.99.12.96.13,1.85.03,2.59-.19,1.48-.64,2.32-.7,2.3-.1-.02.13-.63.23-1.97.08-1.33-.08-3.44-1.21-6.07-1.11-2.54-2.26-4.16-2.96-5.22-.72-1.05-1.06-1.53-1-1.57.07-.05.78.64,1.75,1.84.96,1.2,2.2,2.95,3.06,5.11Z"/><path class="cls-113" d="m339.28,275.94c.49,1.99.3,3.99-.2,5.3-.49,1.33-1.14,1.96-1.19,1.92-.08-.04.29-.53.66-1.73.35-1.18.63-3.18-.08-5.74-.73-2.48-1.73-4.05-2.3-5.09-.6-1.03-.88-1.5-.82-1.53.07-.04.7.64,1.53,1.82.82,1.18,1.88,2.9,2.4,5.05Z"/><path class="cls-113" d="m334.19,280.96c1.3,2.34,1.28,4.72,1.12,4.73-.07.02-.15-.36-.39-1.15-.24-.78-.65-1.98-1.51-3.49-.85-1.46-1.64-2.36-2.16-2.92-.52-.56-.78-.79-.73-.84.09-.13,2.3,1.14,3.67,3.67Z"/><path class="cls-113" d="m334.01,275.31c1.91,2.88,2.29,5.9,2.14,5.91-.07.02-.22-.46-.61-1.45-.4-.99-1.06-2.5-2.34-4.37-1.25-1.81-2.36-2.91-3.08-3.6-.73-.69-1.09-.96-1.04-1.02.08-.14,2.91,1.42,4.93,4.53Z"/><path class="cls-113" d="m287.85,285.84c-1.3,1.4-3.05,2.09-4.32,2.22-1.29.14-2.06-.16-2.05-.21,0-.03.14-.05.42-.06.28,0,.69-.03,1.25-.11,1.09-.21,2.86-.81,4.44-2.62.75-.88,1.22-1.77,1.47-2.54.27-.77.35-1.43.38-1.93,0-.25,0-.47,0-.66-.02-.18-.03-.33-.05-.45-.02-.24-.02-.35.02-.36.05-.02.46.71.45,2.04.01.67-.16,1.45-.46,2.28-.32.82-.85,1.66-1.55,2.4Z"/><path class="cls-113" d="m287.63,285.47c-1.44,2.75-3,5.16-4.25,6.88-.33.44-.71.83-1.14,1.04-.44.23-.88.23-1.2.15-.68-.19-.77-.65-.74-.64.04-.03.14.22.58.36.22.06.52.09.85-.02.33-.1.67-.37.97-.74,1.1-1.61,2.67-4.23,4.59-7.96,1.85-3.64,2.94-6.32,3.64-8.05.69-1.74.98-2.54,1.04-2.51.08.03-.24,1.41-.95,3.54-.72,2.13-1.86,5-3.4,7.94Z"/><path class="cls-113" d="m285.53,294.68c-1.62.52-3.3.25-4.32-.28-1.03-.53-1.44-1.15-1.4-1.19.02-.03.13.02.34.15.2.14.52.31.98.52.9.36,2.52.71,4.52,0,.95-.36,1.68-.85,2.19-1.35.52-.49.84-.97,1.04-1.35.09-.2.18-.37.25-.51.05-.15.09-.27.13-.37.07-.19.12-.28.15-.27.05,0,.15.74-.36,1.81-.49,1.06-1.75,2.33-3.5,2.86Z"/><path class="cls-113" d="m221.38,286.11c1.81,2.33,2.34,4.89,2.19,4.93-.07.03-.24-.37-.65-1.18-.42-.81-1.1-2.05-2.31-3.56-1.19-1.47-2.19-2.34-2.84-2.9-.66-.55-.97-.77-.93-.83.08-.14,2.62,1.01,4.55,3.54Z"/><path class="cls-113" d="m240.17,269.89c-.04,1.98-.7,3.75-1.37,4.89-.68,1.15-1.32,1.71-1.37,1.67-.07-.05.29-.5.82-1.58.5-1.08,1.2-2.86,1.19-5.42-.04-2.48-.72-4.14-1.19-5.13-.49-1-.82-1.38-.74-1.43.05-.04.72.54,1.4,1.76.69,1.2,1.31,3.11,1.25,5.23Z"/><path class="cls-113" d="m243.05,269.34c.15,1.42-.2,2.76-.63,3.62-.43.87-.89,1.29-.95,1.25-.07-.04.15-.38.44-1.19.27-.8.62-2.12.37-3.91-.26-1.74-.92-2.82-1.35-3.45-.45-.63-.72-.86-.65-.91.05-.05.62.24,1.28,1.01.65.76,1.33,2.05,1.48,3.58Z"/><path class="cls-113" d="m253.1,264.81c.23,1.41-.14,2.76-.62,3.59-.48.84-.98,1.2-1.03,1.16-.07-.05.19-.36.53-1.12.31-.76.69-2.07.35-3.81-.36-1.68-1.15-2.65-1.67-3.17-.53-.53-.84-.67-.78-.74.04-.05.65.08,1.41.73.76.63,1.59,1.85,1.81,3.37Z"/><path class="cls-113" d="m259.26,262.92c-.3,1.15-1,2.06-1.62,2.56-.62.51-1.12.65-1.16.59-.05-.07.23-.25.7-.76.45-.51,1.12-1.4,1.44-2.83.29-1.39.08-2.39-.09-2.97-.18-.59-.33-.83-.25-.86.07-.03.47.32.8,1.09.33.75.52,1.96.19,3.18Z"/><path class="cls-113" d="m260.52,255.51c.37,2.37.29,4.63.09,6.24-.21,1.62-.52,2.61-.59,2.6-.08-.01.03-.71.11-2.23.07-1.51.12-3.84-.41-7.01-.54-3.07-1.32-5.14-1.84-6.46-.53-1.31-.84-1.88-.77-1.92.07-.03.72.85,1.46,2.41.75,1.55,1.56,3.82,1.94,6.37Z"/><circle class="cls-117" cx="248.51" cy="284.13" r="1.5"/><circle class="cls-117" cx="361.51" cy="272.13" r="1.5"/><path class="cls-116" d="m211.01,698.63c8.32,1.32,16.55-14.81,20-13,1.3.68.09,2.93,2,6,2.35,3.78,5.89,3.15,8,6,3.08,4.15,1.24,13.14-3,15-5.32,2.33-11.01-8.05-18-6-5.79,1.7-5.33,9.84-11,11-4.53.93-9.93-3.23-12-8-3.12-7.17.99-16.4,5-17,3.32-.49,4.29,5.25,9,6Z"/><path class="cls-72" d="m290.74,743.22c8.85,6.73,21.43,3.17,21.44,3.36,0,.22-16.19,5.06-25.44-3.36-8.75-7.98-6.33-23.34-5.59-23.44.76-.11-.43,15.82,9.59,23.44Z"/><path class="cls-70" d="m215.89,627.04s45.53,10.9,62.05-3.07c0,0,3.01,43.94-8.29,68.38,0,0-30.86,20.64-50.27-8.34,0,0-9.51-3.95-3.49-56.97Z"/><circle class="cls-71" cx="232.01" cy="640.63" r="5"/><circle class="cls-113" cx="230.51" cy="639.13" r=".5"/><circle class="cls-113" cx="233.51" cy="639.13" r=".5"/><circle class="cls-113" cx="233.51" cy="642.13" r=".5"/><circle class="cls-113" cx="230.51" cy="642.13" r=".5"/><circle class="cls-73" cx="267.01" cy="643.63" r="5"/><circle class="cls-113" cx="265.51" cy="642.13" r=".5"/><circle class="cls-113" cx="268.51" cy="642.13" r=".5"/><circle class="cls-113" cx="268.51" cy="645.13" r=".5"/><circle class="cls-113" cx="265.51" cy="645.13" r=".5"/><circle class="cls-63" cx="262.01" cy="680.63" r="5"/><circle class="cls-113" cx="260.51" cy="679.13" r=".5"/><circle class="cls-113" cx="263.51" cy="679.13" r=".5"/><circle class="cls-113" cx="263.51" cy="682.13" r=".5"/><circle class="cls-113" cx="260.51" cy="682.13" r=".5"/><circle class="cls-62" cx="228.01" cy="678.63" r="5"/><circle class="cls-113" cx="226.51" cy="677.13" r=".5"/><circle class="cls-113" cx="229.51" cy="677.13" r=".5"/><circle class="cls-113" cx="229.51" cy="680.13" r=".5"/><circle class="cls-113" cx="226.51" cy="680.13" r=".5"/><path class="cls-113" d="m232.01,653.63c.36,3.23,3.31,3.39,4,7,.81,4.23-2.5,8-2.5,8,0,0,3.31-3.77,2.5-8-.69-3.61-3.64-3.77-4-7-.38-3.43,2.82-4.43,3-9,.14-3.39-1.5-6-1.5-6,0,0,1.64,2.61,1.5,6-.18,4.57-3.38,5.57-3,9Z"/><path class="cls-113" d="m230.01,649.69c.17,1.56,1.6,1.64,1.93,3.39.39,2.05-1.21,3.87-1.21,3.87,0,0,1.6-1.82,1.21-3.87-.33-1.74-1.76-1.82-1.93-3.39-.18-1.66,1.36-2.14,1.45-4.35.07-1.64-.73-2.9-.73-2.9,0,0,.79,1.26.73,2.9-.09,2.21-1.64,2.69-1.45,4.35Z"/><path class="cls-113" d="m261.92,694.63c.3,2.8,2.77,2.94,3.35,6.07.67,3.67-2.09,6.93-2.09,6.93,0,0,2.77-3.27,2.09-6.93-.57-3.13-3.05-3.27-3.35-6.07-.32-2.97,2.36-3.84,2.51-7.8.11-2.94-1.25-5.2-1.25-5.2,0,0,1.37,2.26,1.25,5.2-.15,3.96-2.83,4.83-2.51,7.8Z"/><path class="cls-113" d="m259.21,699.48c.41,3.69,3.79,3.88,4.57,8,.92,4.84-2.86,9.14-2.86,9.14,0,0,3.78-4.31,2.86-9.14-.78-4.12-4.16-4.31-4.57-8-.44-3.92,3.22-5.07,3.43-10.29.15-3.87-1.71-6.86-1.71-6.86,0,0,1.87,2.98,1.71,6.86-.21,5.22-3.86,6.37-3.43,10.29Z"/><path class="cls-116" d="m151.01,818.63c8.32,1.32,16.55-14.81,20-13,1.3.68.09,2.93,2,6,2.35,3.78,5.89,3.15,8,6,3.08,4.15,1.24,13.14-3,15-5.32,2.33-11.01-8.05-18-6-5.79,1.7-5.33,9.84-11,11-4.53.93-9.93-3.23-12-8-3.12-7.17.99-16.4,5-17,3.32-.49,4.29,5.25,9,6Z"/><path class="cls-116" d="m283.01,767.63c-.67,1.08-6.55-3.33-11-1-3.75,1.97-5.78,8.37-4,13,2.21,5.75,9.01,5.33,10,10,1.1,5.2-6.8,8.17-6,13,1.05,6.36,16.51,11.84,22,7,4.53-4-1.81-11.42,3-21,4.23-8.42,11.79-7.98,13-15,1.1-6.36-3.87-13.86-8-14-3.88-.13-5.3,6.3-9,6-3.88-.31-3.8-7.48-10-12-5.73-4.18-14.07-4.09-15-2-1.52,3.43,16.12,14.19,15,16Z"/><path class="cls-116" d="m174.01,888.63c.11,3.81-8.6,5.29-9,11-.16,2.24.97,5.05,3,6,4.34,2.03,9.7-5.93,14-4,2.84,1.28,1.56,5.23,5,8,3.68,2.96,10.87,3.02,13,0,3.55-5.03-9.51-14.86-6-25,2-5.76,7.93-7.57,7-10-.94-2.45-6.87-.25-16-3-7.51-2.27-8.29-5.2-13-5-6.71.29-13.73,6.63-13,11,.95,5.73,14.87,6.2,15,11Z"/><path class="cls-110" d="m329.01,515.63c.22,9.6-8.72,16.2-9,16-.26-.19,6.84-6.19,7-15,.16-9.21-7.37-15.73-7-16,.38-.27,8.79,5.84,9,15Z"/><path class="cls-61" d="m81.79,762.19c.07-.03.25.73.96,1.53.65.73,1.28.98,1.25,1.04-.04.07-.95-.15-1.58-.88-.63-.73-.71-1.66-.63-1.69Z"/><path class="cls-60" d="m80.85,763.35c.07-.04.34.69,1.15,1.39.74.64,1.4.81,1.37.87-.03.07-.97-.03-1.68-.67-.71-.64-.92-1.56-.84-1.6Z"/><path class="cls-59" d="m79.67,764.53c.07-.04.34.69,1.15,1.39.74.64,1.4.81,1.37.87-.03.07-.97-.03-1.68-.67-.71-.64-.92-1.56-.84-1.6Z"/><path class="cls-82" d="m88.26,772.9c.09-.13,1.21.93,3.28,1.42,1.88.45,3.2.11,3.21.26.01.17-1.74.89-3.57.42-1.84-.47-3.01-1.96-2.92-2.1Z"/><path class="cls-83" d="m87.84,775.56c.09-.13,1.21.93,3.28,1.42,1.88.45,3.2.11,3.21.26.01.17-1.74.89-3.57.42-1.84-.47-3.01-1.96-2.92-2.1Z"/><path class="cls-76" d="m86.8,778.86c.09-.13,1.21.93,3.28,1.42,1.88.45,3.2.11,3.21.26.01.17-1.74.89-3.57.42-1.84-.47-3.01-1.96-2.92-2.1Z"/><path class="cls-77" d="m105.13,773.81c.05-.12,1.2.51,3.02.52,1.66,0,2.7-.5,2.74-.39.04.13-1.28,1.03-2.91,1-1.63-.04-2.91-1-2.86-1.13Z"/><path class="cls-74" d="m105.3,776c.05-.12,1.2.51,3.02.52,1.66,0,2.7-.5,2.74-.39.04.13-1.28,1.03-2.91,1-1.63-.04-2.91-1-2.86-1.13Z"/><path class="cls-75" d="m105.09,778.82c.05-.12,1.2.51,3.02.52,1.66,0,2.7-.5,2.74-.39.04.13-1.28,1.03-2.91,1-1.63-.04-2.91-1-2.86-1.13Z"/><path class="cls-80" d="m119.39,769.84c0-.1,1.01.02,2.32-.51,1.19-.48,1.79-1.16,1.85-1.09.07.08-.62,1.12-1.79,1.57-1.18.45-2.38.14-2.38.03Z"/><path class="cls-81" d="m120.16,771.36c0-.1,1.01.02,2.32-.51,1.19-.48,1.79-1.16,1.85-1.09.07.08-.62,1.12-1.79,1.57-1.18.45-2.38.14-2.38.03Z"/><path class="cls-79" d="m120.83,773.45c0-.1,1.01.02,2.32-.51,1.19-.48,1.79-1.16,1.85-1.09.07.08-.62,1.12-1.79,1.57-1.18.45-2.38.14-2.38.03Z"/><path class="cls-78" d="m123.2,747.43c-.02-.09.91-.18,1.98-.89.98-.65,1.39-1.37,1.45-1.32.08.06-.34,1.11-1.31,1.74-.97.63-2.1.57-2.13.47Z"/><path class="cls-88" d="m124.17,748.65c-.02-.09.91-.18,1.98-.89.98-.65,1.39-1.37,1.45-1.32.08.06-.34,1.11-1.31,1.74-.97.63-2.1.57-2.13.47Z"/><path class="cls-85" d="m125.16,750.39c-.02-.09.91-.18,1.98-.89.98-.65,1.39-1.37,1.45-1.32.08.06-.34,1.11-1.31,1.74-.97.63-2.1.57-2.13.47Z"/><ellipse class="cls-2" cx="196.81" cy="426.13" rx="67.8" ry="88.5"/><path class="cls-86" d="m75.51,442.87s16-20.74,0-30.74c0,0-18,20.49,0,30.74Z"/><path class="cls-87" d="m382.26,638.11c1.53,2.22,2.51,4.73,5.65,6.02,6.05,2.48,10.82-3.39,14.74-.85,5.04,3.27,1.89,16.1,1.68,16.09-.2,0,2.44-11.95-2.43-14.88-3.87-2.33-8.37,3.48-14.13,1.23-3.52-1.38-3.99-4.38-6.25-6.88-4.74,4.42-9.75,8.1-14.34,11.05h0s16.48,26.85,44.65,17.97c23.29-7.34,60.79-5.2,73.11-4.23.5-1.2,1.25-2.32,2.46-3.26,4.01-3.09,7.7,0,12.66-3.29,5.08-3.37,5.88-9.72,6.26-9.58.38.15.06,6.68-4.35,10.19-4.57,3.63-8.84.3-13.29,3.61-.97.72-1.67,1.55-2.2,2.44,1.62.14,2.52.23,2.52.23,16.97,8.71,23.1,9.88,25,12,.21.24,3.62,1.84,6,3,.54.27,7.09,3,8,2,1.29-1.41-7.67-6.27-13-11-3.05-2.71-7.99-5.99-8-6h0c8.23.92,14.63,2.6,19,4,7.82,2.5,15.21,6,19,3,.69-.54.81-.94.84-1.13.57-2.83-7.88-6.76-16.84-10.87-6.42-2.94-13.98-5.99-14-6,0,0,31-1,41-6s-48-5-48-5c0,0,26-9,34-15s-41.41,7.91-41.41,7.91c0,0,6.41-2.91,5.41-10.91-.75-6.01-13.49,2.88-19.79,7.67,3.59,2.04,3.45,6.23,8.42,8.48,5.56,2.52,11.36-.17,11.44.23.08.4-5.63,3.6-10.95,1.71-5.5-1.95-4.94-7.34-10.11-9.36-.05-.02-.09-.03-.14-.05-1.32,1.03-2.13,1.7-2.13,1.7,0,0-61.75,9.6-68.75,7.6s-15-4-23-13.71l-.04.03c-2.65,3.59-5.61,6.86-8.7,9.82Zm81.8-.14c6,.11,10.12,12.67,9.93,12.77-.18.1-4.24-11.43-9.93-11.35-4.52.07-5.26,7.38-11.35,8.51-4.97.93-6.85-3.51-12.77-2.84-6.06.69-9.66,5.98-9.93,5.68-.27-.3,2.99-5.98,8.51-7.09,5.72-1.15,8.01,3.76,13.48,2.84,6.45-1.09,7.39-8.6,12.06-8.51Z"/><path class="cls-91" d="m452,646.49c-5.47.92-7.76-3.99-13.48-2.84-5.53,1.11-8.78,6.79-8.51,7.09.27.3,3.87-4.99,9.93-5.68,5.92-.67,7.8,3.77,12.77,2.84,6.09-1.14,6.83-8.45,11.35-8.51,5.69-.08,9.75,11.45,9.93,11.35.18-.1-3.93-12.66-9.93-12.77-4.67-.09-5.61,7.43-12.06,8.51Z"/><path class="cls-96" d="m452,646.49c-5.47.92-7.76-3.99-13.48-2.84-5.53,1.11-8.78,6.79-8.51,7.09.27.3,3.87-4.99,9.93-5.68,5.92-.67,7.8,3.77,12.77,2.84,6.09-1.14,6.83-8.45,11.35-8.51,5.69-.08,9.75,11.45,9.93,11.35.18-.1-3.93-12.66-9.93-12.77-4.67-.09-5.61,7.43-12.06,8.51Z"/><path class="cls-89" d="m382.26,638.11c3.09-2.95,6.05-6.23,8.7-9.82l-9.57,8.69c.32.36.6.74.87,1.13Z"/><path class="cls-90" d="m382.26,638.11c3.09-2.95,6.05-6.23,8.7-9.82l-9.57,8.69c.32.36.6.74.87,1.13Z"/><path class="cls-84" d="m380.45,637.84l-13.28,12.05c4.59-2.95,9.6-6.63,14.34-11.05-.31-.35-.67-.68-1.06-1Z"/><path class="cls-92" d="m380.45,637.84l-13.28,12.05c4.59-2.95,9.6-6.63,14.34-11.05-.31-.35-.67-.68-1.06-1Z"/><path class="cls-4" d="m387.76,645.72c5.77,2.25,10.27-3.56,14.13-1.23,4.87,2.94,2.23,14.87,2.43,14.88.21.01,3.35-12.82-1.68-16.09-3.91-2.54-8.69,3.34-14.74.85-3.14-1.29-4.12-3.8-5.65-6.02-.25.24-.5.49-.75.72,2.26,2.5,2.73,5.5,6.25,6.88Z"/><path class="cls-97" d="m387.76,645.72c5.77,2.25,10.27-3.56,14.13-1.23,4.87,2.94,2.23,14.87,2.43,14.88.21.01,3.35-12.82-1.68-16.09-3.91-2.54-8.69,3.34-14.74.85-3.14-1.29-4.12-3.8-5.65-6.02-.25.24-.5.49-.75.72,2.26,2.5,2.73,5.5,6.25,6.88Z"/><path class="cls-7" d="m377.97,634.61c-5.28-1.97-11.05,1.12-10.98,1.52.07.4,5.92-2.19,11.43.43.8.38,1.46.82,2.03,1.28l.94-.86c-.83-.96-1.88-1.8-3.42-2.38Z"/><path class="cls-9" d="m381.51,638.84c.25-.24.5-.48.75-.72-.27-.39-.56-.77-.87-1.13l-.94.86c.39.32.75.65,1.06,1Z"/><path class="cls-8" d="m381.51,638.84c.25-.24.5-.48.75-.72-.27-.39-.56-.77-.87-1.13l-.94.86c.39.32.75.65,1.06,1Z"/><path class="cls-10" d="m488.68,661.31c4.45-3.31,8.73.02,13.29-3.61,4.41-3.51,4.73-10.04,4.35-10.19-.38-.15-1.17,6.2-6.26,9.58-4.96,3.29-8.66.2-12.66,3.29-1.21.94-1.96,2.06-2.46,3.26.57.04,1.09.09,1.55.13.53-.89,1.23-1.72,2.2-2.44Z"/><path class="cls-99" d="m493.68,664.31c4.45-3.31,8.73.02,13.29-3.61,4.41-3.51,4.73-10.04,4.35-10.19-.38-.15-1.17,6.2-6.26,9.58-4.96,3.29-8.66.2-12.66,3.29-1.21.94-1.96,2.06-2.46,3.26.57.04,1.09.09,1.55.13.53-.89,1.23-1.72,2.2-2.44Z"/><path class="cls-6" d="m495.12,642.08c5.31,1.88,11.02-1.31,10.95-1.71-.08-.4-5.88,2.29-11.44-.23-4.97-2.26-4.84-6.44-8.42-8.48-.49.37-.93.71-1.33,1.03.05.02.09.03.14.05,5.17,2.02,4.61,7.41,10.11,9.36Z"/><path class="cls-98" d="m495.12,642.08c5.31,1.88,11.02-1.31,10.95-1.71-.08-.4-5.88,2.29-11.44-.23-4.97-2.26-4.84-6.44-8.42-8.48-.49.37-.93.71-1.33,1.03.05.02.09.03.14.05,5.17,2.02,4.61,7.41,10.11,9.36Z"/><path class="cls-5" d="m224,8C100.29,8,0,22.77,0,41s100.29,33,224,33,224-14.77,224-33S347.71,8,224,8Zm1.01,54c-78.73,0-142.55-9.4-142.55-21s63.82-21,142.55-21,142.55,9.4,142.55,21-63.82,21-142.55,21Z"/><path class="cls-12" d="m222.12-.42C98.41-.42,0,22.77,0,41s98.41,24.58,222.12,24.58,225.88-6.36,225.88-24.58S345.84-.42,222.12-.42Zm1.01,54c-78.73,0-142.55-9.4-142.55-21s63.82-21,142.55-21,142.55,9.4,142.55,21-63.82,21-142.55,21Z"/><path class="cls-11" d="m185.14,741.12c-8.85,6.73-21.43,3.17-21.44,3.36,0,.22,16.19,5.06,25.44-3.36,8.75-7.98,6.33-23.34,5.59-23.44-.76-.11.43,15.82-9.59,23.44Z"/></svg>