<?xml version="1.0" encoding="UTF-8"?><svg id="Layer_2" xmlns="http://www.w3.org/2000/svg" xmlns:xlink="http://www.w3.org/1999/xlink" viewBox="0 0 456 1011"><defs><style>.cls-1{fill:url(#linear-gradient);}.cls-1,.cls-2,.cls-3,.cls-4,.cls-5,.cls-6,.cls-7,.cls-8,.cls-9,.cls-10,.cls-11,.cls-12,.cls-13,.cls-14,.cls-15,.cls-16,.cls-17,.cls-18,.cls-19,.cls-20{stroke-width:0px;}.cls-2{fill:url(#linear-gradient-11);}.cls-3{fill:url(#linear-gradient-12);}.cls-4{fill:url(#linear-gradient-13);}.cls-5{fill:url(#linear-gradient-10);}.cls-6{fill:url(#linear-gradient-16);}.cls-7{fill:url(#linear-gradient-15);}.cls-8{fill:url(#linear-gradient-14);}.cls-9{fill:url(#linear-gradient-4);}.cls-10{fill:url(#linear-gradient-2);}.cls-11{fill:url(#linear-gradient-3);}.cls-12{fill:url(#linear-gradient-8);}.cls-13{fill:url(#linear-gradient-9);}.cls-14{fill:url(#linear-gradient-7);}.cls-15{fill:url(#linear-gradient-5);}.cls-16{fill:url(#linear-gradient-6);}.cls-18{fill:#d2abac;}.cls-19{fill:#ccc;}.cls-20{fill:#fff;}</style><linearGradient id="linear-gradient" x1="789.78" y1="415" x2="789.78" y2="795" gradientTransform="translate(854) rotate(-180) scale(1 -1)" gradientUnits="userSpaceOnUse"><stop offset=".01" stop-color="#d7d7d7"/><stop offset=".33" stop-color="#d5d5d4"/><stop offset=".47" stop-color="#d1cfcd"/><stop offset=".58" stop-color="#c9c5c1"/><stop offset=".67" stop-color="#beb7af"/><stop offset=".75" stop-color="#b0a597"/><stop offset=".82" stop-color="#9f8f7b"/><stop offset=".88" stop-color="#8a7458"/><stop offset=".94" stop-color="#725531"/><stop offset=".99" stop-color="#583305"/><stop offset="1" stop-color="#552f00"/><stop offset="1" stop-color="#000"/></linearGradient><linearGradient id="linear-gradient-2" x1="792.25" y1="415.05" x2="792.25" y2="771.94" gradientTransform="translate(854) rotate(-180) scale(1 -1)" gradientUnits="userSpaceOnUse"><stop offset=".01" stop-color="#d7d7d7"/><stop offset=".69" stop-color="#552f00"/><stop offset="1" stop-color="#000"/></linearGradient><linearGradient id="linear-gradient-3" x1="222.7" y1="954" x2="222.7" y2="197.58" gradientUnits="userSpaceOnUse"><stop offset=".01" stop-color="#d7d7d7"/><stop offset=".69" stop-color="#c7c6c4"/><stop offset="1" stop-color="#552f00"/></linearGradient><linearGradient id="linear-gradient-4" x1="265.42" y1="246.06" x2="265.42" y2=".28" xlink:href="#linear-gradient-3"/><linearGradient id="linear-gradient-5" x1="-923.53" y1="1047.17" x2="-923.53" y2="1179.46" gradientTransform="translate(-893.09 176.09) rotate(161.7) scale(1 -1)" xlink:href="#linear-gradient-2"/><linearGradient id="linear-gradient-6" x1="142.64" y1="878.71" x2="142.64" y2="1011" gradientTransform="matrix(1,0,0,1,0,0)" xlink:href="#linear-gradient-2"/><linearGradient id="linear-gradient-7" x1="227.74" y1="200.23" x2="227.74" y2="953.39" xlink:href="#linear-gradient-3"/><linearGradient id="linear-gradient-8" x1="-782.58" y1="199.72" x2="-782.58" y2="333.47" gradientTransform="translate(-461.44) rotate(-180) scale(1 -1)" gradientUnits="userSpaceOnUse"><stop offset=".7" stop-color="#e90006"/><stop offset="1" stop-color="#bf0010"/></linearGradient><linearGradient id="linear-gradient-9" x1="248.3" y1="237.05" x2="248.3" y2="370.8" gradientTransform="matrix(1,0,0,1,0,0)" xlink:href="#linear-gradient-8"/><linearGradient id="linear-gradient-10" x1="253.65" y1="234" x2="253.65" y2="271.19" gradientUnits="userSpaceOnUse"><stop offset=".58" stop-color="#fff"/><stop offset=".58" stop-color="#fcf5f6"/><stop offset=".6" stop-color="#f1c7cb"/><stop offset=".62" stop-color="#e69ca2"/><stop offset=".64" stop-color="#dc777f"/><stop offset=".66" stop-color="#d45661"/><stop offset=".68" stop-color="#cd3b47"/><stop offset=".71" stop-color="#c82533"/><stop offset=".74" stop-color="#c41423"/><stop offset=".78" stop-color="#c10818"/><stop offset=".84" stop-color="#bf0111"/><stop offset="1" stop-color="#bf0010"/></linearGradient><linearGradient id="linear-gradient-11" x1="319.83" y1="229.15" x2="319.83" y2="266.79" xlink:href="#linear-gradient-10"/><linearGradient id="linear-gradient-12" x1="228.53" y1="88.97" x2="228.53" y2="192.67" gradientUnits="userSpaceOnUse"><stop offset="0" stop-color="#fff"/><stop offset="1" stop-color="#ffef3f"/></linearGradient><linearGradient id="linear-gradient-13" x1="292.08" y1="168.67" x2="292.08" y2="201.73" gradientUnits="userSpaceOnUse"><stop offset="0" stop-color="#fff"/><stop offset=".48" stop-color="#e90027"/></linearGradient><linearGradient id="linear-gradient-14" x1="343.78" y1="85.51" x2="343.78" y2="189.21" xlink:href="#linear-gradient-12"/><linearGradient id="linear-gradient-15" x1="195.68" y1="372.1" x2="195.68" y2="650.32" gradientUnits="userSpaceOnUse"><stop offset="0" stop-color="#ccc"/><stop offset=".61" stop-color="#c7c5c2"/><stop offset=".7" stop-color="#6a3200"/><stop offset="1" stop-color="#bf0010"/></linearGradient><linearGradient id="linear-gradient-16" x1="336.84" y1="371.01" x2="336.84" y2="649.23" gradientUnits="userSpaceOnUse"><stop offset=".61" stop-color="#ccc"/><stop offset=".7" stop-color="#552d00"/><stop offset="1" stop-color="#e90013"/></linearGradient></defs><path class="cls-1" d="m109.46,749.24S7.09,712.87,28,415c0,0-102.25,236.52,86,380,0,0,34.68-1.08-4.54-45.76Z"/><path class="cls-10" d="m104.9,705.85s-95.43-5.26-77.4-290.8c0,0-87.18,219.35,75.13,356.89,0,0,36.08-23.26,2.26-66.09Z"/><path class="cls-11" d="m282.98,199.08s-69.13,106.7-126.24-1.5c0,0,9.02,106.7,18.03,105.2,0,0-13.53,103.69-21.04,108.2,0,0-37.57,72.14-25.55,127.74,0,0,3.01,54.1-6.01,117.22,0,0-15.03,9.02-15.03,45.08,0,0-3.01,31.56-30.06,82.65,0,0-23.63,47.66-4.1,133.32,0,0-3.42-40.15,19.13-58.18,0,0-17.74,54.13,43.87,78.18,0,0-22.83-37.6-7.81-45.12,0,0,36.07,58.61,103.69-1.5,0,0,3.01,39.07,46.59,28.55,0,0,5.3,20.29-10.47,35.07,0,0,27.01-12.52,43.54-50.09,0,0,12.48,17.56,3.46,34.09,0,0,31.1-37.1,31.1-53.63,0,0,18.42,23.94,7.9,43.63,0,0,35.68-27.1,23.66-133.8,0,0,3.01-90.17-15.03-225.42,0,0-4.82-96.14,17.13-229.16,0,0,2.41-53.37-11.11-108.98-52.6,37.57-85.66-31.56-85.66-31.56Z"/><path class="cls-9" d="m416.73,138.97s-12.02,18.03-27.05,19.54c0,0,22.54-10.52,24.05-57.11,0,0-9.02,21.04-21.04,22.54,0,0,33.06-64.88,24.05-107.58,0,0-1.5-11.14-31.56-8.13,0,0-39.07,1.5-55.6,45.08,0,0,11.39-25.79,32.43-36.31,0,0-30.93-10.28-68.5,4.75,0,0,21.94-13.24,53.5-20.75,0,0-128.64-9.3-131.64,38.79,0,0-72.85-43.81-74.36-28.79,0,0-17.32,97.92,8.23,102.42,0,0-31-3.72-36.68-11.16,3.22,8.37,14.6,36.64,24.56,45.19,4.87.1,9.12.53,9.12.53-2.65,2.98-5.8,2.31-9.12-.53-5.91-.12-12.75.24-14.06,2.48,0,0,8.63,15.07,13.33,17.78,1.43-.12,2.33-.18,2.33-.18-.52.78-1.34.75-2.33.18-5.76.48-20.21,1.92-20.21,4.33,0,0,36.07,31.56,40.58,25.55,57.11,108.2,126.24,1.5,126.24,1.5-16.53-28.55,0-33.06,0-33.06,0,0,19.54,3.01,0,33.06,0,0,33.06,69.13,85.66,31.56,0,0,31.56-13.53,48.09-91.67Zm-161.29-16.23c-21.86-5.62-44.79-5.62-66.64,0l-19.28,4.96c0-25.14,27.45-43.58,52.6-43.58s52.6,18.44,52.6,43.58l-19.28-4.96Z"/><path class="cls-15" d="m287.3,932.24s15.79,46.17-6.1,61.32c0,0,29.5-16.09,27.61-21.8s3.27,24.24,17.98,35.21c0,0,8.1-9.01,3.39-28.03,0,0,12.29,27.59,47.48,19.12,0,0-30.27-14.47-25.04-39.57,0,0,21.75,24.83,53.65-3.13,0,0-49.32-4.16-49.51-46.1-.19-41.94-60.58-23.54-60.58-23.54,0,0-30.39,6.99-8.88,46.52Z"/><path class="cls-16" d="m182.96,920.13s-.5,48.79,25.05,56.31c0,0-33.06-6.01-33.06-12.02,0-6.01,4.51,24.05-6.01,39.07,0,0-10.52-6.01-12.02-25.55,0,0-3.01,30.06-39.07,33.06,0,0,24.19-23.24,11.34-45.44,0,0-12.85,30.41-51.92,13.88,0,0,45.52-19.44,32.53-59.31-12.99-39.87,50.13-41.38,50.13-41.38,0,0,31.05-2.91,23.04,41.38Z"/><path class="cls-14" d="m291.42,201.73s-69.13,106.7-126.24-1.5c0,0,9.02,106.7,18.03,105.2,0,0-13.53,103.69-21.04,108.2,0,0-37.57,72.14-25.55,127.74,0,0,3.01,54.1-6.01,117.22,0,0-15.03,9.02-15.03,45.08,0,0-3.01,31.56-30.06,82.65,0,0-31.56,45.08-12.02,130.75,0,0,4.51-37.57,27.05-55.6,0,0-25.55,51.1,36.07,75.14,0,0-15.03-34.56,0-42.08,0,0,36.07,58.61,103.69-1.5,0,0,3.01,39.07,46.59,28.55,0,0-3.01,17.03-18.79,31.81,0,0,35.32-9.27,51.85-46.84,0,0,4.51,15.03-4.51,31.56,0,0,39.07-34.56,39.07-51.1,0,0,10.52,20.73,0,40.42,0,0,43.58-23.89,31.56-130.59,0,0,3.01-90.17-15.03-225.42,0,0-4.82-96.14,17.13-229.16,0,0,2.41-53.37-11.11-108.98-52.6,37.57-85.66-31.56-85.66-31.56Z"/><path class="cls-12" d="m293.81,264.34c1.03,5.54,34.98-3.94,46.59,10.52,13.9,17.32-12.86,58.24-12.02,58.61.86.38,30.12-42.47,16.53-60.11-11.11-14.42-45.76-5.4-46.59-10.52-.68-4.2,23.36-5.66,32.83-22.14,9.91-17.24-1.77-41.16-2.77-40.98-.97.17,9.06,22.77-1.5,40.58-10.31,17.39-33.91,19.51-33.06,24.05Z"/><path class="cls-13" d="m275.64,301.67c-1.03,5.54-34.98-3.94-46.59,10.52-13.9,17.32,12.86,58.24,12.02,58.61-.86.38-30.12-42.47-16.53-60.11,11.11-14.42,45.76-5.4,46.59-10.52.68-4.2-23.36-5.66-32.83-22.14-9.91-17.24,1.77-41.16,2.77-40.98.97.17-9.06,22.77,1.5,40.58,10.31,17.39,33.91,19.51,33.06,24.05Z"/><path class="cls-19" d="m425.17,141.62s-12.02,18.03-27.05,19.54c0,0,22.54-10.52,24.05-57.11,0,0-9.02,21.04-21.04,22.54,0,0,33.06-64.88,24.05-107.58,0,0-1.5-11.14-31.56-8.13,0,0-39.07,1.5-55.6,45.08,0,0,3.01-28.55,24.05-39.07,0,0-22.54-7.51-60.11,7.51,0,0,13.53-16.53,45.08-24.05,0,0-120.23-6.01-123.23,42.08,0,0-81.15-46.59-82.65-31.56,0,0-9.02,100.69,16.53,105.2,0,0-31-3.72-36.68-11.16,3.22,8.37,14.6,36.64,24.56,45.19,4.87.1,9.12.53,9.12.53-2.65,2.98-5.8,2.31-9.12-.53-5.91-.12-12.75.24-14.06,2.48,0,0,8.63,15.07,13.33,17.78,1.43-.12,2.33-.18,2.33-.18-.52.78-1.34.75-2.33.18-5.76.48-20.21,1.92-20.21,4.33,0,0,36.07,31.56,40.58,25.55,57.11,108.2,126.24,1.5,126.24,1.5-16.53-28.55,0-33.06,0-33.06,0,0,19.54,3.01,0,33.06,0,0,33.06,69.13,85.66,31.56,0,0,31.56-13.53,48.09-91.67Zm-161.29-16.23c-21.86-5.62-44.79-5.62-66.64,0l-19.28,4.96c0-25.14,27.45-43.58,52.6-43.58s52.6,18.44,52.6,43.58l-19.28-4.96Z"/><path class="cls-18" d="m402.1,102.95s32.79-55.75,8.42-77.74c0,0-66.98,17.28-55.26,23.66,0,0-23.66,25.12-9.48,21.35,0,0,15.55-13.23,30.32-5.41,14.77,7.82-14.33,13.81-14.33,13.81,0,0,35.23,8.53,32.62.06-2.61-8.47,3.81,25.18-6.71,16.67l14.41,7.6Z"/><path class="cls-5" d="m249.31,242.32s-12.63,17.59,5.44,28.87c0,0-16.64-14.76,7.53-37.19l-12.97,8.32Z"/><path class="cls-2" d="m324.31,238.38s11.34,18.45-7.49,28.4c0,0,17.66-13.53-4.84-37.63l12.33,9.23Z"/><circle class="cls-17" cx="230.55" cy="139.37" r="52.6"/><ellipse class="cls-3" cx="228.53" cy="140.82" rx="9.77" ry="51.85"/><path class="cls-18" d="m163.82,106.8s-32.79-55.75-8.42-77.74c0,0,66.98,17.28,55.26,23.66,0,0,23.66,25.12,9.48,21.35,0,0-15.55-13.23-30.32-5.41-14.77,7.82,14.33,13.81,14.33,13.81,0,0-35.23,8.53-32.62.06,2.61-8.47-3.81,25.18,6.71,16.67l-14.41,7.6Z"/><circle class="cls-17" cx="229.05" cy="151.39" r="8.27"/><circle class="cls-20" cx="232.81" cy="146.13" r="1.5"/><path class="cls-19" d="m120.99,104.91c-.57-1.49-.89-2.36-.89-2.36,0,.82.32,1.61.89,2.36Z"/><path class="cls-19" d="m147.15,170.17s-.9.06-2.33.18c.99.57,1.81.6,2.33-.18Z"/><path class="cls-19" d="m154.66,150.64s-4.24-.43-9.12-.53c3.31,2.85,6.47,3.51,9.12.53Z"/><path class="cls-4" d="m291.42,168.67s-16.53,4.51,0,33.06c19.54-30.06,0-33.06,0-33.06Z"/><path class="cls-20" d="m230.55,86.77c-25.14,0-52.6,18.44-52.6,43.58l19.28-4.96c21.86-5.62,44.79-5.62,66.64,0l19.28,4.96c0-25.14-27.46-43.58-52.6-43.58Z"/><circle class="cls-17" cx="345.28" cy="137.36" r="52.6"/><ellipse class="cls-8" cx="343.78" cy="137.36" rx="9.77" ry="51.85"/><circle class="cls-17" cx="343.78" cy="149.38" r="8.27"/><circle class="cls-20" cx="349.04" cy="144.12" r="1.5"/><path class="cls-20" d="m311.96,123.39l-19.28,4.96c0-25.14,27.45-43.58,52.6-43.58s52.6,18.44,52.6,43.58l-19.28-4.96c-21.86-5.62-44.79-5.62-66.64,0Z"/><path class="cls-7" d="m208.01,381.32l-34.92-9.22s-65.77,195.3-7.91,251.04c0,0-5.78-28.88,9.51-29.4,0,0-7.25,35.55,18.29,56.59,0,0-13.53-28.55,3.01-40.58,0,0,12.02,33.06,23.29,40.58,0,0,3.76-6.73,0-28.91,0,0,3.76,16.89,19.54,28.91,0,0,2.25-16.66-4.51-32.37,0,0,7.95-4.56,12.62,8.65,0,0,8.05-18.96-1.91-27.67,0,0,3.57-14.19-10.71-41.51-14.28-27.32-36.82-54.37-23.29-131.02,13.53-76.64-3.01-45.08-3.01-45.08Z"/><path class="cls-6" d="m324.51,380.22l34.92-9.22s65.77,195.3,7.91,251.04c0,0,5.78-28.88-9.51-29.4,0,0,7.25,35.55-18.29,56.59,0,0,13.53-28.55-3.01-40.58,0,0-12.02,33.06-23.29,40.58,0,0-3.76-6.73,0-28.91,0,0-3.76,16.89-19.54,28.91,0,0-2.25-16.66,4.51-32.37,0,0-7.95-4.56-12.62,8.65,0,0-8.05-18.96,1.91-27.67,0,0-3.57-14.19,10.71-41.51,14.28-27.32,36.82-54.37,23.29-131.02-13.53-76.64,3.01-45.08,3.01-45.08Z"/><path class="cls-17" d="m441.21,248.49c-.61.54-11.61-19.06-35.25-29.8-23.64-10.74-45.64-6.12-45.64-6.94,0-.85,23.9-7.17,47.24,3.42s34.3,32.76,33.66,33.32Z"/><path class="cls-17" d="m455.97,208.26c-.36.79-19.65-13.37-47.3-13.37s-46.94,14.16-47.3,13.37c-.37-.82,20.02-17.48,47.3-17.48s47.68,16.66,47.3,17.48Z"/><path class="cls-17" d="m447.4,189.52c-.25.69-17.51-10.04-40.92-8.24-23.41,1.8-38.82,15.04-39.18,14.4-.37-.67,15.81-16.1,38.91-17.88,23.1-1.78,41.45,11,41.19,11.72Z"/><path class="cls-17" d="m135,252.55c.61.54,11.61-19.06,35.25-29.8,23.64-10.74,45.64-6.12,45.64-6.94,0-.85-23.9-7.17-47.24,3.42-23.33,10.6-34.3,32.76-33.66,33.32Z"/><path class="cls-17" d="m120.24,212.32c.36.79,19.65-13.37,47.3-13.37,27.65,0,46.94,14.16,47.3,13.37.37-.82-20.02-17.48-47.3-17.48-27.29,0-47.68,16.66-47.3,17.48Z"/><path class="cls-17" d="m128.8,193.59c.25.69,17.51-10.04,40.92-8.24,23.41,1.8,38.82,15.04,39.18,14.4.37-.67-15.81-16.1-38.91-17.88-23.1-1.78-41.45,11-41.19,11.72Z"/></svg>