<?xml version="1.0" encoding="UTF-8"?><svg id="Mette_s_Mink" xmlns="http://www.w3.org/2000/svg" xmlns:xlink="http://www.w3.org/1999/xlink" viewBox="0 0 1451 377"><defs><style>.cls-1,.cls-2,.cls-3,.cls-4{stroke:#000;stroke-miterlimit:10;}.cls-5{fill:url(#radial-gradient-14);}.cls-5,.cls-6,.cls-7,.cls-8,.cls-9,.cls-10,.cls-11,.cls-12,.cls-13,.cls-14,.cls-15,.cls-16,.cls-17,.cls-18,.cls-19,.cls-20,.cls-21,.cls-22{stroke-width:0px;}.cls-6{fill:url(#radial-gradient-13);}.cls-7{fill:url(#radial-gradient-12);}.cls-8{fill:url(#radial-gradient-15);}.cls-9{fill:url(#radial-gradient-16);}.cls-10{fill:url(#radial-gradient-11);}.cls-11{fill:url(#radial-gradient-19);}.cls-12{fill:url(#radial-gradient-18);}.cls-13{fill:url(#radial-gradient-17);}.cls-14{fill:url(#radial-gradient-10);}.cls-2{fill:url(#radial-gradient);}.cls-15{fill:url(#radial-gradient-3);}.cls-16{fill:url(#radial-gradient-4);}.cls-17{fill:url(#radial-gradient-6);}.cls-18{fill:url(#radial-gradient-9);}.cls-19{fill:url(#radial-gradient-8);}.cls-20{fill:url(#radial-gradient-5);}.cls-21{fill:url(#radial-gradient-7);}.cls-3{fill:url(#radial-gradient-2);}.cls-22{fill:#ccc;}.cls-4{fill:url(#linear-gradient);}</style><radialGradient id="radial-gradient" cx="727.94" cy="195.4" fx="727.94" fy="195.4" r="526.61" gradientUnits="userSpaceOnUse"><stop offset="0" stop-color="#ce9f6f"/><stop offset=".05" stop-color="#ac835a"/><stop offset=".11" stop-color="#8c6a46"/><stop offset=".17" stop-color="#715436"/><stop offset=".25" stop-color="#5b4228"/><stop offset=".33" stop-color="#4a341e"/><stop offset=".44" stop-color="#3e2b17"/><stop offset=".59" stop-color="#372513"/><stop offset="1" stop-color="#362412"/></radialGradient><radialGradient id="radial-gradient-2" cx="723" cy="182.51" fx="723" fy="182.51" r="526.61" gradientUnits="userSpaceOnUse"><stop offset="0" stop-color="#ce9f6f"/><stop offset=".15" stop-color="#c99968"/><stop offset=".38" stop-color="#bb8b54"/><stop offset=".64" stop-color="#a47435"/><stop offset=".94" stop-color="#855509"/><stop offset="1" stop-color="#7f4e00"/></radialGradient><radialGradient id="radial-gradient-3" cx="500.19" cy="336.16" fx="500.19" fy="336.16" r="3.51" gradientUnits="userSpaceOnUse"><stop offset="0" stop-color="#fff"/><stop offset=".16" stop-color="#f7f7f7"/><stop offset=".4" stop-color="#e2e2e2"/><stop offset=".7" stop-color="silver"/><stop offset="1" stop-color="#969696"/><stop offset="1" stop-color="#797979"/><stop offset="1" stop-color="#313131"/><stop offset="1" stop-color="#000"/></radialGradient><radialGradient id="radial-gradient-4" cx="489.14" cy="570.9" fx="489.14" fy="570.9" r="2.75" gradientTransform="translate(310.36 -530.27) rotate(30.4)" gradientUnits="userSpaceOnUse"><stop offset="0" stop-color="#fff"/><stop offset=".09" stop-color="#f7f7f7"/><stop offset=".22" stop-color="#e2e2e2"/><stop offset=".38" stop-color="silver"/><stop offset=".54" stop-color="#969696"/><stop offset=".64" stop-color="#797979"/><stop offset=".86" stop-color="#313131"/><stop offset="1" stop-color="#000"/></radialGradient><radialGradient id="radial-gradient-5" cx="488.89" cy="570.95" fx="488.89" fy="570.95" r="2.75" gradientTransform="translate(310.36 -530.27) rotate(30.4)" xlink:href="#radial-gradient-3"/><radialGradient id="radial-gradient-6" cx="438.28" cy="210.24" fx="438.28" fy="210.24" r="2.39" gradientTransform="translate(130.3 -165.85) rotate(25.06)" gradientUnits="userSpaceOnUse"><stop offset=".68" stop-color="#fff"/><stop offset=".74" stop-color="#f7f7f7"/><stop offset=".81" stop-color="#e2e2e2"/><stop offset=".91" stop-color="silver"/><stop offset="1" stop-color="#969696"/><stop offset="1" stop-color="#797979"/><stop offset="1" stop-color="#313131"/><stop offset="1" stop-color="#000"/></radialGradient><radialGradient id="radial-gradient-7" cx="437.96" cy="210.13" fx="437.96" fy="210.13" r="2.21" gradientTransform="translate(130.23 -165.72) rotate(25.06)" xlink:href="#radial-gradient-3"/><radialGradient id="radial-gradient-8" cx="472.07" cy="582.13" fx="472.07" fy="582.13" r="2.63" xlink:href="#radial-gradient-4"/><radialGradient id="radial-gradient-9" cx="471.83" cy="582.18" fx="471.83" fy="582.18" r="2.63" gradientTransform="translate(310.36 -530.27) rotate(30.4)" xlink:href="#radial-gradient-3"/><radialGradient id="radial-gradient-10" cx="418.33" cy="211.38" fx="418.33" fy="211.38" r="2.45" gradientTransform="translate(128.91 -157.29) rotate(25.06)" xlink:href="#radial-gradient-6"/><radialGradient id="radial-gradient-11" cx="418" cy="211.26" fx="418" fy="211.26" r="2.27" gradientTransform="translate(128.83 -157.16) rotate(25.06)" xlink:href="#radial-gradient-3"/><radialGradient id="radial-gradient-12" cx="289.63" cy="603" fx="289.63" fy="603" r="13.09" gradientTransform="translate(217.26 -1354.72) rotate(32.84) scale(1.99 2.08) skewX(4.97)" xlink:href="#radial-gradient-4"/><radialGradient id="radial-gradient-13" cx="288.4" cy="603.23" fx="288.4" fy="603.23" r="13.09" gradientTransform="translate(217.26 -1354.72) rotate(32.84) scale(1.99 2.08) skewX(4.97)" xlink:href="#radial-gradient-3"/><radialGradient id="radial-gradient-14" cx="230.75" cy="139.18" fx="230.75" fy="139.18" r="11.35" gradientTransform="translate(-263.97 -352.57) rotate(18.96) scale(1.94 2.13)" xlink:href="#radial-gradient-6"/><radialGradient id="radial-gradient-15" cx="229.26" cy="138.65" fx="229.26" fy="138.65" r="10.5" gradientTransform="translate(-264.5 -351.69) rotate(18.96) scale(1.94 2.13)" xlink:href="#radial-gradient-3"/><radialGradient id="radial-gradient-16" cx="826.32" cy="287.29" fx="826.32" fy="287.29" r="13.09" gradientTransform="translate(217.26 -1354.72) rotate(32.84) scale(1.99 2.08) skewX(4.97)" xlink:href="#radial-gradient-4"/><radialGradient id="radial-gradient-17" cx="825.1" cy="287.53" fx="825.1" fy="287.53" r="13.09" gradientTransform="translate(217.26 -1354.72) rotate(32.84) scale(1.99 2.08) skewX(4.97)" xlink:href="#radial-gradient-3"/><radialGradient id="radial-gradient-18" cx="853.42" cy="138.44" fx="853.42" fy="138.44" r="11.35" gradientTransform="translate(-198.98 -745) rotate(18.96) scale(1.94 2.13)" xlink:href="#radial-gradient-6"/><radialGradient id="radial-gradient-19" cx="851.92" cy="137.91" fx="851.92" fy="137.91" r="10.5" gradientTransform="translate(-199.51 -744.12) rotate(18.96) scale(1.94 2.13)" xlink:href="#radial-gradient-3"/><linearGradient id="linear-gradient" x1="1238.01" y1="201.42" x2="1215.03" y2="161.62" gradientUnits="userSpaceOnUse"><stop offset="0" stop-color="#8a5b13"/><stop offset=".63" stop-color="#895910"/><stop offset=".89" stop-color="#855509"/><stop offset="1" stop-color="#835204"/></linearGradient></defs><path class="cls-2" d="m14.16,89.68s-26.67-51.43,15.24-51.43,51.43-7.62,51.43-7.62c0,0,30.42-5.71,43.79,0,13.36,5.71,18.3-2.54,18.3-2.54,0,0,39.6,6.98,43.05,0s18.69,6.35,18.69,6.35c0,0,41.91,9.52,97.15,0s64.77-1.9,64.77-1.9c0,0,24.76,24.76,70.48,7.62,0,0,5.71-7.62,17.14,3.81s45.72-1.9,45.72-1.9c0,0,30.99-4.56,65.98,15.82,0,0,15.84-7.04,38.75,0,0,0,96.6-28.8,163.66-15.44,4.68.93,9.21,2.07,13.55,3.43,0,0,158.11-45.72,232.4-11.43,0,0,53.34,7.62,81.91-3.81,0,0,53.34-36.19,108.58-3.81,0,0,47.62-15.24,74.29,3.81,0,0,59.05-11.43,93.34,9.52,0,0,32.38,0,41.91,20.95,0,0,11.44,0,10.48,28.57s-11.84,21.91-11.84,21.91c0,0-8.17,35.24,7.07,27.62s-3.81,15.24-3.81,15.24c0,0-40,13.33-40,3.81s-22.86,24.76,24.76,40c47.62,15.24,45.72,38.1,45.72,38.1,0,0,7.64,26.53.01,39.94-7.63,13.4-40.01,13.4-40.01,13.4l43.4,3.82s-5.3,38.09-14.83,45.71c-9.52,7.62-22.86,7.62-22.86,7.62,0,0-34.29-11.43-43.81,5.71s-81.91-11.43-81.91-11.43c0,0-53.34,13.33-83.82,0-30.48-13.33-40,17.14-104.77,1.9,0,0-68.58,7.62-89.53-15.24,0,0-205.73,28.57-257.17-5.71,0,0-62.86,7.62-76.2,28.57l-11.34,7.38s-2,21.19-22.95,4.05c0,0-19.05,24.76-53.34,11.43,0,0-28.57-11.43,3.81-17.14s9.52-11.43,9.52-11.43c0,0-72.39,24.76-114.3,3.81,0,0-74.29,5.71-99.06-13.33,0,0-15.24-13.33-53.34,11.43,0,0-22.86,1.9-49.53-9.52,0,0-64.77,5.71-72.39-3.81,0,0-24.76,5.71-32.38,1.9,0,0-19.05,11.43-32.38,0,0,0-24.76,11.43-36.19,5.71,0,0-49.53,15.24-72.39-1.9,0,0-17.14,7.62-17.14-26.67,0,0,9.52-20.95,1.9-20.95l1.9-19.05s-7.62-51.43,11.43-47.62c0,0,40,5.71,34.29-3.81,0,0-26.67-19.05-30.48-7.62,0,0-11.43-41.91-1.9-49.53,0,0-19.05-47.62-15.24-59.05,0,0,0-13.33,3.81-13.33,0,0-15.24,19.05-13.33-1.9Z"/><path class="cls-3" d="m9.22,76.79S-17.45,25.36,24.46,25.36s51.43-7.62,51.43-7.62c0,0,30.42-5.71,43.79,0,13.36,5.71,18.3-2.54,18.3-2.54,0,0,39.6,6.98,43.05,0s18.69,6.35,18.69,6.35c0,0,41.91,9.52,97.15,0s64.77-1.9,64.77-1.9c0,0,24.76,24.76,70.48,7.62,0,0,5.71-7.62,17.14,3.81s45.72-1.9,45.72-1.9c0,0,30.99-4.56,65.98,15.82,0,0,15.84-7.04,38.75,0,0,0,96.6-28.8,163.66-15.44,4.68.93,9.21,2.07,13.55,3.43,0,0,158.11-45.72,232.4-11.43,0,0,53.34,7.62,81.91-3.81,0,0,53.34-36.19,108.58-3.81,0,0,47.62-15.24,74.29,3.81,0,0,59.05-11.43,93.34,9.52,0,0,32.38,0,41.91,20.95,0,0,11.44,0,10.48,28.57s-11.84,21.91-11.84,21.91c0,0-8.17,35.24,7.07,27.62,15.24-7.62-3.81,15.24-3.81,15.24,0,0-40,13.33-40,3.81s-22.86,24.76,24.76,40c47.62,15.24,45.72,38.1,45.72,38.1,0,0,7.64,26.53.01,39.94-7.63,13.4-40.01,13.4-40.01,13.4l43.4,3.82s-5.3,38.09-14.83,45.71c-9.52,7.62-22.86,7.62-22.86,7.62,0,0-34.29-11.43-43.81,5.71s-81.91-11.43-81.91-11.43c0,0-53.34,13.33-83.82,0-30.48-13.33-40,17.14-104.77,1.9,0,0-68.58,7.62-89.53-15.24,0,0-205.73,28.57-257.17-5.71,0,0-62.86,7.62-76.2,28.57l-11.34,7.38s-2,21.19-22.95,4.05c0,0-19.05,24.76-53.34,11.43,0,0-28.57-11.43,3.81-17.14s9.52-11.43,9.52-11.43c0,0-72.39,24.76-114.3,3.81,0,0-74.29,5.71-99.06-13.33,0,0-15.24-13.33-53.34,11.43,0,0-22.86,1.9-49.53-9.52,0,0-64.77,5.71-72.39-3.81,0,0-24.76,5.71-32.38,1.9,0,0-19.05,11.43-32.38,0,0,0-24.76,11.43-36.19,5.71,0,0-49.53,15.24-72.39-1.9,0,0-17.14,7.62-17.14-26.67,0,0,9.52-20.95,1.9-20.95l1.9-19.05s-7.62-51.43,11.43-47.62c0,0,40,5.71,34.29-3.81,0,0-26.67-19.05-30.48-7.62,0,0-11.43-41.91-1.9-49.53,0,0-19.05-47.62-15.24-59.05,0,0,0-13.33,3.81-13.33,0,0-15.24,19.05-13.33-1.9Z"/><path class="cls-1" d="m89.34,218.74s-10.94-77.69-6.57-79.87,28.69-4.38,28.57,0,11.92,30.64,14.1,22.98c0,0,9.85-5.47,12.04-18.6,0,0,14.22-12.04,26.26-1.09,0,0,6.48,66.74,3.24,76.59s-25.12,5.47-25.12,5.47c0,0-4.26-35.48,2.25-43.45,0,0-8.81,23.76-12.1,23.76,0,0-13.13-7.66-16.96-20.24,0,0,7.11,30.09,4.92,36.65,0,0-29.54,7.66-30.64-2.19Z"/><path class="cls-1" d="m174.68,142.14s24.72-8.75,28.77-6.02.77,18.05,2.96,21.34-13.47,0-13.47,0l1.43,9.85h8.46s-4.67,12.67,0,13.45c4.67.78-12.18,3.51-12.18,3.51l2.63,13.68s10.63-3.28,10.79,0c.15,3.28-4.81,23.82-1.24,27.23,3.58,3.41-28.15,0-28.15,0,0,0-4.38-46.92,0-83.03Z"/><path class="cls-1" d="m212.98,145.43s-5.47,17.33,0,27.81c0,0,9.64,1.09,15.32-1.55,0,0,1.09-2.19,0,53.61,0,0,6.68,8.75,19.7,0,0,0,4.61-49.41,1.21-52.06,0,0,21.77-1.55,21.77-4.84,0,0,4.38-15.32,0-22.98,0,0-39.39-6.57-57.99,0Z"/><path class="cls-1" d="m281.34,148.05s-5.47,17.33,0,27.81c0,0,9.64,1.09,15.32-1.55,0,0,1.09-2.19,0,53.61,0,0,6.68,8.75,19.7,0,0,0,4.61-49.41,1.21-52.06,0,0,21.77-1.55,21.77-4.84,0,0,4.38-15.32,0-22.98,0,0-39.39-6.57-57.99,0Z"/><path class="cls-1" d="m353.01,148.05s24.72-8.75,28.77-6.02c4.05,2.74.77,18.05,2.96,21.34s-13.47,0-13.47,0l1.43,9.85h8.46s-4.67,12.67,0,13.45c4.67.78-12.18,3.51-12.18,3.51l2.63,13.68s10.63-3.28,10.79,0-4.81,23.82-1.24,27.23c3.58,3.41-28.15,0-28.15,0,0,0-4.38-46.92,0-83.03Z"/><path class="cls-1" d="m438.22,229.77l18.39,8.43s13.77-45.79-34.72-31.9c-48.49,13.89,7.06,43.71,7.06,43.71,0,0,.71,26.04-23.3-3.01,0,0-13.3-2.48-15.25,12.27s37.25,25.81,37.25,25.81c0,0,43.01-5.55,15.91-42.81,0,0-28.88-17.61-24.52-19.23,4.35-1.62,35.38-16.79,19.18,6.73Z"/><polygon class="cls-1" points="405.25 130.3 410.59 131.99 399.13 149.59 395.6 148.47 401.72 129.18 405.25 130.3"/><circle class="cls-15" cx="500.19" cy="336.16" r="3.51"/><path class="cls-16" d="m441.21,208.69c-.74.44-1.25.79-1.34,1.35-.03.2-.03.53.14.63.2.11.53-.12,1.2-.63.41-.31.6-.46.77-.58.2-.15,1.07-.8,1.85-.85,1.36-.09,2.19,1.63,2.69,1.35.28-.16.46-.99.06-1.29-1.16-.86-1.8-1.34-2.7-1.33-.42,0-1.18.45-2.68,1.36Z"/><path class="cls-20" d="m440.96,208.61c-.74.44-1.25.79-1.34,1.35-.03.2-.03.53.14.63.2.11.53-.12,1.2-.63.41-.31.6-.46.77-.58.2-.15,1.07-.8,1.85-.85,1.36-.09,2.19,1.63,2.69,1.35.28-.16.46-.99.06-1.29-1.16-.86-1.8-1.34-2.7-1.33-.42,0-1.18.45-2.68,1.36Z"/><ellipse class="cls-17" cx="438.28" cy="210.24" rx="2.03" ry="2.7" transform="translate(-47.79 205.43) rotate(-25.06)"/><ellipse class="cls-21" cx="437.96" cy="210.13" rx="1.88" ry="2.5" transform="translate(-47.78 205.28) rotate(-25.06)"/><path class="cls-22" d="m437.52,210.18c-.25-.03-.72-.07-.72-.04,0,.04.74.2,1.42.27.25.03.72.07.72.04,0-.04-.74-.2-1.42-.27Z"/><path class="cls-19" d="m420.9,209.79c-.71.42-1.19.75-1.28,1.29-.03.19-.03.5.14.6.19.11.5-.12,1.15-.6.4-.3.57-.44.73-.56.19-.14,1.02-.76,1.77-.81,1.29-.09,2.09,1.55,2.57,1.28.27-.15.44-.95.06-1.23-1.1-.82-1.72-1.27-2.57-1.27-.4,0-1.12.43-2.56,1.3Z"/><path class="cls-18" d="m420.67,209.71c-.71.42-1.19.75-1.28,1.29-.03.19-.03.5.14.6.19.11.5-.12,1.15-.6.4-.3.57-.44.73-.56.19-.14,1.02-.76,1.77-.81,1.29-.09,2.09,1.55,2.57,1.28.27-.15.44-.95.06-1.23-1.1-.82-1.72-1.27-2.57-1.27-.4,0-1.12.43-2.56,1.3Z"/><ellipse class="cls-14" cx="418.33" cy="211.38" rx="2.08" ry="2.78" transform="translate(-50.15 197.08) rotate(-25.06)"/><ellipse class="cls-10" cx="418" cy="211.26" rx="1.93" ry="2.57" transform="translate(-50.14 196.94) rotate(-25.06)"/><path class="cls-22" d="m437.79,209.44c-.02-.38-.08-1.1-.11-1.09-.04,0-.05,1.16.02,2.19.02.38.08,1.1.11,1.09.04,0,.05-1.16-.02-2.19Z"/><path class="cls-22" d="m417.23,211.54c-.25-.03-.72-.07-.72-.04,0,.04.74.2,1.42.27.25.03.72.07.72.04,0-.04-.74-.2-1.42-.27Z"/><path class="cls-22" d="m417.51,210.8c-.02-.38-.08-1.1-.11-1.09-.04,0-.05,1.16.02,2.19.02.38.08,1.1.11,1.09.04,0,.05-1.16-.02-2.19Z"/><path class="cls-7" d="m89.89,58.03c-6.82,4.5-11.48,8.01-12.34,13.71-.3,2.03-.28,5.35,1.3,6.36,1.82,1.16,4.86-1.25,11.1-6.43,3.82-3.17,5.52-4.64,7.06-5.9,1.81-1.49,9.87-8.09,17.09-8.62,12.5-.92,20.19,16.49,24.8,13.64,2.6-1.6,4.23-10.07.59-13.04-10.65-8.69-16.61-13.55-24.87-13.5-3.9.02-10.85,4.61-24.74,13.78Z"/><path class="cls-6" d="m87.62,57.14c-6.82,4.5-11.48,8.01-12.34,13.71-.3,2.03-.28,5.35,1.3,6.36,1.82,1.16,4.86-1.25,11.1-6.43,3.82-3.17,5.52-4.64,7.06-5.9,1.81-1.49,9.87-8.09,17.09-8.62,12.5-.92,20.19,16.49,24.8,13.64,2.6-1.6,4.23-10.07.59-13.04-10.65-8.69-16.61-13.55-24.87-13.5-3.9.02-10.85,4.61-24.74,13.78Z"/><ellipse class="cls-5" cx="62.85" cy="73.68" rx="18.93" ry="27.04" transform="translate(-20.53 24.41) rotate(-18.96)"/><ellipse class="cls-8" cx="59.95" cy="72.55" rx="17.51" ry="25.02" transform="translate(-20.32 23.41) rotate(-18.96)"/><path class="cls-22" d="m55.85,73.08c-2.27-.28-6.64-.72-6.67-.39-.04.41,6.83,2.02,13.08,2.79,2.27.28,6.64.72,6.67.39.04-.41-6.83-2.02-13.08-2.79Z"/><path class="cls-22" d="m58.38,65.54c-.21-3.81-.7-11.1-1-11.08-.38.03-.42,11.76.16,22.23.21,3.81.7,11.1,1,11.08.38-.03.42-11.76-.16-22.23Z"/><path class="cls-9" d="m1297.62,56.45c-6.82,4.5-11.48,8.01-12.34,13.71-.3,2.03-.28,5.35,1.3,6.36,1.82,1.16,4.86-1.25,11.1-6.43,3.82-3.17,5.52-4.64,7.06-5.9,1.81-1.49,9.87-8.09,17.09-8.62,12.5-.92,20.19,16.49,24.8,13.64,2.6-1.6,4.23-10.07.59-13.04-10.65-8.69-16.61-13.55-24.87-13.5-3.9.02-10.85,4.61-24.74,13.78Z"/><path class="cls-1" d="m1336.97,71.07c-.18.57-15.21-5.67-34.29-7.62-21.58-2.21-28.54,3.09-47.62,3.81-27.25,1.03-30.1-9.13-60.96-13.33-26.28-3.58-28.91,3.16-74.29,5.71-41.71,2.35-74.44-1.37-74.43-2.09.01-.69,29.9,1.51,74.43-1.72,44.55-3.23,46.75-7.75,70.48-5.71,36.25,3.11,34.42,13.96,64.77,13.33,21.9-.45,35.27-6.35,60.14-.27,11.8,2.88,21.92,7.42,21.77,7.89Z"/><path class="cls-13" d="m1295.34,55.56c-6.82,4.5-11.48,8.01-12.34,13.71-.3,2.03-.28,5.35,1.3,6.36,1.82,1.16,4.86-1.25,11.1-6.43,3.82-3.17,5.52-4.64,7.06-5.9,1.81-1.49,9.87-8.09,17.09-8.62,12.5-.92,20.19,16.49,24.8,13.64,2.6-1.6,4.23-10.07.59-13.04-10.65-8.69-16.61-13.55-24.87-13.5-3.9.02-10.85,4.61-24.74,13.78Z"/><ellipse class="cls-12" cx="1270.57" cy="72.1" rx="18.93" ry="27.04" transform="translate(45.49 416.67) rotate(-18.96)"/><ellipse class="cls-11" cx="1267.68" cy="70.97" rx="17.51" ry="25.02" transform="translate(45.7 415.67) rotate(-18.96)"/><path class="cls-22" d="m1263.58,71.5c-2.27-.28-6.64-.72-6.67-.39-.04.41,6.83,2.02,13.08,2.79,2.27.28,6.64.72,6.67.39.04-.41-6.83-2.02-13.08-2.79Z"/><path class="cls-22" d="m1266.1,63.96c-.21-3.81-.7-11.1-1-11.08-.38.03-.42,11.76.16,22.23.21,3.81.7,11.1,1,11.08.38-.03.42-11.76-.16-22.23Z"/><path class="cls-1" d="m506.07,219.48s-10.94-77.69-6.57-79.87c4.38-2.19,28.69-4.38,28.57,0-.12,4.38,11.92,30.64,14.1,22.98,0,0,9.85-5.47,12.04-18.6,0,0,14.22-12.04,26.26-1.09,0,0,6.48,66.74,3.24,76.59-3.24,9.85-25.12,5.47-25.12,5.47,0,0-4.26-35.48,2.25-43.45,0,0-8.81,23.76-12.1,23.76,0,0-13.13-7.66-16.96-20.24,0,0,7.11,30.09,4.92,36.65,0,0-29.54,7.66-30.64-2.19Z"/><path class="cls-1" d="m594.42,142.42s-5.47,4.78,0,18.81c0,0,6.27,3.49,11.34,0v41.52s-6.67-2.04-9.55,0-1.79,16.27-1.79,16.27c0,0,6.59,2.19,8.77,0,2.17-2.19,30.62,2.19,30.62,2.19,0,0,3.28-16.41,2.19-17.51s-10.94,1.09-13.13,0c-2.19-1.09,0-40.48,0-40.48,0,0,8.75-7.66,15.32-3.28,6.57,4.38,3.58-17.51,3.58-17.51,0,0-24.37-4.38-47.35,0Z"/><path class="cls-1" d="m652,142.14s-7.36,61.27-3.68,75.5c0,0-4.64,4.29-1.03,5.43,3.61,1.14,10.1-9.8,24.91-5.43,0,0,1.68-18.6,2.77-25.17,1.09-6.57,18.6,27.35,18.6,27.35,0,0,22.85,3.28,24.55-2.19,1.71-5.47,2.67-7.57,0-8.71s-7.05-49.28-2.67-52.56-1.37-14.22-1.37-14.22c0,0-15.04-3.28-20.51,5.47,0,0-4.16,18.53-1.53,33.88,2.63,15.35-19.64-32.9-16.17-39.96,0,0-14.03-2.68-23.88.6Z"/><path class="cls-1" d="m731.87,138.3s-7.66,70.03-5.47,83.16c2.19,13.13,23.35,1.1,23.35,1.1,0,0,2.17-6.57,1.45-12.04-.72-5.47,17.88,18.6,17.88,18.6,0,0,16.41,2.19,19.7-3.28s6.83-4.23,6.15-7.04c-.68-2.81-9.43-4.99-9.43-4.99,0,0-12.82-12.4-12.43-16.6.39-4.19,10.24-8.57,10.24-15.14s15.3-11.91,15.3-11.91c0,0,7.68-13.25,5.49-16.53-2.19-3.28-15.32-10.94-15.32-10.94,0,0-3.28-1.09-6.57,6.57s-19.98,25.13-19.98,25.13l-1.9-20.75s10.94-9.16,4.92-8.96c0,0,10.52-12.93-4.86-6.36,0,0-3.81,3.55-5.77,2.32-1.95-1.23-19.46-4.51-22.74-2.32Z"/><path class="cls-1" d="m859.28,217.04s-10.94-77.69-6.57-79.87c4.38-2.19,28.69-4.38,28.57,0-.12,4.38,11.92,30.64,14.1,22.98,0,0,9.85-5.47,12.04-18.6,0,0,14.22-12.04,26.26-1.09,0,0,6.48,66.74,3.24,76.59s-25.12,5.47-25.12,5.47c0,0-4.26-35.48,2.25-43.45,0,0-8.81,23.76-12.1,23.76,0,0-13.13-7.66-16.96-20.24,0,0,7.11,30.09,4.92,36.65,0,0-29.54,7.66-30.64-2.19Z"/><path class="cls-1" d="m944.84,140.49s-5.47,4.78,0,18.81c0,0,6.27,3.49,11.34,0v41.52s-6.67-2.04-9.55,0c-2.88,2.04-1.79,16.27-1.79,16.27,0,0,6.59,2.19,8.77,0,2.17-2.19,30.62,2.19,30.62,2.19,0,0,3.28-16.41,2.19-17.51s-10.94,1.09-13.13,0,0-40.48,0-40.48c0,0,8.75-7.66,15.32-3.28s3.58-17.51,3.58-17.51c0,0-24.37-4.38-47.35,0Z"/><path class="cls-1" d="m1028.08,165.9l20.21.86s-4.54-47.6-44.19-16.43c-39.65,31.18,23.04,37.81,23.04,37.81,0,0,10.49,23.85-22.71,6.02,0,0-13.26,2.72-9.49,17.12,3.77,14.4,44.24,9.83,44.24,9.83,0,0,37.72-21.38-1.44-45.65,0,0-33.39-5.4-29.97-8.54,3.42-3.14,26.41-28.91,20.3-1.01Z"/><path class="cls-1" d="m1093.98,166.34l20.21.86s-4.54-47.6-44.19-16.43c-39.65,31.18,23.04,37.81,23.04,37.81,0,0,10.49,23.85-22.71,6.02,0,0-13.26,2.72-9.49,17.12,3.77,14.4,44.24,9.83,44.24,9.83,0,0,37.72-21.38-1.44-45.65,0,0-33.39-5.4-29.97-8.54,3.42-3.14,26.41-28.91,20.3-1.01Z"/><path class="cls-1" d="m1129.07,144.05s-5.47,4.78,0,18.81c0,0,6.27,3.49,11.34,0v41.52s-6.67-2.04-9.55,0-1.79,16.27-1.79,16.27c0,0,6.59,2.19,8.77,0,2.17-2.19,30.62,2.19,30.62,2.19,0,0,3.28-16.41,2.19-17.51s-10.94,1.09-13.13,0,0-40.48,0-40.48c0,0,8.75-7.66,15.32-3.28,6.57,4.38,3.58-17.51,3.58-17.51,0,0-24.37-4.38-47.35,0Z"/><path class="cls-1" d="m1284.15,145.93s-7.36,61.27-3.68,75.5c0,0-4.64,4.29-1.03,5.43,3.61,1.14,10.1-9.8,24.91-5.43,0,0,1.68-18.6,2.77-25.17,1.09-6.57,18.6,27.35,18.6,27.35,0,0,22.85,3.28,24.55-2.19,1.71-5.47,2.67-7.57,0-8.71s-7.05-49.28-2.67-52.56-1.37-14.22-1.37-14.22c0,0-15.04-3.28-20.51,5.47,0,0-4.16,18.53-1.53,33.88,2.63,15.35-19.64-32.9-16.17-39.96,0,0-14.03-2.68-23.88.6Z"/><circle class="cls-1" cx="1226.48" cy="181.56" r="40"/><circle class="cls-4" cx="1226.52" cy="181.52" r="22.98"/><path class="cls-1" d="m260.67,64.41c.03.39-30.4,11.74-59.05-.95-9.52-4.22-14.19-9.03-24.76-9.52-17.46-.82-30.12,11.08-30.48,10.48-.37-.63,13.03-14.75,30.48-14.29,11.01.29,15.26,6.17,26.67,11.43,28.15,12.98,57.12,2.47,57.15,2.86Z"/><path class="cls-1" d="m824.54,74.88c-.18.74-124.67-57.85-184.78-9.52-10.23,8.22-26.84,26.17-49.53,24.76-16.06-1-19.67-10.73-40-19.05-6.41-2.62-20.21-7.45-76.2-3.81-44.19,2.87-72.28,8.27-72.39,7.62-.11-.7,32.6-8.11,74.29-11.43,37.99-3.02,57.37-4.37,76.2,3.81,19.32,8.39,24.04,18.57,40,19.05,20.71.63,35.57-15.81,43.81-22.86,55.81-47.67,188.78,10.67,188.59,11.43Z"/><path class="cls-1" d="m952.17,63.45c.11.56-2.76,1.54-3.81,1.9-8.47,2.9-16.07,2.02-17.14,1.9-15.82-1.75-32.29,4.37-32.38,3.81-.09-.51,13.83-3.57,28.57-5.71,8.95-1.3,24.52-3.19,24.76-1.9Z"/><path class="cls-1" d="m243.53,259.66c.04.95-102.3,18.58-150.49-3.81-4.92-2.29-19.91-9.93-40-9.52-18.46.38-32.14,7.37-32.38,6.67-.25-.73,14.14-9.37,32.38-10.48,19.93-1.21,35.27,7.14,40,9.52,50.08,25.24,150.45,6.68,150.49,7.62Z"/><path class="cls-1" d="m1403.64,276.81c.42.73-28.03,29.9-62.86,26.67-23.62-2.19-26.51-17.09-55.24-24.76-37.68-10.07-70.34,5.49-70.48,4.76-.15-.73,31.93-17.01,68.58-8.57,29.03,6.68,32.13,22.25,57.15,24.76,34.99,3.52,62.46-23.57,62.86-22.86Z"/><path class="cls-1" d="m522.1,308.05c.11.56-2.76,1.54-3.81,1.9-8.47,2.9-16.07,2.02-17.14,1.9-15.82-1.75-32.29,4.37-32.38,3.81-.09-.51,13.83-3.57,28.57-5.71,8.95-1.3,24.52-3.19,24.76-1.9Z"/><path class="cls-1" d="m868.8,269.95c-.11.56,2.76,1.54,3.81,1.9,8.47,2.9,16.07,2.02,17.14,1.9,15.82-1.75,32.29,4.37,32.38,3.81.09-.51-13.83-3.57-28.57-5.71-8.95-1.3-24.52-3.19-24.76-1.9Z"/></svg>