<?xml version="1.0" encoding="UTF-8"?><svg id="Mundbind_liv" xmlns="http://www.w3.org/2000/svg" xmlns:xlink="http://www.w3.org/1999/xlink" viewBox="0 0 812 516"><defs><style>.cls-1{fill:url(#linear-gradient);}.cls-1,.cls-2,.cls-3,.cls-4,.cls-5,.cls-6,.cls-7,.cls-8,.cls-9,.cls-10,.cls-11,.cls-12,.cls-13,.cls-14,.cls-15{stroke-width:0px;}.cls-2{fill:url(#radial-gradient);}.cls-3{fill:url(#radial-gradient-10);}.cls-4{fill:url(#radial-gradient-2);}.cls-5{fill:url(#radial-gradient-3);}.cls-6{fill:url(#radial-gradient-4);}.cls-7{fill:url(#radial-gradient-6);}.cls-8{fill:url(#radial-gradient-9);}.cls-9{fill:url(#radial-gradient-8);}.cls-10{fill:url(#radial-gradient-5);}.cls-11{fill:url(#radial-gradient-7);}.cls-12{fill:url(#linear-gradient-4);}.cls-13{fill:url(#linear-gradient-2);}.cls-14{fill:url(#linear-gradient-3);}.cls-15{fill:#29abe2;}</style><radialGradient id="radial-gradient" cx="683.42" cy="201.05" fx="683.42" fy="201.05" r="168.71" gradientUnits="userSpaceOnUse"><stop offset="0" stop-color="#fff"/><stop offset="1" stop-color="#dedede"/></radialGradient><radialGradient id="radial-gradient-2" cx="93.94" cy="277.83" fx="93.94" fy="277.83" r="131.59" xlink:href="#radial-gradient"/><linearGradient id="linear-gradient" x1="372.08" y1="223.03" x2="372.08" y2="275.95" gradientUnits="userSpaceOnUse"><stop offset="0" stop-color="#29abe2"/><stop offset="1" stop-color="#0073aa"/></linearGradient><linearGradient id="linear-gradient-2" x1="335.16" y1="284.1" x2="415.74" y2="284.1" xlink:href="#linear-gradient"/><linearGradient id="linear-gradient-3" x1="235.09" y1="338.44" x2="525.32" y2="338.44" xlink:href="#linear-gradient"/><linearGradient id="linear-gradient-4" x1="277" y1="414.02" x2="531.94" y2="414.02" xlink:href="#linear-gradient"/><radialGradient id="radial-gradient-3" cx="551.1" cy="169.42" fx="551.1" fy="169.42" r="11.28" gradientUnits="userSpaceOnUse"><stop offset=".1" stop-color="#dedede"/><stop offset=".31" stop-color="#dbddde" stop-opacity=".99"/><stop offset=".44" stop-color="#d4dbde" stop-opacity=".95"/><stop offset=".55" stop-color="#c8d8de" stop-opacity=".89"/><stop offset=".64" stop-color="#b7d3de" stop-opacity=".81"/><stop offset=".73" stop-color="#a1cddf" stop-opacity=".7"/><stop offset=".81" stop-color="#86c5df" stop-opacity=".57"/><stop offset=".89" stop-color="#66bce0" stop-opacity=".41"/><stop offset=".96" stop-color="#42b2e1" stop-opacity=".23"/><stop offset="1" stop-color="#29abe2" stop-opacity=".1"/></radialGradient><radialGradient id="radial-gradient-4" cx="202" cy="210.52" fx="202" fy="210.52" r="11.28" xlink:href="#radial-gradient-3"/><radialGradient id="radial-gradient-5" cx="183.69" cy="420.8" fx="183.69" fy="420.8" xlink:href="#radial-gradient-3"/><radialGradient id="radial-gradient-6" cx="615.56" cy="375.68" fx="615.56" fy="375.68" r="11.28" xlink:href="#radial-gradient-3"/><radialGradient id="radial-gradient-7" cx="551.1" cy="169.42" fx="551.1" fy="169.42" r="4.83" gradientUnits="userSpaceOnUse"><stop offset=".1" stop-color="#000" stop-opacity=".1"/><stop offset=".31" stop-color="#020202" stop-opacity=".11"/><stop offset=".44" stop-color="#0b0b0b" stop-opacity=".14"/><stop offset=".54" stop-color="#191919" stop-opacity=".2"/><stop offset=".64" stop-color="#2d2d2d" stop-opacity=".29"/><stop offset=".72" stop-color="#484848" stop-opacity=".39"/><stop offset=".8" stop-color="#686868" stop-opacity=".53"/><stop offset=".88" stop-color="#8f8f8f" stop-opacity=".68"/><stop offset=".95" stop-color="#bbb" stop-opacity=".86"/><stop offset="1" stop-color="#dedede"/></radialGradient><radialGradient id="radial-gradient-8" cx="615.56" cy="375.68" fx="615.56" fy="375.68" r="4.83" xlink:href="#radial-gradient-7"/><radialGradient id="radial-gradient-9" cx="183.69" cy="420.8" fx="183.69" fy="420.8" xlink:href="#radial-gradient-7"/><radialGradient id="radial-gradient-10" cx="203.03" cy="211.32" fx="203.03" fy="211.32" r="4.83" xlink:href="#radial-gradient-7"/></defs><path class="cls-2" d="m560.77,162.97s95.53-44.84,103.11-86c6.11-33.15,28.31-61.33,60.59-71.01,36.84-11.04,73.62-10.31,78.88,33.32,2.29,18.96.33,38.17-5.14,56.46-6.19,20.69-12.45,58.63,7.44,96.61,9.08,17.35,8.09,38.34-2.05,55.09-17.93,29.62-47.31,67.41-76.09,57.55-45.96-15.74-31.43,52.42-31.43,52.42,0,0-31.09,75.05-62.64,30.62l-4.76-24.31s27.95,63.37,55.92-5.17c0,0-20.28-86.92,51.7-63.17,0,0,14.49,11.86,49.37-37.85,13.8-19.66,16.5-45.04,7.2-67.19-9.17-21.84-16.39-56.14-4.3-101.95,2.89-10.94,4.94-22.1,5.43-33.41,1.15-26.86-39.09-61.39-84.97-20.95-14.43,12.73-18.17,21-25.78,38.67-8.91,20.7-28.17,65-116.02,99.91,0,0-22.56-3.22-6.45-9.67Z"/><path class="cls-4" d="m170.8,204.87s-87.02-32.23-93.46-45.12c0,0-94.22-109.58-74.5,22.56,0,0,36.1,57.36-2.71,114.09,0,0,48.34,84.17,85.34,67.22,37-16.94,30.55,41.07,30.55,41.07,0,0,32.16,59.96,54.75,20.31l1.94-20.66s-18.02,55.13-47.03.34c0,0,9.67-74.13-48.34-48.34,0,0-16.11,16.11-67.68-58.01,0,0,35.45-45.12,3.22-119.25,0,0-29.01-109.58,54.79-16.11,0,0,11.34,24.77,120.08,55.9,0,0-4.06-10.78-16.95-14Z"/><path class="cls-15" d="m167.58,204.87s-6.45-54.79,151.47-19.34c0,0,38.67,16.11,70.9-32.23,0,0,222.38-67.68,170.81,67.68,0,0,145.03,183.7,22.56,244.94,0,0-148.25,112.8-227.21,0,0,0-220.84,37.4-188.57-40.92,0,0,4.19-77.34,27.9-98.78,0,0,14.04-108.46-27.86-121.35Z"/><path class="cls-1" d="m499.53,256.44c-.34-2.23-7.29-3.48-12.89-3.22-8.2.37-9.91,3.77-16.11,3.22-5.38-.48-9.17-3.49-12.89-6.45-8.53-6.78-8.34-12.37-14.35-14.73-5.08-1.99-8.71.63-14.66,1.84-22.46,4.56-36.43-19.59-51.57-12.89-6.29,2.78-4.72,7.32-13.36,12.22-9.68,5.49-19.79,4.39-25.31,3.89-28.76-2.59-56.16-5.07-74.13,6.45-14.88,9.54-21.2,27.33-19.34,29.01,1.85,1.66,15.79-8.87,25.78-19.34,3.78-3.96,4.02-4.8,6.45-6.45,7.55-5.13,15.28-3.85,29.01-3.22,13.02.6,6.87-.52,29.01,0,20.35.48,24.04,1.39,29.91-1.64,9.92-5.1,7.72-11.97,15.21-14.48,13.96-4.68,24.23,18.27,45.12,16.11,8.12-.84,13.09-4.98,18.27-1.73,5.15,3.22,2.71,8.85,7.52,14.63,8.58,10.31,28.54,7.03,38.67,3.22,1.05-.39,10.08-3.79,9.67-6.45Z"/><path class="cls-13" d="m415.74,288.66c.11.91-8.11,4.58-17.24,3.47-12.31-1.49-14.52-10.23-24.66-9.92-5.64.18-5.68,2.9-16.11,6.45-11.3,3.84-22.27,4.39-22.56,3.22-.2-.79,4.58-2.14,16.93-7.27,18.5-7.7,17.87-8.88,21.74-8.84,10.91.1,12.48,9.47,27.76,12.15,8.01,1.41,14.04-.03,14.14.74Z"/><path class="cls-14" d="m525.32,359.57c.45-1.43-51.05-36.23-96.69-19.34-19.42,7.19-36.57,23.3-48.34,16.11-5.2-3.18-4.77-8.11-9.67-16.11-11.21-18.32-32.87-24.21-38.67-25.78-32.44-8.81-59.01,10.75-83.79,29.01-4.73,3.49-14.46,10.78-12.89,16.11.43,1.45,1.71,2.81,3.22,3.22,4.56,1.25,10.23-6.32,12.89-9.67,0,0,11.21-14.07,29.01-25.78,14.88-9.79,35.34-11.69,51.57-6.45,13.99,4.52,23.54,13.94,29.01,19.34,12.69,12.53,11.6,18.71,19.34,22.56,14.38,7.15,29.65-8.51,51.57-16.11,46.43-16.11,93.04,14.25,93.46,12.89Z"/><path class="cls-12" d="m277.02,420.97c.34-2.23,7.29-3.48,12.89-3.22,8.2.37,9.91,3.77,16.11,3.22,5.38-.48,9.17-3.49,12.89-6.45,8.53-6.78,8.34-12.37,14.35-14.73,5.08-1.99,8.71.63,14.66,1.84,22.46,4.56,36.43-19.59,51.57-12.89,6.29,2.78,4.72,7.32,13.36,12.22,9.68,5.49,19.79,4.39,25.31,3.89,28.76-2.59,56.16-5.07,74.13,6.45,14.88,9.54,21.2,27.33,19.34,29.01-1.85,1.66-15.79-8.87-25.78-19.34-3.78-3.96-4.02-4.8-6.45-6.45-7.55-5.13-15.28-3.85-29.01-3.22-13.02.6-6.87-.52-29.01,0-20.35.48-24.04,1.39-29.91-1.64-9.92-5.1-7.72-11.97-15.21-14.48-13.96-4.68-24.23,18.27-45.12,16.11-8.12-.84-13.09-4.98-18.27-1.73-5.15,3.22-2.71,8.85-7.52,14.63-8.58,10.31-28.54,7.03-38.67,3.22-1.05-.39-10.08-3.79-9.67-6.45Z"/><circle class="cls-5" cx="551.1" cy="169.42" r="11.28"/><circle class="cls-6" cx="202" cy="210.52" r="11.28"/><circle class="cls-10" cx="183.69" cy="420.8" r="11.28"/><circle class="cls-7" cx="615.56" cy="375.68" r="11.28"/><circle class="cls-11" cx="551.1" cy="169.42" r="4.83"/><circle class="cls-9" cx="615.56" cy="375.68" r="4.83"/><circle class="cls-8" cx="183.69" cy="420.8" r="4.83"/><circle class="cls-3" cx="203.03" cy="211.32" r="4.83"/></svg>