<?xml version="1.0" encoding="UTF-8"?><svg id="Kanyle_Timer" xmlns="http://www.w3.org/2000/svg" xmlns:xlink="http://www.w3.org/1999/xlink" viewBox="0 0 78 554"><defs><style>.cls-1{fill:url(#linear-gradient);}.cls-1,.cls-2,.cls-3,.cls-4,.cls-5,.cls-6,.cls-7,.cls-8,.cls-9,.cls-10,.cls-11,.cls-12,.cls-13,.cls-14,.cls-15,.cls-16,.cls-17,.cls-18,.cls-19,.cls-20,.cls-21,.cls-22,.cls-23,.cls-24,.cls-25,.cls-26,.cls-27,.cls-28,.cls-29,.cls-30,.cls-31,.cls-32,.cls-33,.cls-34,.cls-35{stroke-width:0px;}.cls-2{fill:url(#linear-gradient-33);}.cls-3{fill:url(#linear-gradient-29);}.cls-4{fill:url(#linear-gradient-32);}.cls-5{fill:url(#linear-gradient-30);}.cls-6{fill:url(#linear-gradient-31);}.cls-7{fill:url(#linear-gradient-28);}.cls-8{fill:url(#linear-gradient-25);}.cls-9{fill:url(#linear-gradient-11);}.cls-10{fill:url(#linear-gradient-12);}.cls-11{fill:url(#linear-gradient-13);}.cls-12{fill:url(#linear-gradient-10);}.cls-13{fill:url(#linear-gradient-17);}.cls-14{fill:url(#linear-gradient-16);}.cls-15{fill:url(#linear-gradient-19);}.cls-16{fill:url(#linear-gradient-15);}.cls-17{fill:url(#linear-gradient-23);}.cls-18{fill:url(#linear-gradient-21);}.cls-19{fill:url(#linear-gradient-18);}.cls-20{fill:url(#linear-gradient-14);}.cls-21{fill:url(#linear-gradient-22);}.cls-22{fill:url(#linear-gradient-20);}.cls-23{fill:url(#linear-gradient-27);}.cls-24{fill:url(#linear-gradient-24);}.cls-25{fill:url(#linear-gradient-26);}.cls-26{fill:url(#linear-gradient-4);}.cls-27{fill:url(#linear-gradient-2);}.cls-28{fill:url(#linear-gradient-3);}.cls-29{fill:url(#linear-gradient-8);}.cls-30{fill:url(#linear-gradient-9);}.cls-31{fill:url(#linear-gradient-7);}.cls-32{fill:url(#linear-gradient-5);}.cls-33{fill:url(#linear-gradient-6);}.cls-35{fill:#fff;}</style><linearGradient id="linear-gradient" x1="51.5" y1="41.93" x2="58.2" y2="41.93" gradientTransform="translate(4.33 -5.12) rotate(5.57)" gradientUnits="userSpaceOnUse"><stop offset="0" stop-color="#dedede"/><stop offset="1" stop-color="#fff"/></linearGradient><linearGradient id="linear-gradient-2" x1="24.77" y1="44.97" x2="31.48" y2="44.97" gradientTransform="translate(36.52 -7.9) rotate(164.58) scale(1 -1)" xlink:href="#linear-gradient"/><linearGradient id="linear-gradient-3" x1="41.25" y1="34" x2="41.25" y2="-.25" gradientUnits="userSpaceOnUse"><stop offset="0" stop-color="#fff"/><stop offset=".14" stop-color="#fff"/><stop offset="1" stop-color="#fff"/></linearGradient><linearGradient id="linear-gradient-4" x1="36.5" x2="43.2" gradientTransform="matrix(1,0,0,1,0,0)" xlink:href="#linear-gradient"/><linearGradient id="linear-gradient-5" x1="37.77" y1="-196.62" x2="37.77" y2="305.46" gradientUnits="userSpaceOnUse"><stop offset="0" stop-color="#15ff24" stop-opacity="0"/><stop offset="1" stop-color="#3fbcff" stop-opacity="0"/></linearGradient><linearGradient id="linear-gradient-6" x1="11.32" y1="311.75" x2="78.39" y2="311.75" gradientUnits="userSpaceOnUse"><stop offset="0" stop-color="#3cb4fa" stop-opacity=".15"/><stop offset=".03" stop-color="#3eb5fa"/><stop offset="1" stop-color="#70c8fb"/></linearGradient><linearGradient id="linear-gradient-7" x1="45.27" y1="313" x2="45.27" y2="386.41" gradientUnits="userSpaceOnUse"><stop offset="0" stop-color="#3cb4fa"/><stop offset="1" stop-color="#7dfaff"/></linearGradient><linearGradient id="linear-gradient-8" x1="50.08" y1="379.47" x2="46.27" y2="418.06" gradientTransform="translate(-39.65 6.57) rotate(-5.65) scale(1.01 1)" gradientUnits="userSpaceOnUse"><stop offset="0" stop-color="#7dfaff"/><stop offset="1" stop-color="#fff"/></linearGradient><linearGradient id="linear-gradient-9" x1="49.45" y1="412.51" x2="49.45" y2="553.5" gradientUnits="userSpaceOnUse"><stop offset="0" stop-color="#dedede"/><stop offset="1" stop-color="#fff"/></linearGradient><linearGradient id="linear-gradient-10" x1="50.54" y1="-6.54" x2="24.27" y2="38.96" gradientUnits="userSpaceOnUse"><stop offset="0" stop-color="#dedede"/><stop offset=".08" stop-color="#e5e5e5"/><stop offset=".3" stop-color="#f4f4f4"/><stop offset=".56" stop-color="#fcfcfc"/><stop offset="1" stop-color="#fff"/></linearGradient><linearGradient id="linear-gradient-11" x1="40" y1="507.04" x2="40" y2="73.04" gradientTransform="translate(0 -.04)" gradientUnits="userSpaceOnUse"><stop offset="0" stop-color="#fff"/><stop offset="0" stop-color="#000"/></linearGradient><linearGradient id="linear-gradient-12" x1="36.86" y1="32" x2="36.86" y2="1" gradientTransform="translate(-2.73 24.43) rotate(-35.33)" gradientUnits="userSpaceOnUse"><stop offset="0" stop-color="#dedede"/><stop offset=".14" stop-color="#dedede"/><stop offset="1" stop-color="#dedede"/></linearGradient><linearGradient id="linear-gradient-13" x1="29.2" y1="103.83" x2="29.2" y2="54.15" gradientTransform="translate(109.77 11.41) rotate(89.6) scale(.14 .93)" xlink:href="#linear-gradient-12"/><linearGradient id="linear-gradient-14" x1="27.91" y1="99.5" x2="70.09" y2="99.5" gradientTransform="matrix(1,0,0,1,0,0)" xlink:href="#linear-gradient-11"/><linearGradient id="linear-gradient-15" x1="27.91" y1="111.5" x2="70.09" y2="111.5" gradientTransform="matrix(1,0,0,1,0,0)" xlink:href="#linear-gradient-11"/><linearGradient id="linear-gradient-16" x1="26.91" y1="123.5" x2="69.09" y2="123.5" gradientTransform="matrix(1,0,0,1,0,0)" xlink:href="#linear-gradient-11"/><linearGradient id="linear-gradient-17" x1="24.91" y1="135.5" x2="67.09" y2="135.5" gradientTransform="matrix(1,0,0,1,0,0)" xlink:href="#linear-gradient-11"/><linearGradient id="linear-gradient-18" x1="23.91" y1="147.5" x2="66.09" y2="147.5" gradientTransform="matrix(1,0,0,1,0,0)" xlink:href="#linear-gradient-11"/><linearGradient id="linear-gradient-19" x1="23.91" y1="159.5" x2="66.09" y2="159.5" gradientTransform="matrix(1,0,0,1,0,0)" xlink:href="#linear-gradient-11"/><linearGradient id="linear-gradient-20" x1="23.91" y1="171.5" x2="66.09" y2="171.5" gradientTransform="matrix(1,0,0,1,0,0)" xlink:href="#linear-gradient-11"/><linearGradient id="linear-gradient-21" x1="24.91" y1="183.5" x2="67.09" y2="183.5" gradientTransform="matrix(1,0,0,1,0,0)" xlink:href="#linear-gradient-11"/><linearGradient id="linear-gradient-22" x1="24.91" y1="195.5" x2="67.09" y2="195.5" gradientTransform="matrix(1,0,0,1,0,0)" xlink:href="#linear-gradient-11"/><linearGradient id="linear-gradient-23" x1="25.91" y1="207.5" x2="68.09" y2="207.5" gradientTransform="matrix(1,0,0,1,0,0)" xlink:href="#linear-gradient-11"/><linearGradient id="linear-gradient-24" x1="26.91" y1="219.5" x2="69.09" y2="219.5" gradientTransform="matrix(1,0,0,1,0,0)" xlink:href="#linear-gradient-11"/><linearGradient id="linear-gradient-25" x1="27.91" y1="231.5" x2="70.09" y2="231.5" gradientTransform="matrix(1,0,0,1,0,0)" xlink:href="#linear-gradient-11"/><linearGradient id="linear-gradient-26" x1="28.91" y1="243.5" x2="71.09" y2="243.5" gradientTransform="matrix(1,0,0,1,0,0)" xlink:href="#linear-gradient-11"/><linearGradient id="linear-gradient-27" x1="29.91" y1="255.5" x2="72.09" y2="255.5" gradientTransform="matrix(1,0,0,1,0,0)" xlink:href="#linear-gradient-11"/><linearGradient id="linear-gradient-28" x1="30.91" y1="267.5" x2="73.09" y2="267.5" gradientTransform="matrix(1,0,0,1,0,0)" xlink:href="#linear-gradient-11"/><linearGradient id="linear-gradient-29" x1="31.91" y1="279.5" x2="74.09" y2="279.5" gradientTransform="matrix(1,0,0,1,0,0)" xlink:href="#linear-gradient-11"/><linearGradient id="linear-gradient-30" x1="-62.07" y1="59.35" x2="68.01" y2="59.35" gradientUnits="userSpaceOnUse"><stop offset="0" stop-color="#fff"/><stop offset="0" stop-color="#dedede"/></linearGradient><linearGradient id="linear-gradient-31" x1="-50.07" y1="300.85" x2="78.01" y2="300.85" xlink:href="#linear-gradient-30"/><linearGradient id="linear-gradient-32" x1="-6.4" y1="321" x2="62.1" y2="321" xlink:href="#linear-gradient-30"/><linearGradient id="linear-gradient-33" x1="20.93" y1="382.49" x2="57.11" y2="382.49" gradientTransform="translate(24.73 -2.3) rotate(3.7)" xlink:href="#linear-gradient-30"/></defs><path class="cls-35" d="m23.54,59.36L12,14.86s19.82,18.32,26.16,8.98c0,0,13.03,6.38,22.18-8.98l-8.53,41.56-28.27,2.94Z"/><polygon class="cls-1" points="58.09 25.74 56.11 63.58 51.13 57.15 53.59 20.28 58.09 25.74"/><polygon class="cls-27" points="15.41 27.53 23.84 64.48 27.64 57.29 18.9 21.38 15.41 27.53"/><path class="cls-28" d="m56.71,32.26s41.92-26.21,0-31.37C14.79-4.28,11.22,9.85,11.22,9.85c0,0-15.25,22.7,13.33,23.85,28.58,1.15,32.16-1.45,32.16-1.45Z"/><polygon class="cls-26" points="41.5 25.5 43.2 63.36 37.63 57.44 36.5 20.5 41.5 25.5"/><path class="cls-32" d="m73.5,279.5s-12-119-6-150.12,0-69.88,0-69.88C32.5,44.5,2.5,67.5,2.5,67.5c-9,12,9.5,39.87,9.5,39.87-12.5,52.87,4.34,198.09,4.34,198.09l59.16-1.96-2-24Z"/><path class="cls-33" d="m14.44,306.06s38.56-23.42,63.1-2.09c0,0,6.4,13.87-16,23.47,0,0-18.13-26.67-33.06,1.07,0,0-25.93.98-14.03-22.44Z"/><path class="cls-31" d="m28.67,325.44s-11.8,36.65,10.42,60.96c0,0,9.58-11.75,17.48-2.14,0,0,15.27-19.87,4.74-59.87,0,0-15.79-26.32-32.64,1.05Z"/><path class="cls-29" d="m39.03,386.17s-2.14,12.21,8.03,31.82c0,0,1.02-7,3.03,0,0,0,11.52-20.15,5.43-35.5,0,0-6.73-9.44-16.49,3.68Z"/><path class="cls-30" d="m46.9,415.98l5.1,137.52-2-138s3.79-7.04-3.1.48Z"/><path class="cls-12" d="m54.13,31.66S96.59,5.11,54.13-.12C11.67-5.34,8.06,8.96,8.06,8.96c0,0-15.44,22.99,13.5,24.16s32.57-1.47,32.57-1.47Z"/><rect class="cls-9" x="39" y="73" width="2" height="217" transform="translate(-3.97 .92) rotate(-1.25)"/><path class="cls-34" d="m19.04,95.59c-.52.45-1,.98-1.45,1.59-.45.61-.81,1.27-1.08,1.98.58-.31,1.2-.46,1.86-.46.46,0,.89.07,1.28.2.4.14.74.33,1.04.59.29.26.52.58.69.97.16.39.25.83.25,1.33,0,.54-.08,1.03-.25,1.45-.17.42-.4.78-.7,1.07-.3.29-.66.51-1.08.66-.42.15-.88.23-1.39.23-.58,0-1.12-.11-1.64-.32-.51-.21-.93-.53-1.25-.95-.31-.42-.55-.85-.72-1.29s-.27-.9-.27-1.4c0-.6.09-1.21.27-1.84.18-.62.43-1.23.75-1.82s.69-1.15,1.11-1.68c.42-.53.87-1.01,1.34-1.43.2-.17.42-.25.67-.25s.43.07.58.21c.15.14.23.31.23.51s-.08.41-.25.64h-.02Zm-2.95,6.09c.04.25.11.49.24.73.12.24.28.45.47.63.19.18.4.33.64.44.24.11.49.17.73.17.41,0,.73-.07.95-.22.22-.15.39-.32.5-.52.11-.2.17-.4.19-.6.02-.2.04-.35.04-.44,0-.3-.04-.55-.13-.76-.09-.21-.2-.37-.34-.5s-.29-.21-.46-.27-.34-.08-.52-.08c-.45,0-.88.13-1.28.4-.41.27-.75.61-1.03,1.02Z"/><path class="cls-34" d="m30.76,101.22c-.11.42-.27.88-.49,1.38-.22.5-.48.96-.8,1.39-.32.43-.68.8-1.09,1.12-.41.32-.87.51-1.38.58-.11.02-.22.04-.35.04-.13,0-.25,0-.37,0-.21,0-.42-.02-.64-.06-.21-.04-.42-.12-.62-.22l-.19-.11c-.22-.11-.43-.22-.63-.35s-.36-.29-.49-.5c-.41-.57-.71-1.18-.9-1.86s-.28-1.34-.28-2.02c0-.25.01-.5.04-.75s.05-.5.09-.73c.07-.48.21-.99.41-1.52s.46-1.02.79-1.46.71-.81,1.17-1.11c.46-.3.98-.46,1.57-.49.28-.01.56,0,.82,0s.51.08.75.19c.24.12.48.26.73.42.25.17.46.33.63.5.47.54.81,1.18,1.02,1.93.21.74.32,1.47.32,2.17,0,.25,0,.49-.03.73s-.04.47-.06.69v.02Zm-1.71-.21c.02-.2.04-.4.06-.6.02-.2.03-.4.03-.6,0-.13,0-.27-.02-.42-.01-.15-.03-.3-.05-.45-.05-.31-.1-.61-.17-.9-.06-.29-.18-.57-.34-.83-.2-.34-.45-.61-.74-.8-.29-.19-.6-.28-.92-.28-.22,0-.45.05-.68.15-.23.1-.45.24-.65.42-.21.2-.4.45-.56.74-.16.29-.3.62-.42.97s-.21.73-.27,1.11c-.06.39-.09.78-.09,1.17,0,.57.06,1.1.19,1.6s.33.91.6,1.23c.2.22.41.38.62.46.21.08.44.15.67.21.39-.06.73-.18,1.03-.37s.55-.42.78-.7c.22-.28.41-.59.56-.93s.26-.7.34-1.08l.02-.11Z"/><path class="cls-34" d="m23.98,159.88c-.01.31-.1.53-.27.68s-.37.22-.6.22c-.2,0-.38-.06-.54-.19-.16-.13-.26-.34-.3-.64v-1.87l-3.62-.05c-.59-.05-.88-.32-.88-.81,0-.04.01-.11.04-.23.4-.73.81-1.45,1.22-2.17.41-.71.83-1.42,1.24-2.13l1.43-2.48c.2-.31.48-.46.83-.46.2,0,.39.07.57.21.18.14.27.33.27.57,0,.11-.04.24-.12.39-.27.47-.54.94-.81,1.41-.27.47-.54.94-.81,1.43l-1.57,2.71,2.25.05v-1.87c.14-.5.42-.74.84-.74.21,0,.39.06.55.17.16.11.26.29.32.52v1.94h.95c.51.19.77.45.77.79,0,.38-.28.65-.84.79-.16,0-.29,0-.42,0s-.28,0-.46,0v1.77Z"/><path class="cls-34" d="m34.76,156.22c-.11.42-.27.88-.49,1.38-.22.5-.48.96-.8,1.39-.32.43-.68.8-1.09,1.12-.41.32-.87.51-1.38.58-.11.02-.22.04-.35.04-.13,0-.25,0-.37,0-.21,0-.42-.02-.64-.06-.21-.04-.42-.12-.62-.22l-.19-.11c-.22-.11-.43-.22-.63-.35s-.36-.29-.49-.5c-.41-.57-.71-1.18-.9-1.86s-.28-1.34-.28-2.02c0-.25.01-.5.04-.75s.05-.5.09-.73c.07-.48.21-.99.41-1.52s.46-1.02.79-1.46.71-.81,1.17-1.11c.46-.3.98-.46,1.57-.49.28-.01.56,0,.82,0s.51.08.75.19c.24.12.48.26.73.42.25.17.46.33.63.5.47.54.81,1.18,1.02,1.93.21.74.32,1.47.32,2.17,0,.25,0,.49-.03.73s-.04.47-.06.69v.02Zm-1.71-.21c.02-.2.04-.4.06-.6.02-.2.03-.4.03-.6,0-.13,0-.27-.02-.42-.01-.15-.03-.3-.05-.45-.05-.31-.1-.61-.17-.9-.06-.29-.18-.57-.34-.83-.2-.34-.45-.61-.74-.8-.29-.19-.6-.28-.92-.28-.22,0-.45.05-.68.15-.23.1-.45.24-.65.42-.21.2-.4.45-.56.74-.16.29-.3.62-.42.97s-.21.73-.27,1.11c-.06.39-.09.78-.09,1.17,0,.57.06,1.1.19,1.6s.33.91.6,1.23c.2.22.41.38.62.46.21.08.44.15.67.21.39-.06.73-.18,1.03-.37s.55-.42.78-.7c.22-.28.41-.59.56-.93s.26-.7.34-1.08l.02-.11Z"/><path class="cls-34" d="m21.12,214.14c-.46,0-.88.13-1.27.39-.39.26-.75.57-1.1.92-.2.16-.43.25-.69.25-.24,0-.43-.07-.58-.22-.15-.15-.23-.34-.23-.57,0-.19.06-.38.18-.57.22-.24.47-.47.73-.7.27-.23.54-.43.84-.61.29-.18.6-.32.93-.42s.66-.16,1-.16c.39,0,.75.08,1.1.24.34.16.64.38.89.67.25.29.45.63.6,1.04.15.4.22.84.22,1.33,0,.39-.08.75-.23,1.08-.15.33-.35.63-.58.9-.24.27-.5.52-.8.73-.3.22-.6.42-.89.59-.24.14-.47.29-.69.44s-.43.33-.63.53c-.19.2-.36.44-.5.71-.14.27-.24.59-.3.96h3.13c.11-.01.19-.04.27-.09.07-.05.13-.1.19-.16.05-.06.11-.12.16-.19.05-.06.11-.12.19-.15.07-.04.15-.06.23-.07.08-.01.17-.02.25-.02.25,0,.45.08.61.24.16.16.24.35.24.56,0,.13-.02.23-.05.3-.04.07-.07.13-.11.18-.24.31-.51.56-.82.77-.31.21-.67.31-1.09.31h-4.15c-.53-.06-.83-.35-.88-.88.04-.39.09-.77.16-1.14.07-.37.17-.73.3-1.07.13-.34.3-.66.5-.96.21-.3.46-.58.77-.82.09-.08.23-.18.42-.28.18-.11.37-.22.56-.34.24-.14.47-.29.72-.43.24-.15.46-.32.65-.51s.35-.41.47-.65c.12-.24.18-.51.18-.83,0-.26-.08-.52-.25-.79-.17-.27-.37-.43-.6-.49Z"/><path class="cls-34" d="m33.76,219.22c-.11.42-.27.88-.49,1.38-.22.49-.48.96-.8,1.39-.32.43-.68.8-1.09,1.12-.41.32-.87.51-1.38.58-.11.02-.22.04-.35.04-.13,0-.25,0-.37,0-.21,0-.42-.02-.64-.06-.21-.04-.42-.12-.62-.22l-.19-.11c-.22-.11-.43-.22-.63-.35s-.36-.29-.49-.5c-.41-.57-.71-1.18-.9-1.86s-.28-1.34-.28-2.02c0-.25.01-.5.04-.75s.05-.5.09-.73c.07-.48.21-.99.41-1.52.2-.53.46-1.02.79-1.46s.71-.81,1.17-1.11.98-.46,1.57-.49c.28-.01.56,0,.82,0s.51.08.75.19c.24.12.48.26.73.42.25.17.46.33.63.5.47.54.81,1.18,1.02,1.93.21.74.32,1.47.32,2.17,0,.25,0,.49-.03.73-.02.24-.04.46-.06.69v.02Zm-1.71-.21c.02-.2.04-.4.06-.6.02-.2.03-.4.03-.6,0-.13,0-.27-.02-.42-.01-.15-.03-.3-.05-.45-.05-.31-.1-.61-.17-.9-.06-.29-.18-.57-.34-.83-.2-.34-.45-.61-.74-.79-.29-.19-.6-.28-.92-.28-.22,0-.45.05-.68.15-.23.1-.45.24-.65.42-.21.2-.4.45-.56.74-.16.29-.3.62-.42.97s-.21.73-.27,1.11c-.06.39-.09.78-.09,1.17,0,.57.06,1.1.19,1.6s.33.91.6,1.23c.2.22.41.38.62.46.21.08.44.15.67.21.39-.06.73-.18,1.03-.37s.55-.42.78-.7c.22-.28.41-.59.56-.93s.26-.7.34-1.08l.02-.11Z"/><path class="cls-34" d="m32.66,277.22c-.11.42-.27.88-.49,1.38-.22.49-.48.96-.8,1.39-.32.43-.68.8-1.09,1.12-.41.32-.87.51-1.38.58-.11.02-.22.04-.35.04-.13,0-.25,0-.37,0-.21,0-.42-.02-.64-.06-.21-.04-.42-.12-.62-.22l-.19-.11c-.22-.11-.43-.22-.63-.35s-.36-.29-.49-.5c-.41-.57-.71-1.18-.9-1.86s-.28-1.34-.28-2.02c0-.25.01-.5.04-.75s.05-.5.09-.73c.07-.48.21-.99.41-1.52.2-.53.46-1.02.79-1.46s.71-.81,1.17-1.11.98-.46,1.57-.49c.28-.01.56,0,.82,0s.51.08.75.19c.24.12.48.26.73.42.25.17.46.33.63.5.47.54.81,1.18,1.02,1.93.21.74.32,1.47.32,2.17,0,.25,0,.49-.03.73-.02.24-.04.46-.06.69v.02Zm-1.71-.21c.02-.2.04-.4.06-.6.02-.2.03-.4.03-.6,0-.13,0-.27-.02-.42-.01-.15-.03-.3-.05-.45-.05-.31-.1-.61-.17-.9-.06-.29-.18-.57-.34-.83-.2-.34-.45-.61-.74-.79-.29-.19-.6-.28-.92-.28-.22,0-.45.05-.68.15-.23.1-.45.24-.65.42-.21.2-.4.45-.56.74-.16.29-.3.62-.42.97s-.21.73-.27,1.11c-.06.39-.09.78-.09,1.17,0,.57.06,1.1.19,1.6s.33.91.6,1.23c.2.22.41.38.62.46.21.08.44.15.67.21.39-.06.73-.18,1.03-.37s.55-.42.78-.7c.22-.28.41-.59.56-.93s.26-.7.34-1.08l.02-.11Z"/><path class="cls-10" d="m37.35,16.25c4.95,6.98,9.64,12.16,8.96,12.65s-5.24-4.79-10.19-11.77c-4.95-6.98-8.41-13.04-7.73-13.52s4.01,5.66,8.96,12.65Z"/><ellipse class="cls-11" cx="36.66" cy="16.02" rx="23" ry=".45" transform="translate(-2.37 24.83) rotate(-36.32)"/><path class="cls-20" d="m69.98,100c-.62,1.26-3.67,1.04-8.7,1-8.11-.06-11.5.44-12.18-1-.02-.05-.23-.51,0-1,.63-1.32,3.69-1,10.44-1s9.8-.31,10.44,1c.01.03.24.51,0,1Z"/><path class="cls-16" d="m69.98,112c-.62,1.26-3.67,1.04-8.7,1-8.11-.06-11.5.44-12.18-1-.02-.05-.23-.51,0-1,.63-1.32,3.69-1,10.44-1s9.8-.31,10.44,1c.01.03.24.51,0,1Z"/><path class="cls-14" d="m68.98,124c-.62,1.26-3.67,1.04-8.7,1-8.11-.06-11.5.44-12.18-1-.02-.05-.23-.51,0-1,.63-1.32,3.69-1,10.44-1s9.8-.31,10.44,1c.01.03.24.51,0,1Z"/><path class="cls-13" d="m66.98,136c-.62,1.26-3.67,1.04-8.7,1-8.11-.06-11.5.44-12.18-1-.02-.05-.23-.51,0-1,.63-1.32,3.69-1,10.44-1s9.8-.31,10.44,1c.01.03.24.51,0,1Z"/><path class="cls-19" d="m65.98,148c-.62,1.26-3.67,1.04-8.7,1-8.11-.06-11.5.44-12.18-1-.02-.05-.23-.51,0-1,.63-1.32,3.69-1,10.44-1s9.8-.31,10.44,1c.01.03.24.51,0,1Z"/><path class="cls-15" d="m65.98,160c-.62,1.26-3.67,1.04-8.7,1-8.11-.06-11.5.44-12.18-1-.02-.05-.23-.51,0-1,.63-1.32,3.69-1,10.44-1s9.8-.31,10.44,1c.01.03.24.51,0,1Z"/><path class="cls-22" d="m65.98,172c-.62,1.26-3.67,1.04-8.7,1-8.11-.06-11.5.44-12.18-1-.02-.05-.23-.51,0-1,.63-1.32,3.69-1,10.44-1s9.8-.31,10.44,1c.01.03.24.51,0,1Z"/><path class="cls-18" d="m66.98,184c-.62,1.26-3.67,1.04-8.7,1-8.11-.06-11.5.44-12.18-1-.02-.05-.23-.51,0-1,.63-1.32,3.69-1,10.44-1s9.8-.31,10.44,1c.01.03.24.51,0,1Z"/><path class="cls-21" d="m66.98,196c-.62,1.26-3.67,1.04-8.7,1-8.11-.06-11.5.44-12.18-1-.02-.05-.23-.51,0-1,.63-1.32,3.69-1,10.44-1s9.8-.31,10.44,1c.01.03.24.51,0,1Z"/><path class="cls-17" d="m67.98,208c-.62,1.26-3.67,1.04-8.7,1-8.11-.06-11.5.44-12.18-1-.02-.05-.23-.51,0-1,.63-1.32,3.69-1,10.44-1s9.8-.31,10.44,1c.01.03.24.51,0,1Z"/><path class="cls-24" d="m68.98,220c-.62,1.26-3.67,1.04-8.7,1-8.11-.06-11.5.44-12.18-1-.02-.05-.23-.51,0-1,.63-1.32,3.69-1,10.44-1s9.8-.31,10.44,1c.01.03.24.51,0,1Z"/><path class="cls-8" d="m69.98,232c-.62,1.26-3.67,1.04-8.7,1-8.11-.06-11.5.44-12.18-1-.02-.05-.23-.51,0-1,.63-1.32,3.69-1,10.44-1s9.8-.31,10.44,1c.01.03.24.51,0,1Z"/><path class="cls-25" d="m70.98,244c-.62,1.26-3.67,1.04-8.7,1-8.11-.06-11.5.44-12.18-1-.02-.05-.23-.51,0-1,.63-1.32,3.69-1,10.44-1s9.8-.31,10.44,1c.01.03.24.51,0,1Z"/><path class="cls-23" d="m71.98,256c-.62,1.26-3.67,1.04-8.7,1-8.11-.06-11.5.44-12.18-1-.02-.05-.23-.51,0-1,.63-1.32,3.69-1,10.44-1s9.8-.31,10.44,1c.01.03.24.51,0,1Z"/><path class="cls-7" d="m72.98,268c-.62,1.26-3.67,1.04-8.7,1-8.11-.06-11.5.44-12.18-1-.02-.05-.23-.51,0-1,.63-1.32,3.69-1,10.44-1s9.8-.31,10.44,1c.01.03.24.51,0,1Z"/><path class="cls-3" d="m73.98,280c-.62,1.26-3.67,1.04-8.7,1-8.11-.06-11.5.44-12.18-1-.02-.05-.23-.51,0-1,.63-1.32,3.69-1,10.44-1s9.8-.31,10.44,1c.01.03.24.51,0,1Z"/><path class="cls-5" d="m68,60c.38-1.34-16.07-11.58-35-9-18.15,2.48-30.76,15.67-30,17,.74,1.29,13.84-9.23,35-11,17.72-1.48,29.68,4.13,30,3Z"/><path class="cls-6" d="m78,304c.38-1.34-15.07-11.58-34-9-18.15,2.48-30.76,10.67-30,12,.74,1.29,12.69-7.9,33.85-9.67,17.72-1.48,29.83,7.8,30.15,6.67Z"/><path class="cls-4" d="m62,327c.62-.52-1.85-5.42-6-9-2.06-1.78-6.19-5.35-12-5-5.69.34-9.33,4.22-11,6-3.89,4.15-5.71,9.55-5,10,1.17.73,6.79-13.37,16-14,9.31-.64,16.95,12.87,18,12Z"/><path class="cls-2" d="m56.85,385.58c.33-.24-.89-2.78-2.85-4.7-.97-.96-2.92-2.87-5.82-2.88-2.85-.01-4.79,1.8-5.68,2.64-2.08,1.95-4.08,5.54-3.74,5.78.56.4,4.74-6.41,9.36-6.42,4.66-.02,8.18,5.99,8.74,5.59Z"/></svg>